# Blender v3.1.2 OBJ File: 'arm.blend'
# www.blender.org
mtllib arm.mtl
o Cylinder.004
v 0.102597 -2.388113 -0.051679
v 0.173917 -2.435114 -0.058787
v 0.221844 -2.505959 -0.064265
v 0.239083 -2.589863 -0.067279
v 0.223009 -2.674052 -0.067371
v 0.176070 -2.745709 -0.064526
v 0.105410 -2.793925 -0.059177
v 0.075680 -2.793076 -0.116229
v 0.121136 -2.744142 -0.169944
v 0.151236 -2.672004 -0.205106
v 0.161396 -2.587647 -0.216363
v 0.150071 -2.503911 -0.202000
v 0.118983 -2.433547 -0.164205
v 0.072867 -2.387264 -0.108731
v 0.018743 -2.372111 -0.044023
v 0.011500 -2.387332 -0.128059
v 0.005592 -2.433673 -0.199918
v 0.001917 -2.504076 -0.248662
v 0.001036 -2.587825 -0.266870
v 0.003083 -2.672169 -0.251768
v 0.007745 -2.744268 -0.205658
v 0.014313 -2.793144 -0.135557
v -0.042743 -2.794089 -0.105839
v -0.097682 -2.746013 -0.150746
v -0.134664 -2.674449 -0.180023
v -0.148060 -2.590293 -0.189213
v -0.135829 -2.506357 -0.176917
v -0.099835 -2.435418 -0.145007
v -0.045556 -2.388277 -0.098341
v -0.064879 -2.389545 -0.036985
v -0.135539 -2.437760 -0.031636
v -0.182479 -2.509417 -0.028791
v -0.198553 -2.593606 -0.028883
v -0.181314 -2.677510 -0.031897
v -0.133386 -2.748356 -0.037375
v -0.062066 -2.795357 -0.044484
v 0.021788 -2.811358 -0.052139
v -0.032337 -2.796205 0.012568
v -0.078453 -2.749923 0.068043
v -0.109540 -2.679558 0.105838
v -0.120865 -2.595822 0.120201
v -0.110705 -2.511465 0.108944
v -0.080606 -2.439327 0.073782
v -0.035150 -2.390393 0.020067
v 0.026217 -2.390325 0.039395
v 0.032786 -2.439201 0.109495
v 0.037448 -2.511300 0.155606
v 0.039494 -2.595644 0.170707
v 0.038613 -2.679393 0.152500
v 0.034939 -2.749797 0.103756
v 0.029030 -2.796137 0.031896
v 0.086087 -2.795192 0.002178
v 0.140365 -2.748051 0.048844
v 0.176360 -2.677112 0.080754
v 0.188590 -2.593176 0.093050
v 0.175195 -2.509020 0.083860
v 0.138212 -2.437456 0.054584
v 0.083274 -2.389380 0.009677
v 0.144180 -2.445644 -0.192610
v 0.212052 -2.447580 -0.062361
v 0.167938 -2.450474 0.077713
v 0.037679 -2.452631 0.145559
v -0.102421 -2.452786 0.101433
v -0.170294 -2.450850 -0.028816
v -0.126180 -2.447956 -0.168890
v 0.004080 -2.445800 -0.236735
v 0.195350 -0.129501 -0.229991
v 0.300220 -0.132492 -0.028743
v 0.232060 -0.136964 0.187686
v 0.030796 -0.140296 0.292515
v -0.185674 -0.140537 0.224336
v -0.290544 -0.137545 0.023088
v -0.222383 -0.133073 -0.193341
v -0.021119 -0.129741 -0.298169
v 0.019435 -2.240789 -0.041737
v 0.006463 -0.369413 -0.007158
v 0.366755 -0.781835 0.003166
v 0.241388 -0.778259 -0.237416
v 0.285272 -0.787181 0.261896
v 0.044671 -0.791164 0.387214
v -0.214108 -0.791452 0.305710
v -0.339475 -0.787875 0.065128
v -0.257992 -0.782530 -0.193603
v -0.017390 -0.778546 -0.318921
vn 0.0069 -0.9998 -0.0185
vn 0.2778 -0.8983 -0.3405
vn 0.4272 -0.9025 -0.0537
vn 0.4735 -0.6701 -0.5716
vn 0.7315 -0.6775 -0.0764
vn 0.6002 -0.3494 -0.7195
vn 0.9293 -0.3588 -0.0881
vn 0.6425 0.0186 -0.7661
vn 0.9961 0.0085 -0.0874
vn 0.5952 0.3840 -0.7059
vn 0.9242 0.3746 -0.0745
vn 0.4640 0.6973 -0.5463
vn 0.7221 0.6899 -0.0511
vn 0.2652 0.9140 -0.3070
vn 0.4147 0.9097 -0.0202
vn -0.0069 0.9998 0.0185
vn -0.0433 0.9137 -0.4042
vn -0.0686 0.6967 -0.7141
vn -0.0840 0.3833 -0.9198
vn -0.0875 0.0178 -0.9960
vn -0.0789 -0.3502 -0.9334
vn -0.0591 -0.6707 -0.7393
vn -0.0307 -0.8986 -0.4376
vn -0.3175 -0.9034 -0.2882
vn -0.5543 -0.6789 -0.4814
vn -0.7103 -0.3606 -0.6045
vn -0.7663 0.0066 -0.6425
vn -0.7154 0.3728 -0.5909
vn -0.5638 0.6885 -0.4561
vn -0.3301 0.9089 -0.2548
vn -0.4272 0.9025 0.0537
vn -0.7315 0.6775 0.0764
vn -0.9293 0.3588 0.0881
vn -0.9961 -0.0085 0.0874
vn -0.9242 -0.3746 0.0745
vn -0.7221 -0.6899 0.0511
vn -0.4147 -0.9097 0.0202
vn -0.2652 -0.9140 0.3070
vn -0.4640 -0.6973 0.5463
vn -0.5952 -0.3840 0.7059
vn -0.6425 -0.0186 0.7661
vn -0.6002 0.3494 0.7195
vn -0.4735 0.6701 0.5716
vn -0.2778 0.8983 0.3405
vn 0.0307 0.8986 0.4376
vn 0.0591 0.6707 0.7393
vn 0.0789 0.3502 0.9334
vn 0.0875 -0.0178 0.9960
vn 0.0840 -0.3833 0.9198
vn 0.0686 -0.6967 0.7141
vn 0.0433 -0.9137 0.4041
vn 0.3301 -0.9089 0.2548
vn 0.5638 -0.6885 0.4561
vn 0.7154 -0.3728 0.5909
vn 0.7663 -0.0066 0.6425
vn 0.7103 0.3606 0.6045
vn 0.5543 0.6789 0.4814
vn 0.3175 0.9034 0.2882
vn 0.3214 -0.8569 -0.4029
vn 0.4939 -0.8668 -0.0686
vn 0.5390 0.8406 -0.0539
vn 0.3483 0.8322 -0.4313
vn 0.3797 -0.8790 0.2883
vn 0.4074 0.8464 0.3431
vn 0.0480 -0.8865 0.4602
vn 0.0394 0.8461 0.5316
vn -0.3087 -0.8849 0.3487
vn -0.3557 0.8398 0.4100
vn -0.4836 -0.8751 0.0172
vn -0.5543 0.8312 0.0421
vn -0.3721 -0.8629 -0.3421
vn -0.4322 0.8256 -0.3628
vn -0.0380 -0.8553 -0.5167
vn -0.0563 0.8261 -0.5608
vn 0.6493 -0.0013 -0.7605
vn 0.9972 0.0048 -0.0752
vn 0.7606 0.0052 0.6492
vn 0.0874 0.0001 0.9962
vn -0.6359 -0.0068 0.7717
vn -0.9949 -0.0122 0.0996
vn -0.7717 -0.0135 -0.6359
vn -0.0873 -0.0092 -0.9961
g Cylinder.004_Cylinder.004_Drevo
usemtl Drevo
s 1
f 37//1 8//2 7//3
f 7//3 8//2 9//4 6//5
f 6//5 9//4 10//6 5//7
f 5//7 10//6 11//8 4//9
f 4//9 11//8 12//10 3//11
f 3//11 12//10 13//12 2//13
f 14//14 1//15 2//13 13//12
f 1//15 14//14 15//16
f 14//14 16//17 15//16
f 13//12 17//18 16//17 14//14
f 12//10 18//19 17//18 13//12
f 11//8 19//20 18//19 12//10
f 10//6 20//21 19//20 11//8
f 9//4 21//22 20//21 10//6
f 8//2 22//23 21//22 9//4
f 37//1 22//23 8//2
f 37//1 23//24 22//23
f 22//23 23//24 24//25 21//22
f 21//22 24//25 25//26 20//21
f 20//21 25//26 26//27 19//20
f 19//20 26//27 27//28 18//19
f 18//19 27//28 28//29 17//18
f 17//18 28//29 29//30 16//17
f 16//17 29//30 15//16
f 29//30 30//31 15//16
f 28//29 31//32 30//31 29//30
f 27//28 32//33 31//32 28//29
f 26//27 33//34 32//33 27//28
f 25//26 34//35 33//34 26//27
f 24//25 35//36 34//35 25//26
f 23//24 36//37 35//36 24//25
f 37//1 36//37 23//24
f 37//1 38//38 36//37
f 36//37 38//38 39//39 35//36
f 35//36 39//39 40//40 34//35
f 34//35 40//40 41//41 33//34
f 33//34 41//41 42//42 32//33
f 32//33 42//42 43//43 31//32
f 31//32 43//43 44//44 30//31
f 30//31 44//44 15//16
f 44//44 45//45 15//16
f 43//43 46//46 45//45 44//44
f 42//42 47//47 46//46 43//43
f 41//41 48//48 47//47 42//42
f 40//40 49//49 48//48 41//41
f 39//39 50//50 49//49 40//40
f 38//38 51//51 50//50 39//39
f 37//1 51//51 38//38
f 37//1 52//52 51//51
f 51//51 52//52 53//53 50//50
f 50//50 53//53 54//54 49//49
f 49//49 54//54 55//55 48//48
f 48//48 55//55 56//56 47//47
f 47//47 56//56 57//57 46//46
f 46//46 57//57 58//58 45//45
f 45//45 58//58 15//16
f 58//58 1//15 15//16
f 1//15 58//58 57//57 2//13
f 56//56 3//11 2//13 57//57
f 55//55 4//9 3//11 56//56
f 54//54 5//7 4//9 55//55
f 53//53 6//5 5//7 54//54
f 52//52 7//3 6//5 53//53
f 37//1 7//3 52//52
f 75//1 59//59 60//60
f 76//16 68//61 67//62
f 75//1 60//60 61//63
f 76//16 69//64 68//61
f 75//1 61//63 62//65
f 76//16 70//66 69//64
f 75//1 62//65 63//67
f 76//16 71//68 70//66
f 75//1 63//67 64//69
f 76//16 72//70 71//68
f 75//1 64//69 65//71
f 76//16 73//72 72//70
f 75//1 65//71 66//73
f 76//16 74//74 73//72
f 66//73 59//59 75//1
f 76//16 67//62 74//74
f 59//59 78//75 77//76 60//60
f 78//75 67//62 68//61 77//76
f 60//60 77//76 79//77 61//63
f 77//76 68//61 69//64 79//77
f 61//63 79//77 80//78 62//65
f 79//77 69//64 70//66 80//78
f 62//65 80//78 81//79 63//67
f 80//78 70//66 71//68 81//79
f 63//67 81//79 82//80 64//69
f 81//79 71//68 72//70 82//80
f 64//69 82//80 83//81 65//71
f 82//80 72//70 73//72 83//81
f 65//71 83//81 84//82 66//73
f 83//81 73//72 74//74 84//82
f 67//62 78//75 84//82 74//74
f 78//75 59//59 66//73 84//82
l 1 2
l 2 3
l 3 4
l 4 5
l 5 6
l 6 7
l 7 8
l 6 9
l 8 9
l 5 10
l 9 10
l 4 11
l 10 11
l 3 12
l 11 12
l 2 13
l 12 13
l 1 14
l 13 14
l 14 15
l 14 16
l 16 17
l 13 17
l 17 18
l 12 18
l 18 19
l 11 19
l 19 20
l 10 20
l 20 21
l 9 21
l 21 22
l 8 22
l 22 23
l 21 24
l 23 24
l 20 25
l 24 25
l 19 26
l 25 26
l 18 27
l 26 27
l 17 28
l 27 28
l 16 29
l 28 29
l 29 30
l 30 31
l 28 31
l 31 32
l 27 32
l 32 33
l 26 33
l 33 34
l 25 34
l 34 35
l 24 35
l 35 36
l 23 36
l 36 38
l 37 38
l 35 39
l 38 39
l 34 40
l 39 40
l 33 41
l 40 41
l 32 42
l 41 42
l 31 43
l 42 43
l 30 44
l 43 44
l 44 45
l 45 46
l 43 46
l 46 47
l 42 47
l 47 48
l 41 48
l 48 49
l 40 49
l 49 50
l 39 50
l 50 51
l 38 51
l 51 52
l 50 53
l 52 53
l 49 54
l 53 54
l 48 55
l 54 55
l 47 56
l 55 56
l 46 57
l 56 57
l 45 58
l 57 58
l 7 37
l 7 52
l 6 53
l 5 54
l 4 55
l 3 56
l 2 57
l 1 58
l 1 15
l 15 58
l 37 52
l 37 51
l 15 45
l 15 44
l 36 37
l 15 30
l 15 29
l 23 37
l 22 37
l 15 16
l 8 37
l 59 75
l 59 60
l 60 75
l 67 76
l 67 68
l 68 76
l 60 61
l 61 75
l 68 69
l 69 76
l 61 62
l 62 75
l 69 70
l 70 76
l 62 63
l 63 75
l 70 71
l 71 76
l 63 64
l 64 75
l 71 72
l 72 76
l 64 65
l 65 75
l 72 73
l 73 76
l 65 66
l 66 75
l 73 74
l 74 76
l 59 66
l 67 74
l 60 77
l 68 77
l 59 78
l 67 78
l 61 79
l 69 79
l 62 80
l 70 80
l 63 81
l 71 81
l 64 82
l 72 82
l 65 83
l 73 83
l 66 84
l 74 84
l 77 78
l 77 79
l 79 80
l 80 81
l 81 82
l 82 83
l 83 84
l 78 84
