# Blender v3.1.2 OBJ File: ''
# www.blender.org
mtllib foot.mtl
o Sphere.014_Sphere.017
v 0.117779 -3.546043 0.000000
v 0.205311 -3.603797 0.000000
v 0.264078 -3.690653 0.000000
v 0.285134 -3.793386 0.000000
v 0.265273 -3.896357 0.000000
v 0.207518 -3.983889 0.000000
v 0.120663 -4.042656 0.000000
v 0.090538 -4.042831 -0.072728
v 0.151855 -3.984212 -0.134385
v 0.192545 -3.896779 -0.175582
v 0.206414 -3.793843 -0.190049
v 0.191351 -3.691075 -0.175582
v 0.149648 -3.604121 -0.134385
v 0.087654 -3.546218 -0.072728
v 0.014808 -3.526182 0.000000
v 0.014927 -3.546640 -0.102854
v 0.015265 -3.604901 -0.190049
v 0.015771 -3.692095 -0.248311
v 0.016369 -3.794947 -0.268770
v 0.016966 -3.897799 -0.248311
v 0.017472 -3.984993 -0.190049
v 0.017811 -4.043253 -0.102854
v -0.054917 -4.043676 -0.072728
v -0.116910 -3.985773 -0.134385
v -0.158613 -3.898818 -0.175582
v -0.173677 -3.796050 -0.190049
v -0.159808 -3.693115 -0.175582
v -0.119117 -3.605681 -0.134385
v -0.057801 -3.547062 -0.072728
v -0.087925 -3.547237 0.000000
v -0.174780 -3.606005 0.000000
v -0.232535 -3.693537 0.000000
v -0.252396 -3.796508 0.000000
v -0.231341 -3.899241 0.000000
v -0.172573 -3.986096 0.000000
v -0.085041 -4.043850 0.000000
v 0.017930 -4.063712 0.000000
v -0.054917 -4.043676 0.072729
v -0.116910 -3.985773 0.134385
v -0.158613 -3.898818 0.175582
v -0.173677 -3.796050 0.190049
v -0.159808 -3.693115 0.175582
v -0.119117 -3.605681 0.134385
v -0.057801 -3.547062 0.072729
v 0.014927 -3.546640 0.102854
v 0.015265 -3.604901 0.190049
v 0.015772 -3.692095 0.248311
v 0.016369 -3.794947 0.268770
v 0.016966 -3.897799 0.248311
v 0.017472 -3.984993 0.190049
v 0.017811 -4.043253 0.102854
v 0.090538 -4.042831 0.072729
v 0.151855 -3.984212 0.134385
v 0.192545 -3.896779 0.175582
v 0.206414 -3.793843 0.190049
v 0.191351 -3.691075 0.175582
v 0.149648 -3.604121 0.134385
v 0.087654 -3.546218 0.072729
v -0.040910 -4.384757 1.952095
v -0.042024 -4.193064 1.829910
v -0.042967 -4.030554 1.716323
v -0.043598 -3.921969 0.961212
v -0.179146 -3.922756 0.781299
v -0.350693 -4.032341 1.611772
v -0.444087 -4.195398 1.689151
v -0.476100 -4.387284 1.716323
v -0.541829 -4.387666 0.404713
v -0.504812 -4.195751 0.404713
v -0.397170 -4.032611 0.404713
v -0.235291 -3.923082 0.404713
v -0.179146 -3.922756 -0.247369
v -0.293426 -4.032008 -0.308677
v -0.369264 -4.194964 -0.349642
v -0.395113 -4.386814 -0.364027
v -0.040910 -4.384757 -0.442304
v -0.042024 -4.193063 -0.421961
v -0.042967 -4.030554 -0.364027
v -0.043598 -3.921968 -0.277324
v -0.043819 -3.883838 0.404713
v 0.091950 -3.921181 -0.247369
v 0.207492 -4.029099 -0.308677
v 0.285217 -4.191163 -0.349642
v 0.313292 -4.382699 -0.364027
v 0.460008 -4.381847 0.404713
v 0.420764 -4.190376 0.404713
v 0.311235 -4.028497 0.404713
v 0.148095 -3.920855 0.404713
v 0.091949 -3.921181 0.781299
v 0.264758 -4.028767 1.611772
v 0.360039 -4.190729 1.689151
v 0.394279 -4.382229 1.716323
vn 0.0058 -1.0000 0.0000
vn 0.3041 -0.9046 -0.2988
vn 0.4278 -0.9039 0.0000
vn 0.5199 -0.6808 -0.5159
vn 0.7336 -0.6796 0.0000
vn 0.6599 -0.3630 -0.6578
vn 0.9324 -0.3614 0.0000
vn 0.7071 0.0041 -0.7071
vn 1.0000 0.0058 -0.0000
vn 0.6557 0.3706 -0.6578
vn 0.9282 0.3722 -0.0000
vn 0.5119 0.6868 -0.5159
vn 0.7256 0.6881 0.0000
vn 0.2935 0.9080 -0.2988
vn 0.4173 0.9088 -0.0000
vn -0.0058 1.0000 0.0000
vn -0.0053 0.9063 -0.4226
vn -0.0040 0.6838 -0.7296
vn -0.0021 0.3668 -0.9303
vn 0.0000 0.0000 -1.0000
vn 0.0021 -0.3668 -0.9303
vn 0.0040 -0.6838 -0.7296
vn 0.0053 -0.9063 -0.4226
vn -0.2935 -0.9080 -0.2988
vn -0.5119 -0.6868 -0.5159
vn -0.6557 -0.3706 -0.6578
vn -0.7071 -0.0041 -0.7071
vn -0.6599 0.3630 -0.6578
vn -0.5199 0.6808 -0.5159
vn -0.3041 0.9046 -0.2988
vn -0.4278 0.9039 -0.0000
vn -0.7336 0.6796 -0.0000
vn -0.9324 0.3614 0.0000
vn -1.0000 -0.0058 0.0000
vn -0.9282 -0.3722 -0.0000
vn -0.7256 -0.6881 -0.0000
vn -0.4173 -0.9088 -0.0000
vn -0.2935 -0.9080 0.2988
vn -0.5119 -0.6868 0.5159
vn -0.6557 -0.3706 0.6578
vn -0.7071 -0.0041 0.7071
vn -0.6599 0.3630 0.6578
vn -0.5199 0.6808 0.5159
vn -0.3041 0.9046 0.2988
vn -0.0053 0.9063 0.4226
vn -0.0040 0.6838 0.7296
vn -0.0021 0.3668 0.9303
vn 0.0000 0.0000 1.0000
vn 0.0021 -0.3668 0.9303
vn 0.0040 -0.6838 0.7296
vn 0.0053 -0.9063 0.4226
vn 0.3041 -0.9046 0.2988
vn 0.5199 -0.6808 0.5159
vn 0.6599 -0.3630 0.6578
vn 0.7071 0.0041 0.7071
vn 0.6557 0.3706 0.6578
vn 0.5119 0.6868 0.5159
vn 0.2935 0.9080 0.2988
vn -0.0058 1.0000 0.0080
vn -0.2842 0.9570 0.0581
vn -0.0058 0.9934 0.1149
vn -0.4904 0.7942 0.3589
vn -0.0047 0.8163 0.5776
vn -0.7360 0.4464 0.5090
vn -0.0028 0.4741 0.8805
vn -0.7251 -0.4845 0.4895
vn 0.0027 -0.4721 0.8815
vn -0.9360 0.3470 -0.0596
vn -0.7844 -0.6181 -0.0524
vn -0.7271 0.6855 -0.0373
vn -0.3955 0.9185 -0.0076
vn -0.3031 0.8825 -0.3597
vn -0.5586 0.6117 -0.5602
vn -0.6877 0.3125 -0.6553
vn -0.6107 -0.5414 -0.5778
vn -0.0013 0.2188 -0.9758
vn 0.0036 -0.6218 -0.7832
vn -0.0028 0.4771 -0.8788
vn -0.0050 0.8655 -0.5009
vn 0.2928 0.8859 -0.3597
vn 0.5514 0.6182 -0.5602
vn 0.6840 0.3205 -0.6553
vn 0.6170 -0.5343 -0.5778
vn 0.9319 0.3578 -0.0596
vn 0.7915 -0.6089 -0.0524
vn 0.7191 0.6939 -0.0373
vn 0.3848 0.9230 -0.0076
vn 0.2731 0.9602 0.0581
vn 0.4811 0.7999 0.3589
vn 0.7307 0.4549 0.5090
vn 0.7306 -0.4760 0.4895
g Sphere.014_Sphere.017_Drevo
usemtl Drevo
s 1
f 37//1 8//2 7//3
f 7//3 8//2 9//4 6//5
f 6//5 9//4 10//6 5//7
f 5//7 10//6 11//8 4//9
f 4//9 11//8 12//10 3//11
f 3//11 12//10 13//12 2//13
f 14//14 1//15 2//13 13//12
f 1//15 14//14 15//16
f 14//14 16//17 15//16
f 13//12 17//18 16//17 14//14
f 12//10 18//19 17//18 13//12
f 11//8 19//20 18//19 12//10
f 10//6 20//21 19//20 11//8
f 9//4 21//22 20//21 10//6
f 8//2 22//23 21//22 9//4
f 37//1 22//23 8//2
f 37//1 23//24 22//23
f 22//23 23//24 24//25 21//22
f 21//22 24//25 25//26 20//21
f 20//21 25//26 26//27 19//20
f 19//20 26//27 27//28 18//19
f 18//19 27//28 28//29 17//18
f 17//18 28//29 29//30 16//17
f 16//17 29//30 15//16
f 29//30 30//31 15//16
f 28//29 31//32 30//31 29//30
f 27//28 32//33 31//32 28//29
f 26//27 33//34 32//33 27//28
f 25//26 34//35 33//34 26//27
f 24//25 35//36 34//35 25//26
f 23//24 36//37 35//36 24//25
f 37//1 36//37 23//24
f 37//1 38//38 36//37
f 36//37 38//38 39//39 35//36
f 35//36 39//39 40//40 34//35
f 34//35 40//40 41//41 33//34
f 33//34 41//41 42//42 32//33
f 32//33 42//42 43//43 31//32
f 31//32 43//43 44//44 30//31
f 30//31 44//44 15//16
f 44//44 45//45 15//16
f 43//43 46//46 45//45 44//44
f 42//42 47//47 46//46 43//43
f 41//41 48//48 47//47 42//42
f 40//40 49//49 48//48 41//41
f 39//39 50//50 49//49 40//40
f 38//38 51//51 50//50 39//39
f 37//1 51//51 38//38
f 37//1 52//52 51//51
f 51//51 52//52 53//53 50//50
f 50//50 53//53 54//54 49//49
f 49//49 54//54 55//55 48//48
f 48//48 55//55 56//56 47//47
f 47//47 56//56 57//57 46//46
f 46//46 57//57 58//58 45//45
f 45//45 58//58 15//16
f 58//58 1//15 15//16
f 1//15 58//58 57//57 2//13
f 56//56 3//11 2//13 57//57
f 55//55 4//9 3//11 56//56
f 54//54 5//7 4//9 55//55
f 53//53 6//5 5//7 54//54
f 52//52 7//3 6//5 53//53
f 37//1 7//3 52//52
f 79//59 63//60 62//61
f 62//61 63//60 64//62 61//63
f 61//63 64//62 65//64 60//65
f 66//66 59//67 60//65 65//64
f 65//64 68//68 67//69 66//66
f 64//62 69//70 68//68 65//64
f 63//60 70//71 69//70 64//62
f 79//59 70//71 63//60
f 79//59 71//72 70//71
f 70//71 71//72 72//73 69//70
f 69//70 72//73 73//74 68//68
f 68//68 73//74 74//75 67//69
f 73//74 76//76 75//77 74//75
f 72//73 77//78 76//76 73//74
f 71//72 78//79 77//78 72//73
f 79//59 78//79 71//72
f 79//59 80//80 78//79
f 78//79 80//80 81//81 77//78
f 77//78 81//81 82//82 76//76
f 76//76 82//82 83//83 75//77
f 82//82 85//84 84//85 83//83
f 81//81 86//86 85//84 82//82
f 80//80 87//87 86//86 81//81
f 79//59 87//87 80//80
f 79//59 88//88 87//87
f 87//87 88//88 89//89 86//86
f 86//86 89//89 90//90 85//84
f 85//84 90//90 91//91 84//85
f 59//67 91//91 90//90 60//65
f 89//89 61//63 60//65 90//90
f 88//88 62//61 61//63 89//89
f 79//59 62//61 88//88
f 67//69 74//75 75//77 83//83
f 59//67 66//66 84//85 91//91
f 66//66 67//69 83//83 84//85
l 1 2
l 2 3
l 3 4
l 4 5
l 5 6
l 6 7
l 7 8
l 6 9
l 8 9
l 5 10
l 9 10
l 4 11
l 10 11
l 3 12
l 11 12
l 2 13
l 12 13
l 1 14
l 13 14
l 14 15
l 14 16
l 16 17
l 13 17
l 17 18
l 12 18
l 18 19
l 11 19
l 19 20
l 10 20
l 20 21
l 9 21
l 21 22
l 8 22
l 22 23
l 21 24
l 23 24
l 20 25
l 24 25
l 19 26
l 25 26
l 18 27
l 26 27
l 17 28
l 27 28
l 16 29
l 28 29
l 29 30
l 30 31
l 28 31
l 31 32
l 27 32
l 32 33
l 26 33
l 33 34
l 25 34
l 34 35
l 24 35
l 35 36
l 23 36
l 36 38
l 37 38
l 35 39
l 38 39
l 34 40
l 39 40
l 33 41
l 40 41
l 32 42
l 41 42
l 31 43
l 42 43
l 30 44
l 43 44
l 44 45
l 45 46
l 43 46
l 46 47
l 42 47
l 47 48
l 41 48
l 48 49
l 40 49
l 49 50
l 39 50
l 50 51
l 38 51
l 51 52
l 50 53
l 52 53
l 49 54
l 53 54
l 48 55
l 54 55
l 47 56
l 55 56
l 46 57
l 56 57
l 45 58
l 57 58
l 7 37
l 7 52
l 6 53
l 5 54
l 4 55
l 3 56
l 2 57
l 1 58
l 1 15
l 15 58
l 37 52
l 37 51
l 15 45
l 15 44
l 36 37
l 15 30
l 15 29
l 23 37
l 22 37
l 15 16
l 8 37
l 59 60
l 60 61
l 61 62
l 62 63
l 61 64
l 63 64
l 60 65
l 64 65
l 59 66
l 65 66
l 66 67
l 67 68
l 65 68
l 68 69
l 64 69
l 69 70
l 63 70
l 70 71
l 69 72
l 71 72
l 68 73
l 72 73
l 67 74
l 73 74
l 74 75
l 75 76
l 73 76
l 76 77
l 72 77
l 77 78
l 71 78
l 78 80
l 79 80
l 77 81
l 80 81
l 76 82
l 81 82
l 75 83
l 82 83
l 83 84
l 84 85
l 82 85
l 85 86
l 81 86
l 86 87
l 80 87
l 87 88
l 86 89
l 88 89
l 85 90
l 89 90
l 84 91
l 90 91
l 62 79
l 62 88
l 61 89
l 60 90
l 59 91
l 79 88
l 79 87
l 78 79
l 71 79
l 70 79
l 63 79
l 67 83
l 66 84
o Cylinder.007
v 0.192262 -3.658303 -0.179832
v 0.266750 -3.657870 0.000000
v 0.192262 -3.658303 0.179832
v 0.012433 -3.659347 0.254321
v -0.167395 -3.660392 0.179832
v -0.241883 -3.660824 0.000000
v -0.167395 -3.660392 -0.179832
v 0.012433 -3.659347 -0.254321
v 0.205178 -0.153172 -0.213104
v 0.293447 -0.152659 -0.000000
v 0.205178 -0.153172 0.213104
v -0.007922 -0.154410 0.301375
v -0.221022 -0.155647 0.213104
v -0.309291 -0.156160 -0.000000
v -0.221022 -0.155647 -0.213104
v -0.007922 -0.154410 -0.301374
v 0.010600 -3.343678 0.000000
v -0.005860 -0.509408 0.000000
v 0.394765 -1.134981 0.055056
v 0.278492 -1.135656 -0.225655
v 0.278492 -1.135656 0.335767
v -0.002214 -1.137286 0.452041
v -0.282920 -1.138916 0.335767
v -0.399192 -1.139592 0.055056
v -0.282920 -1.138916 -0.225655
v -0.002214 -1.137286 -0.341929
vn 0.0058 -1.0000 0.0000
vn 0.3478 -0.8694 -0.3508
vn 0.4892 -0.8722 -0.0080
vn -0.0058 1.0000 0.0000
vn 0.4715 0.8817 -0.0191
vn 0.3336 0.8719 -0.3584
vn 0.3468 -0.8765 0.3339
vn 0.3293 0.8898 0.3160
vn 0.0051 -0.8800 0.4750
vn -0.0052 0.8916 0.4529
vn -0.3366 -0.8805 0.3339
vn -0.3396 0.8859 0.3160
vn -0.4790 -0.8778 -0.0080
vn -0.4817 0.8761 -0.0191
vn -0.3377 -0.8734 -0.3508
vn -0.3437 0.8680 -0.3584
vn 0.0051 -0.8700 -0.4931
vn -0.0050 0.8663 -0.4995
vn 0.7116 0.0124 -0.7024
vn 0.9996 0.0260 0.0091
vn 0.7021 0.0355 0.7112
vn -0.0002 0.0359 0.9994
vn -0.7024 0.0274 0.7112
vn -0.9999 0.0144 0.0091
vn -0.7117 0.0042 -0.7024
vn -0.0000 0.0032 -1.0000
g Cylinder.007_Cylinder.007_Drevo
usemtl Drevo
s 1
f 108//92 92//93 93//94
f 109//95 101//96 100//97
f 108//92 93//94 94//98
f 109//95 102//99 101//96
f 108//92 94//98 95//100
f 109//95 103//101 102//99
f 108//92 95//100 96//102
f 109//95 104//103 103//101
f 108//92 96//102 97//104
f 109//95 105//105 104//103
f 108//92 97//104 98//106
f 109//95 106//107 105//105
f 108//92 98//106 99//108
f 109//95 107//109 106//107
f 99//108 92//93 108//92
f 109//95 100//97 107//109
f 92//93 111//110 110//111 93//94
f 111//110 100//97 101//96 110//111
f 93//94 110//111 112//112 94//98
f 110//111 101//96 102//99 112//112
f 94//98 112//112 113//113 95//100
f 112//112 102//99 103//101 113//113
f 95//100 113//113 114//114 96//102
f 113//113 103//101 104//103 114//114
f 96//102 114//114 115//115 97//104
f 114//114 104//103 105//105 115//115
f 97//104 115//115 116//116 98//106
f 115//115 105//105 106//107 116//116
f 98//106 116//116 117//117 99//108
f 116//116 106//107 107//109 117//117
f 100//97 111//110 117//117 107//109
f 111//110 92//93 99//108 117//117
l 92 108
l 92 93
l 93 108
l 100 109
l 100 101
l 101 109
l 93 94
l 94 108
l 101 102
l 102 109
l 94 95
l 95 108
l 102 103
l 103 109
l 95 96
l 96 108
l 103 104
l 104 109
l 96 97
l 97 108
l 104 105
l 105 109
l 97 98
l 98 108
l 105 106
l 106 109
l 98 99
l 99 108
l 106 107
l 107 109
l 92 99
l 100 107
l 93 110
l 101 110
l 92 111
l 100 111
l 94 112
l 102 112
l 95 113
l 103 113
l 96 114
l 104 114
l 97 115
l 105 115
l 98 116
l 106 116
l 99 117
l 107 117
l 110 111
l 110 112
l 112 113
l 113 114
l 114 115
l 115 116
l 116 117
l 111 117
