# Blender v3.1.2 OBJ File: 'head.blend'
# www.blender.org
mtllib head.mtl
o Sphere.008_Sphere.011
v 0.226337 1.962812 -0.031917
v 0.433687 1.804764 -0.031917
v 0.572234 1.568228 -0.031917
v 0.620885 1.289215 -0.031917
v 0.572234 0.795716 -0.031917
v 0.433687 0.409699 -0.031917
v 0.226337 0.151770 -0.031917
v 0.154700 0.151770 -0.204865
v 0.301318 0.409699 -0.282622
v 0.399286 0.795716 -0.380590
v 0.433687 1.289215 -0.483852
v 0.399286 1.568228 -0.449451
v 0.301318 1.804764 -0.351483
v 0.154700 1.962812 -0.204865
v -0.018248 2.018311 -0.031917
v -0.018248 1.962812 -0.276502
v -0.018248 1.804764 -0.483852
v -0.018248 1.568228 -0.622399
v -0.018248 1.289215 -0.671050
v -0.018248 0.795716 -0.553538
v -0.018248 0.409699 -0.414991
v -0.018248 0.151770 -0.276502
v -0.191197 0.151770 -0.204865
v -0.337815 0.409699 -0.282622
v -0.435783 0.795716 -0.380589
v -0.470184 1.289215 -0.483852
v -0.435783 1.568228 -0.449451
v -0.337815 1.804764 -0.351483
v -0.191197 1.962812 -0.204865
v -0.262834 1.962812 -0.031917
v -0.470184 1.804764 -0.031916
v -0.608731 1.568228 -0.031916
v -0.657382 1.289215 -0.031916
v -0.608731 0.795716 -0.031916
v -0.470184 0.409699 -0.031916
v -0.262834 0.151770 -0.031917
v -0.018248 0.061198 -0.031916
v -0.191197 0.151770 0.256560
v -0.337815 0.370422 0.317539
v -0.435782 0.848085 0.320097
v -0.470184 1.341584 0.345176
v -0.435782 1.568228 0.351187
v -0.337815 1.804764 0.287650
v -0.191197 1.962812 0.141032
v -0.018248 1.962812 0.212669
v -0.018248 1.804764 0.420019
v -0.018248 1.568228 0.524135
v -0.018248 1.341584 0.527552
v -0.018248 0.848085 0.492085
v -0.018248 0.370422 0.414037
v -0.018248 0.151770 0.308784
v 0.154700 0.151770 0.256560
v 0.301318 0.370422 0.317539
v 0.399286 0.848085 0.320097
v 0.433687 1.341584 0.345176
v 0.399286 1.568228 0.351187
v 0.301319 1.804764 0.287650
v 0.154700 1.962812 0.141032
vn -0.0000 -0.9988 -0.0499
vn 0.4501 -0.7355 -0.5064
vn 0.6250 -0.7783 -0.0604
vn 0.6242 -0.4293 -0.6528
vn 0.8958 -0.4425 -0.0426
vn 0.6760 -0.2514 -0.6927
vn 0.9779 -0.2089 0.0007
vn 0.6945 -0.0053 -0.7195
vn 0.9995 0.0202 0.0223
vn 0.6673 0.3308 -0.6673
vn 0.9465 0.3223 0.0153
vn 0.5432 0.6401 -0.5432
vn 0.7718 0.6358 0.0057
vn 0.3287 0.8854 -0.3287
vn 0.4648 0.8854 -0.0000
vn 0.0000 1.0000 -0.0000
vn 0.0000 0.8854 -0.4648
vn -0.0000 0.6401 -0.7683
vn -0.0000 0.3308 -0.9437
vn -0.0000 -0.0292 -0.9996
vn -0.0000 -0.2815 -0.9596
vn -0.0000 -0.4000 -0.9165
vn -0.0000 -0.7131 -0.7011
vn -0.4501 -0.7355 -0.5064
vn -0.6242 -0.4293 -0.6528
vn -0.6760 -0.2514 -0.6927
vn -0.6945 -0.0053 -0.7195
vn -0.6673 0.3308 -0.6673
vn -0.5432 0.6401 -0.5432
vn -0.3287 0.8854 -0.3287
vn -0.4648 0.8854 -0.0000
vn -0.7718 0.6358 0.0057
vn -0.9465 0.3223 0.0153
vn -0.9995 0.0202 0.0223
vn -0.9779 -0.2089 0.0007
vn -0.8958 -0.4425 -0.0426
vn -0.6250 -0.7783 -0.0604
vn -0.4281 -0.7576 0.4927
vn -0.6455 -0.3774 0.6640
vn -0.6831 -0.1364 0.7174
vn -0.6960 0.0101 0.7179
vn -0.6655 0.2593 0.6999
vn -0.5472 0.6087 0.5745
vn -0.3287 0.8854 0.3287
vn 0.0000 0.8854 0.4648
vn 0.0000 0.5905 0.8071
vn 0.0000 0.2088 0.9780
vn 0.0000 -0.0247 0.9997
vn 0.0000 -0.0976 0.9952
vn 0.0000 -0.2741 0.9617
vn 0.0000 -0.7340 0.6791
vn 0.4281 -0.7576 0.4927
vn 0.6455 -0.3774 0.6640
vn 0.6831 -0.1364 0.7174
vn 0.6960 0.0101 0.7179
vn 0.6655 0.2593 0.6999
vn 0.5472 0.6087 0.5745
vn 0.3287 0.8854 0.3287
g Sphere.008_Sphere.011_Drevo
usemtl Drevo
s 1
f 37//1 8//2 7//3
f 7//3 8//2 9//4 6//5
f 6//5 9//4 10//6 5//7
f 5//7 10//6 11//8 4//9
f 4//9 11//8 12//10 3//11
f 3//11 12//10 13//12 2//13
f 14//14 1//15 2//13 13//12
f 1//15 14//14 15//16
f 14//14 16//17 15//16
f 13//12 17//18 16//17 14//14
f 12//10 18//19 17//18 13//12
f 11//8 19//20 18//19 12//10
f 10//6 20//21 19//20 11//8
f 9//4 21//22 20//21 10//6
f 8//2 22//23 21//22 9//4
f 37//1 22//23 8//2
f 37//1 23//24 22//23
f 22//23 23//24 24//25 21//22
f 21//22 24//25 25//26 20//21
f 20//21 25//26 26//27 19//20
f 19//20 26//27 27//28 18//19
f 18//19 27//28 28//29 17//18
f 17//18 28//29 29//30 16//17
f 16//17 29//30 15//16
f 29//30 30//31 15//16
f 28//29 31//32 30//31 29//30
f 27//28 32//33 31//32 28//29
f 26//27 33//34 32//33 27//28
f 25//26 34//35 33//34 26//27
f 24//25 35//36 34//35 25//26
f 23//24 36//37 35//36 24//25
f 37//1 36//37 23//24
f 37//1 38//38 36//37
f 36//37 38//38 39//39 35//36
f 35//36 39//39 40//40 34//35
f 34//35 40//40 41//41 33//34
f 33//34 41//41 42//42 32//33
f 32//33 42//42 43//43 31//32
f 31//32 43//43 44//44 30//31
f 30//31 44//44 15//16
f 44//44 45//45 15//16
f 43//43 46//46 45//45 44//44
f 42//42 47//47 46//46 43//43
f 41//41 48//48 47//47 42//42
f 40//40 49//49 48//48 41//41
f 39//39 50//50 49//49 40//40
f 38//38 51//51 50//50 39//39
f 37//1 51//51 38//38
f 37//1 52//52 51//51
f 51//51 52//52 53//53 50//50
f 50//50 53//53 54//54 49//49
f 49//49 54//54 55//55 48//48
f 48//48 55//55 56//56 47//47
f 47//47 56//56 57//57 46//46
f 46//46 57//57 58//58 45//45
f 45//45 58//58 15//16
f 58//58 1//15 15//16
f 1//15 58//58 57//57 2//13
f 56//56 3//11 2//13 57//57
f 55//55 4//9 3//11 56//56
f 54//54 5//7 4//9 55//55
f 53//53 6//5 5//7 54//54
f 52//52 7//3 6//5 53//53
f 37//1 7//3 52//52
l 1 2
l 2 3
l 3 4
l 4 5
l 5 6
l 6 7
l 7 8
l 6 9
l 8 9
l 5 10
l 9 10
l 4 11
l 10 11
l 3 12
l 11 12
l 2 13
l 12 13
l 1 14
l 13 14
l 14 15
l 14 16
l 16 17
l 13 17
l 17 18
l 12 18
l 18 19
l 11 19
l 19 20
l 10 20
l 20 21
l 9 21
l 21 22
l 8 22
l 22 23
l 21 24
l 23 24
l 20 25
l 24 25
l 19 26
l 25 26
l 18 27
l 26 27
l 17 28
l 27 28
l 16 29
l 28 29
l 29 30
l 30 31
l 28 31
l 31 32
l 27 32
l 32 33
l 26 33
l 33 34
l 25 34
l 34 35
l 24 35
l 35 36
l 23 36
l 36 38
l 37 38
l 35 39
l 38 39
l 34 40
l 39 40
l 33 41
l 40 41
l 32 42
l 41 42
l 31 43
l 42 43
l 30 44
l 43 44
l 44 45
l 45 46
l 43 46
l 46 47
l 42 47
l 47 48
l 41 48
l 48 49
l 40 49
l 49 50
l 39 50
l 50 51
l 38 51
l 51 52
l 50 53
l 52 53
l 49 54
l 53 54
l 48 55
l 54 55
l 47 56
l 55 56
l 46 57
l 56 57
l 45 58
l 57 58
l 7 37
l 7 52
l 6 53
l 5 54
l 4 55
l 3 56
l 2 57
l 1 58
l 1 15
l 15 58
l 37 52
l 37 51
l 15 45
l 15 44
l 36 37
l 15 30
l 15 29
l 23 37
l 22 37
l 15 16
l 8 37
