# Blender v3.1.2 OBJ File: ''
# www.blender.org
mtllib leftLeg.mtl
o Cylinder.001
v -1.283896 -3.111797 -0.185493
v -1.214707 -3.145209 0.000000
v -1.283896 -3.111797 0.185493
v -1.450932 -3.031134 0.262327
v -1.617969 -2.950470 0.185493
v -1.687158 -2.917058 0.000000
v -1.617969 -2.950470 -0.185493
v -1.450932 -3.031134 -0.262327
v 0.182999 -0.306690 -0.286607
v 0.289903 -0.358315 -0.000000
v 0.182999 -0.306690 0.286607
v -0.075090 -0.182057 0.405323
v -0.333179 -0.057423 0.286607
v -0.440083 -0.005799 -0.000000
v -0.333178 -0.057423 -0.286607
v -0.075089 -0.182057 -0.405323
v -1.327018 -2.774534 0.000000
v -0.214442 -0.470626 0.000000
v -0.024581 -1.191721 0.067199
v -0.152379 -1.130006 -0.275425
v -0.152379 -1.130006 0.409824
v -0.460912 -0.981013 0.551743
v -0.769445 -0.832020 0.409824
v -0.897244 -0.770305 0.067199
v -0.769445 -0.832020 -0.275425
v -0.460912 -0.981013 -0.417345
v -1.313530 -3.005784 -0.000000
v -1.254115 -3.106757 -0.000000
v -1.237863 -3.222781 -0.000000
v -1.267249 -3.336192 -0.000000
v -1.337798 -3.429725 -0.000000
v -1.438771 -3.489140 -0.000000
v -1.554795 -3.505392 -0.000000
v -1.585101 -3.490757 -0.081250
v -1.494770 -3.462098 -0.150131
v -1.410964 -3.394392 -0.196156
v -1.346443 -3.297948 -0.212317
v -1.311029 -3.187448 -0.196156
v -1.310114 -3.079715 -0.150131
v -1.343836 -2.991149 -0.081250
v -1.407063 -2.935235 -0.000000
v -1.417002 -2.955817 -0.114905
v -1.445307 -3.014429 -0.212317
v -1.487667 -3.102148 -0.277406
v -1.537635 -3.205620 -0.300262
v -1.587602 -3.309093 -0.277406
v -1.629963 -3.396812 -0.212317
v -1.658267 -3.455424 -0.114905
v -1.731433 -3.420092 -0.081250
v -1.765155 -3.331526 -0.150131
v -1.764240 -3.223793 -0.196156
v -1.728826 -3.113292 -0.212317
v -1.664305 -3.016849 -0.196156
v -1.580500 -2.949143 -0.150131
v -1.490168 -2.920484 -0.081250
v -1.520474 -2.905849 -0.000000
v -1.636498 -2.922101 0.000000
v -1.737471 -2.981516 0.000000
v -1.808020 -3.075049 0.000000
v -1.837406 -3.188460 0.000000
v -1.821154 -3.304484 0.000000
v -1.761739 -3.405457 -0.000000
v -1.668206 -3.476006 0.000000
v -1.731433 -3.420092 0.081250
v -1.765155 -3.331526 0.150131
v -1.764240 -3.223793 0.196156
v -1.728826 -3.113292 0.212317
v -1.664305 -3.016849 0.196156
v -1.580500 -2.949143 0.150131
v -1.490168 -2.920484 0.081250
v -1.417002 -2.955817 0.114905
v -1.445307 -3.014429 0.212317
v -1.487667 -3.102149 0.277406
v -1.537634 -3.205621 0.300262
v -1.587602 -3.309093 0.277406
v -1.629962 -3.396812 0.212317
v -1.658267 -3.455424 0.114905
v -1.585101 -3.490757 0.081250
v -1.494770 -3.462098 0.150131
v -1.410964 -3.394392 0.196156
v -1.346443 -3.297948 0.212317
v -1.311029 -3.187448 0.196156
v -1.310114 -3.079715 0.150131
v -1.343836 -2.991149 0.081250
vn -0.4349 -0.9005 -0.0000
vn -0.0633 -0.9316 -0.3579
vn 0.0629 -0.9980 -0.0096
vn 0.4349 0.9005 -0.0000
vn 0.8576 0.5139 -0.0214
vn 0.7101 0.5696 -0.4139
vn -0.0699 -0.9392 0.3361
vn 0.7144 0.5986 0.3623
vn -0.3819 -0.7908 0.4783
vn 0.3720 0.7704 0.5178
vn -0.6922 -0.6387 0.3361
vn 0.0246 0.9317 0.3623
vn -0.8207 -0.5712 -0.0096
vn -0.1307 0.9912 -0.0214
vn -0.6902 -0.6289 -0.3579
vn 0.0045 0.9103 -0.4139
vn -0.3759 -0.7784 -0.5027
vn 0.3548 0.7347 -0.5781
vn 0.6336 -0.3281 -0.7006
vn 0.8989 -0.4380 0.0124
vn 0.6364 -0.2941 0.7131
vn 0.0078 0.0161 0.9998
vn -0.6261 0.3155 0.7131
vn -0.9019 0.4317 0.0124
vn -0.6509 0.2923 -0.7006
vn -0.0117 -0.0243 -0.9996
vn -0.1250 -0.9461 -0.2988
vn -0.0136 -0.9999 -0.0000
vn 0.1672 -0.8402 -0.5159
vn 0.3596 -0.9331 -0.0000
vn 0.4329 -0.6164 -0.6578
vn 0.6782 -0.7348 -0.0000
vn 0.6367 -0.3075 -0.7071
vn 0.9005 -0.4349 -0.0000
vn 0.7519 0.0442 -0.6578
vn 0.9972 -0.0743 -0.0000
vn 0.7620 0.3915 -0.5159
vn 0.9544 0.2985 -0.0000
vn 0.6632 0.6862 -0.2988
vn 0.7747 0.6324 -0.0000
vn 0.3941 0.8161 -0.4226
vn 0.2974 0.6158 -0.7296
vn 0.1595 0.3303 -0.9303
vn 0.0000 0.0000 -1.0000
vn -0.1595 -0.3303 -0.9303
vn -0.2974 -0.6158 -0.7296
vn -0.3941 -0.8161 -0.4226
vn -0.6632 -0.6862 -0.2988
vn -0.7620 -0.3915 -0.5159
vn -0.7519 -0.0442 -0.6578
vn -0.6367 0.3075 -0.7071
vn -0.4329 0.6164 -0.6578
vn -0.1672 0.8402 -0.5159
vn 0.1250 0.9461 -0.2988
vn 0.0136 0.9999 -0.0000
vn -0.3596 0.9331 -0.0000
vn -0.6782 0.7348 0.0000
vn -0.9005 0.4349 0.0000
vn -0.9972 0.0743 0.0000
vn -0.9544 -0.2985 0.0000
vn -0.7747 -0.6324 0.0000
vn -0.6632 -0.6862 0.2988
vn -0.7620 -0.3915 0.5159
vn -0.7519 -0.0442 0.6578
vn -0.6367 0.3075 0.7071
vn -0.4329 0.6164 0.6578
vn -0.1672 0.8402 0.5159
vn 0.1250 0.9461 0.2988
vn 0.3941 0.8161 0.4226
vn 0.2974 0.6158 0.7296
vn 0.1595 0.3303 0.9303
vn 0.0000 0.0000 1.0000
vn -0.1595 -0.3303 0.9303
vn -0.2974 -0.6158 0.7296
vn -0.3941 -0.8161 0.4226
vn -0.1250 -0.9461 0.2988
vn 0.1672 -0.8402 0.5159
vn 0.4329 -0.6164 0.6578
vn 0.6367 -0.3075 0.7071
vn 0.7519 0.0442 0.6578
vn 0.7620 0.3915 0.5159
vn 0.6632 0.6862 0.2988
g Cylinder.001_Cylinder.001_Drevo
usemtl Drevo
s 1
f 17//1 1//2 2//3
f 18//4 10//5 9//6
f 17//1 2//3 3//7
f 18//4 11//8 10//5
f 17//1 3//7 4//9
f 18//4 12//10 11//8
f 17//1 4//9 5//11
f 18//4 13//12 12//10
f 17//1 5//11 6//13
f 18//4 14//14 13//12
f 17//1 6//13 7//15
f 18//4 15//16 14//14
f 17//1 7//15 8//17
f 18//4 16//18 15//16
f 8//17 1//2 17//1
f 18//4 9//6 16//18
f 1//2 20//19 19//20 2//3
f 20//19 9//6 10//5 19//20
f 2//3 19//20 21//21 3//7
f 19//20 10//5 11//8 21//21
f 3//7 21//21 22//22 4//9
f 21//21 11//8 12//10 22//22
f 4//9 22//22 23//23 5//11
f 22//22 12//10 13//12 23//23
f 5//11 23//23 24//24 6//13
f 23//23 13//12 14//14 24//24
f 6//13 24//24 25//25 7//15
f 24//24 14//14 15//16 25//25
f 7//15 25//25 26//26 8//17
f 25//25 15//16 16//18 26//26
f 9//6 20//19 26//26 16//18
f 20//19 1//2 8//17 26//26
f 63//1 34//27 33//28
f 33//28 34//27 35//29 32//30
f 32//30 35//29 36//31 31//32
f 31//32 36//31 37//33 30//34
f 30//34 37//33 38//35 29//36
f 29//36 38//35 39//37 28//38
f 40//39 27//40 28//38 39//37
f 27//40 40//39 41//4
f 40//39 42//41 41//4
f 39//37 43//42 42//41 40//39
f 38//35 44//43 43//42 39//37
f 37//33 45//44 44//43 38//35
f 36//31 46//45 45//44 37//33
f 35//29 47//46 46//45 36//31
f 34//27 48//47 47//46 35//29
f 63//1 48//47 34//27
f 63//1 49//48 48//47
f 48//47 49//48 50//49 47//46
f 47//46 50//49 51//50 46//45
f 46//45 51//50 52//51 45//44
f 45//44 52//51 53//52 44//43
f 44//43 53//52 54//53 43//42
f 43//42 54//53 55//54 42//41
f 42//41 55//54 41//4
f 55//54 56//55 41//4
f 54//53 57//56 56//55 55//54
f 53//52 58//57 57//56 54//53
f 52//51 59//58 58//57 53//52
f 51//50 60//59 59//58 52//51
f 50//49 61//60 60//59 51//50
f 49//48 62//61 61//60 50//49
f 63//1 62//61 49//48
f 63//1 64//62 62//61
f 62//61 64//62 65//63 61//60
f 61//60 65//63 66//64 60//59
f 60//59 66//64 67//65 59//58
f 59//58 67//65 68//66 58//57
f 58//57 68//66 69//67 57//56
f 57//56 69//67 70//68 56//55
f 56//55 70//68 41//4
f 70//68 71//69 41//4
f 69//67 72//70 71//69 70//68
f 68//66 73//71 72//70 69//67
f 67//65 74//72 73//71 68//66
f 66//64 75//73 74//72 67//65
f 65//63 76//74 75//73 66//64
f 64//62 77//75 76//74 65//63
f 63//1 77//75 64//62
f 63//1 78//76 77//75
f 77//75 78//76 79//77 76//74
f 76//74 79//77 80//78 75//73
f 75//73 80//78 81//79 74//72
f 74//72 81//79 82//80 73//71
f 73//71 82//80 83//81 72//70
f 72//70 83//81 84//82 71//69
f 71//69 84//82 41//4
f 84//82 27//40 41//4
f 27//40 84//82 83//81 28//38
f 82//80 29//36 28//38 83//81
f 81//79 30//34 29//36 82//80
f 80//78 31//32 30//34 81//79
f 79//77 32//30 31//32 80//78
f 78//76 33//28 32//30 79//77
f 63//1 33//28 78//76
l 1 17
l 1 2
l 2 17
l 9 18
l 9 10
l 10 18
l 2 3
l 3 17
l 10 11
l 11 18
l 3 4
l 4 17
l 11 12
l 12 18
l 4 5
l 5 17
l 12 13
l 13 18
l 5 6
l 6 17
l 13 14
l 14 18
l 6 7
l 7 17
l 14 15
l 15 18
l 7 8
l 8 17
l 15 16
l 16 18
l 1 8
l 9 16
l 2 19
l 10 19
l 1 20
l 9 20
l 3 21
l 11 21
l 4 22
l 12 22
l 5 23
l 13 23
l 6 24
l 14 24
l 7 25
l 15 25
l 8 26
l 16 26
l 19 20
l 19 21
l 21 22
l 22 23
l 23 24
l 24 25
l 25 26
l 20 26
l 27 28
l 28 29
l 29 30
l 30 31
l 31 32
l 32 33
l 33 34
l 32 35
l 34 35
l 31 36
l 35 36
l 30 37
l 36 37
l 29 38
l 37 38
l 28 39
l 38 39
l 27 40
l 39 40
l 40 41
l 40 42
l 42 43
l 39 43
l 43 44
l 38 44
l 44 45
l 37 45
l 45 46
l 36 46
l 46 47
l 35 47
l 47 48
l 34 48
l 48 49
l 47 50
l 49 50
l 46 51
l 50 51
l 45 52
l 51 52
l 44 53
l 52 53
l 43 54
l 53 54
l 42 55
l 54 55
l 55 56
l 56 57
l 54 57
l 57 58
l 53 58
l 58 59
l 52 59
l 59 60
l 51 60
l 60 61
l 50 61
l 61 62
l 49 62
l 62 64
l 63 64
l 61 65
l 64 65
l 60 66
l 65 66
l 59 67
l 66 67
l 58 68
l 67 68
l 57 69
l 68 69
l 56 70
l 69 70
l 70 71
l 71 72
l 69 72
l 72 73
l 68 73
l 73 74
l 67 74
l 74 75
l 66 75
l 75 76
l 65 76
l 76 77
l 64 77
l 77 78
l 76 79
l 78 79
l 75 80
l 79 80
l 74 81
l 80 81
l 73 82
l 81 82
l 72 83
l 82 83
l 71 84
l 83 84
l 33 63
l 33 78
l 32 79
l 31 80
l 30 81
l 29 82
l 28 83
l 27 84
l 27 41
l 41 84
l 63 78
l 63 77
l 41 71
l 41 70
l 62 63
l 41 56
l 41 55
l 49 63
l 48 63
l 41 42
l 34 63
