# Blender v3.1.2 OBJ File: 'leg.blend'
# www.blender.org
mtllib leg.mtl
o Cylinder.001
v 0.220533 -3.365637 -0.185493
v 0.297367 -3.365404 0.000000
v 0.220533 -3.365637 0.185493
v 0.035040 -3.366199 0.262327
v -0.150452 -3.366760 0.185493
v -0.227286 -3.366993 0.000000
v -0.150452 -3.366760 -0.185493
v 0.035040 -3.366199 -0.262327
v 0.312059 -0.201457 -0.286607
v 0.430775 -0.201098 -0.000000
v 0.312059 -0.201457 0.286607
v 0.025454 -0.202326 0.405323
v -0.261151 -0.203194 0.286607
v -0.379867 -0.203554 -0.000000
v -0.261151 -0.203194 -0.286607
v 0.025455 -0.202326 -0.405323
v 0.034177 -3.081247 0.000000
v 0.026425 -0.522779 0.000000
v 0.512684 -1.088091 0.067199
v 0.370765 -1.088521 -0.275425
v 0.370765 -1.088521 0.409824
v 0.028142 -1.089559 0.551743
v -0.314481 -1.090597 0.409824
v -0.456400 -1.091027 0.067199
v -0.314480 -1.090597 -0.275425
v 0.028143 -1.089559 -0.417345
v 0.147497 -3.283280 -0.000000
v 0.245106 -3.348073 -0.000000
v 0.310489 -3.445287 -0.000000
v 0.333693 -3.560123 -0.000000
v 0.311185 -3.675097 -0.000000
v 0.246392 -3.772706 -0.000000
v 0.149178 -3.838089 -0.000000
v 0.115523 -3.838191 -0.081250
v 0.184206 -3.772894 -0.150131
v 0.229935 -3.675343 -0.196156
v 0.245749 -3.560389 -0.212317
v 0.229239 -3.445534 -0.196156
v 0.182920 -3.348262 -0.150131
v 0.113842 -3.283381 -0.081250
v 0.032523 -3.260772 -0.000000
v 0.032592 -3.283628 -0.114905
v 0.032789 -3.348716 -0.212317
v 0.033084 -3.446128 -0.277406
v 0.033433 -3.561033 -0.300262
v 0.033781 -3.675937 -0.277406
v 0.034076 -3.773349 -0.212317
v 0.034273 -3.838437 -0.114905
v -0.046977 -3.838683 -0.081250
v -0.116055 -3.773804 -0.150131
v -0.162374 -3.676532 -0.196156
v -0.178884 -3.561676 -0.212317
v -0.163070 -3.446722 -0.196156
v -0.117341 -3.349171 -0.150131
v -0.048658 -3.283874 -0.081250
v -0.082313 -3.283976 -0.000000
v -0.179527 -3.349360 0.000000
v -0.244320 -3.446968 0.000000
v -0.266828 -3.561942 0.000000
v -0.243624 -3.676778 0.000000
v -0.178241 -3.773992 0.000000
v -0.080632 -3.838785 -0.000000
v 0.034342 -3.861293 0.000000
v -0.046977 -3.838683 0.081250
v -0.116054 -3.773804 0.150131
v -0.162374 -3.676532 0.196156
v -0.178884 -3.561676 0.212317
v -0.163070 -3.446722 0.196156
v -0.117341 -3.349171 0.150131
v -0.048658 -3.283874 0.081250
v 0.032592 -3.283628 0.114905
v 0.032789 -3.348716 0.212317
v 0.033084 -3.446128 0.277406
v 0.033433 -3.561033 0.300262
v 0.033781 -3.675937 0.277406
v 0.034076 -3.773349 0.212317
v 0.034273 -3.838437 0.114905
v 0.115523 -3.838191 0.081250
v 0.184206 -3.772894 0.150131
v 0.229936 -3.675343 0.196156
v 0.245749 -3.560389 0.212317
v 0.229239 -3.445534 0.196156
v 0.182920 -3.348262 0.150131
v 0.113842 -3.283381 0.081250
vn 0.0030 -1.0000 -0.0000
vn 0.3507 -0.8654 -0.3579
vn 0.4933 -0.8698 -0.0096
vn -0.0030 1.0000 0.0000
vn 0.5462 0.8374 -0.0214
vn 0.3893 0.8229 -0.4139
vn 0.3482 -0.8751 0.3361
vn 0.3805 0.8509 0.3623
vn 0.0027 -0.8782 0.4783
vn -0.0026 0.8555 0.5178
vn -0.3429 -0.8772 0.3361
vn -0.3856 0.8485 0.3623
vn -0.4880 -0.8728 -0.0096
vn -0.5513 0.8340 -0.0214
vn -0.3455 -0.8675 -0.3579
vn -0.3943 0.8205 -0.4139
vn 0.0026 -0.8644 -0.5027
vn -0.0025 0.8159 -0.5781
vn 0.7133 -0.0177 -0.7006
vn 0.9999 -0.0005 0.0124
vn 0.7009 0.0140 0.7131
vn -0.0001 0.0179 0.9998
vn -0.7010 0.0098 0.7131
vn -0.9999 -0.0065 0.0124
vn -0.7132 -0.0220 -0.7006
vn 0.0001 -0.0269 -0.9996
vn 0.3016 -0.9054 -0.2988
vn 0.4253 -0.9050 -0.0000
vn 0.5180 -0.6823 -0.5159
vn 0.7317 -0.6816 0.0000
vn 0.6589 -0.3648 -0.6578
vn 0.9314 -0.3640 0.0000
vn 0.7071 0.0021 -0.7071
vn 1.0000 0.0030 -0.0000
vn 0.6567 0.3688 -0.6578
vn 0.9292 0.3696 -0.0000
vn 0.5138 0.6854 -0.5159
vn 0.7275 0.6861 0.0000
vn 0.2961 0.9072 -0.2988
vn 0.4198 0.9076 0.0000
vn -0.0027 0.9063 -0.4226
vn -0.0021 0.6838 -0.7296
vn -0.0011 0.3668 -0.9303
vn 0.0000 0.0000 -1.0000
vn 0.0011 -0.3668 -0.9303
vn 0.0021 -0.6839 -0.7296
vn 0.0027 -0.9063 -0.4226
vn -0.2961 -0.9072 -0.2988
vn -0.5138 -0.6854 -0.5159
vn -0.6567 -0.3688 -0.6578
vn -0.7071 -0.0021 -0.7071
vn -0.6589 0.3648 -0.6578
vn -0.5180 0.6823 -0.5159
vn -0.3016 0.9054 -0.2988
vn -0.4253 0.9050 0.0000
vn -0.7317 0.6816 -0.0000
vn -0.9314 0.3640 -0.0000
vn -1.0000 -0.0030 0.0000
vn -0.9292 -0.3696 0.0000
vn -0.7275 -0.6861 0.0000
vn -0.4198 -0.9076 0.0000
vn -0.2961 -0.9072 0.2988
vn -0.5138 -0.6854 0.5159
vn -0.6567 -0.3688 0.6578
vn -0.7071 -0.0021 0.7071
vn -0.6589 0.3648 0.6578
vn -0.5180 0.6823 0.5159
vn -0.3016 0.9054 0.2988
vn -0.0027 0.9063 0.4226
vn -0.0021 0.6839 0.7296
vn -0.0011 0.3668 0.9303
vn 0.0000 0.0000 1.0000
vn 0.0011 -0.3668 0.9303
vn 0.0021 -0.6839 0.7296
vn 0.0027 -0.9063 0.4226
vn 0.3016 -0.9054 0.2988
vn 0.5180 -0.6823 0.5159
vn 0.6589 -0.3648 0.6578
vn 0.7071 0.0021 0.7071
vn 0.6567 0.3688 0.6578
vn 0.5138 0.6854 0.5159
vn 0.2961 0.9072 0.2988
g Cylinder.001_Cylinder.001_Drevo
usemtl Drevo
s 1
f 17//1 1//2 2//3
f 18//4 10//5 9//6
f 17//1 2//3 3//7
f 18//4 11//8 10//5
f 17//1 3//7 4//9
f 18//4 12//10 11//8
f 17//1 4//9 5//11
f 18//4 13//12 12//10
f 17//1 5//11 6//13
f 18//4 14//14 13//12
f 17//1 6//13 7//15
f 18//4 15//16 14//14
f 17//1 7//15 8//17
f 18//4 16//18 15//16
f 8//17 1//2 17//1
f 18//4 9//6 16//18
f 1//2 20//19 19//20 2//3
f 20//19 9//6 10//5 19//20
f 2//3 19//20 21//21 3//7
f 19//20 10//5 11//8 21//21
f 3//7 21//21 22//22 4//9
f 21//21 11//8 12//10 22//22
f 4//9 22//22 23//23 5//11
f 22//22 12//10 13//12 23//23
f 5//11 23//23 24//24 6//13
f 23//23 13//12 14//14 24//24
f 6//13 24//24 25//25 7//15
f 24//24 14//14 15//16 25//25
f 7//15 25//25 26//26 8//17
f 25//25 15//16 16//18 26//26
f 9//6 20//19 26//26 16//18
f 20//19 1//2 8//17 26//26
f 63//1 34//27 33//28
f 33//28 34//27 35//29 32//30
f 32//30 35//29 36//31 31//32
f 31//32 36//31 37//33 30//34
f 30//34 37//33 38//35 29//36
f 29//36 38//35 39//37 28//38
f 40//39 27//40 28//38 39//37
f 27//40 40//39 41//4
f 40//39 42//41 41//4
f 39//37 43//42 42//41 40//39
f 38//35 44//43 43//42 39//37
f 37//33 45//44 44//43 38//35
f 36//31 46//45 45//44 37//33
f 35//29 47//46 46//45 36//31
f 34//27 48//47 47//46 35//29
f 63//1 48//47 34//27
f 63//1 49//48 48//47
f 48//47 49//48 50//49 47//46
f 47//46 50//49 51//50 46//45
f 46//45 51//50 52//51 45//44
f 45//44 52//51 53//52 44//43
f 44//43 53//52 54//53 43//42
f 43//42 54//53 55//54 42//41
f 42//41 55//54 41//4
f 55//54 56//55 41//4
f 54//53 57//56 56//55 55//54
f 53//52 58//57 57//56 54//53
f 52//51 59//58 58//57 53//52
f 51//50 60//59 59//58 52//51
f 50//49 61//60 60//59 51//50
f 49//48 62//61 61//60 50//49
f 63//1 62//61 49//48
f 63//1 64//62 62//61
f 62//61 64//62 65//63 61//60
f 61//60 65//63 66//64 60//59
f 60//59 66//64 67//65 59//58
f 59//58 67//65 68//66 58//57
f 58//57 68//66 69//67 57//56
f 57//56 69//67 70//68 56//55
f 56//55 70//68 41//4
f 70//68 71//69 41//4
f 69//67 72//70 71//69 70//68
f 68//66 73//71 72//70 69//67
f 67//65 74//72 73//71 68//66
f 66//64 75//73 74//72 67//65
f 65//63 76//74 75//73 66//64
f 64//62 77//75 76//74 65//63
f 63//1 77//75 64//62
f 63//1 78//76 77//75
f 77//75 78//76 79//77 76//74
f 76//74 79//77 80//78 75//73
f 75//73 80//78 81//79 74//72
f 74//72 81//79 82//80 73//71
f 73//71 82//80 83//81 72//70
f 72//70 83//81 84//82 71//69
f 71//69 84//82 41//4
f 84//82 27//40 41//4
f 27//40 84//82 83//81 28//38
f 82//80 29//36 28//38 83//81
f 81//79 30//34 29//36 82//80
f 80//78 31//32 30//34 81//79
f 79//77 32//30 31//32 80//78
f 78//76 33//28 32//30 79//77
f 63//1 33//28 78//76
l 1 17
l 1 2
l 2 17
l 9 18
l 9 10
l 10 18
l 2 3
l 3 17
l 10 11
l 11 18
l 3 4
l 4 17
l 11 12
l 12 18
l 4 5
l 5 17
l 12 13
l 13 18
l 5 6
l 6 17
l 13 14
l 14 18
l 6 7
l 7 17
l 14 15
l 15 18
l 7 8
l 8 17
l 15 16
l 16 18
l 1 8
l 9 16
l 2 19
l 10 19
l 1 20
l 9 20
l 3 21
l 11 21
l 4 22
l 12 22
l 5 23
l 13 23
l 6 24
l 14 24
l 7 25
l 15 25
l 8 26
l 16 26
l 19 20
l 19 21
l 21 22
l 22 23
l 23 24
l 24 25
l 25 26
l 20 26
l 27 28
l 28 29
l 29 30
l 30 31
l 31 32
l 32 33
l 33 34
l 32 35
l 34 35
l 31 36
l 35 36
l 30 37
l 36 37
l 29 38
l 37 38
l 28 39
l 38 39
l 27 40
l 39 40
l 40 41
l 40 42
l 42 43
l 39 43
l 43 44
l 38 44
l 44 45
l 37 45
l 45 46
l 36 46
l 46 47
l 35 47
l 47 48
l 34 48
l 48 49
l 47 50
l 49 50
l 46 51
l 50 51
l 45 52
l 51 52
l 44 53
l 52 53
l 43 54
l 53 54
l 42 55
l 54 55
l 55 56
l 56 57
l 54 57
l 57 58
l 53 58
l 58 59
l 52 59
l 59 60
l 51 60
l 60 61
l 50 61
l 61 62
l 49 62
l 62 64
l 63 64
l 61 65
l 64 65
l 60 66
l 65 66
l 59 67
l 66 67
l 58 68
l 67 68
l 57 69
l 68 69
l 56 70
l 69 70
l 70 71
l 71 72
l 69 72
l 72 73
l 68 73
l 73 74
l 67 74
l 74 75
l 66 75
l 75 76
l 65 76
l 76 77
l 64 77
l 77 78
l 76 79
l 78 79
l 75 80
l 79 80
l 74 81
l 80 81
l 73 82
l 81 82
l 72 83
l 82 83
l 71 84
l 83 84
l 33 63
l 33 78
l 32 79
l 31 80
l 30 81
l 29 82
l 28 83
l 27 84
l 27 41
l 41 84
l 63 78
l 63 77
l 41 71
l 41 70
l 62 63
l 41 56
l 41 55
l 49 63
l 48 63
l 41 42
l 34 63
