<?xml version="1.0" encoding="utf-8"?>
<!-- Generator: Adobe Illustrator 22.1.0, SVG Export Plug-In . SVG Version: 6.00 Build 0)  -->
<svg version="1.1" id="Layer_1" xmlns="http://www.w3.org/2000/svg" xmlns:xlink="http://www.w3.org/1999/xlink" x="0px" y="0px"
	 width="448.9px" height="458.8px" viewBox="0 0 448.9 458.8" style="enable-background:new 0 0 448.9 458.8;" xml:space="preserve"
	>
<g>
	<g>
		
			<circle style="fill:#F7BB34;stroke:#000000;stroke-width:14;stroke-linecap:round;stroke-miterlimit:10;" cx="224.5" cy="229.4" r="213.4"/>
	</g>
</g>
<g>
	<g>
		<g>
			<line style="fill:#FFFFFF;" x1="134.9" y1="140.2" x2="168.2" y2="140.2"/>
			<path d="M168.2,149.2h-33.4c-5,0-9-4-9-9s4-9,9-9h33.4c5,0,9,4,9,9S173.2,149.2,168.2,149.2z"/>
		</g>
		<g>
			<line style="fill:#FFFFFF;" x1="191.8" y1="140.2" x2="314" y2="140.2"/>
			<path d="M314,149.2H191.8c-5,0-9-4-9-9s4-9,9-9H314c5,0,9,4,9,9S319,149.2,314,149.2z"/>
		</g>
	</g>
	<g>
		<g>
			<line style="fill:#FFFFFF;" x1="134.9" y1="184.8" x2="168.2" y2="184.8"/>
			<path d="M168.2,193.8h-33.4c-5,0-9-4-9-9s4-9,9-9h33.4c5,0,9,4,9,9S173.2,193.8,168.2,193.8z"/>
		</g>
		<g>
			<line style="fill:#FFFFFF;" x1="191.8" y1="184.8" x2="314" y2="184.8"/>
			<path d="M314,193.8H191.8c-5,0-9-4-9-9s4-9,9-9H314c5,0,9,4,9,9S319,193.8,314,193.8z"/>
		</g>
	</g>
	<g>
		<g>
			<line style="fill:#FFFFFF;" x1="134.9" y1="229.4" x2="168.2" y2="229.4"/>
			<path d="M168.2,238.4h-33.4c-5,0-9-4-9-9s4-9,9-9h33.4c5,0,9,4,9,9S173.2,238.4,168.2,238.4z"/>
		</g>
		<g>
			<line style="fill:#FFFFFF;" x1="191.8" y1="229.4" x2="314" y2="229.4"/>
			<path d="M314,238.4H191.8c-5,0-9-4-9-9s4-9,9-9H314c5,0,9,4,9,9S319,238.4,314,238.4z"/>
		</g>
	</g>
	<g>
		<g>
			<line style="fill:#FFFFFF;" x1="134.9" y1="274" x2="168.2" y2="274"/>
			<path d="M168.2,283h-33.4c-5,0-9-4-9-9s4-9,9-9h33.4c5,0,9,4,9,9S173.2,283,168.2,283z"/>
		</g>
		<g>
			<line style="fill:#FFFFFF;" x1="191.8" y1="274" x2="314" y2="274"/>
			<path d="M314,283H191.8c-5,0-9-4-9-9s4-9,9-9H314c5,0,9,4,9,9S319,283,314,283z"/>
		</g>
	</g>
	<g>
		<g>
			<line style="fill:#FFFFFF;" x1="134.9" y1="318.6" x2="168.2" y2="318.6"/>
			<path d="M168.2,327.6h-33.4c-5,0-9-4-9-9s4-9,9-9h33.4c5,0,9,4,9,9S173.2,327.6,168.2,327.6z"/>
		</g>
		<g>
			<line style="fill:#FFFFFF;" x1="191.8" y1="318.6" x2="314" y2="318.6"/>
			<path d="M314,327.6H191.8c-5,0-9-4-9-9s4-9,9-9H314c5,0,9,4,9,9S319,327.6,314,327.6z"/>
		</g>
	</g>
</g>
</svg>
