<?xml version="1.0" encoding="utf-8"?>
<!-- Generator: Adobe Illustrator 22.1.0, SVG Export Plug-In . SVG Version: 6.00 Build 0)  -->
<svg version="1.1" id="Layer_1" xmlns="http://www.w3.org/2000/svg" xmlns:xlink="http://www.w3.org/1999/xlink" x="0px" y="0px"
	 width="6000px" height="6000px" viewBox="0 0 6000 6000" style="enable-background:new 0 0 6000 6000;" xml:space="preserve">
<g>
	<ellipse style="fill:#C8A06E;" cx="3000" cy="3000" rx="2184.6" ry="2153.7"/>
	<path style="fill:#A56941;" d="M3000,846.3c-79.5,0-158,4.4-235.3,12.6c863.6,101.4,1533.4,825.4,1533.4,1704.1
		c0,948.1-779.6,1716.7-1741.3,1716.7c-891.3,0-1625.7-660.3-1728.6-1511.7c-8.3,76.2-12.8,153.6-12.8,232
		c0,1189.4,978.1,2153.7,2184.6,2153.7S5184.6,4189.5,5184.6,3000S4206.5,846.3,3000,846.3z"/>
	<path style="fill:#823214;" d="M2051.1,4940.4c513.7-92.3,1129.4-350.7,1738.5-757.8c631.4-422.1,1114.7-909.8,1387-1359.6
		c-9.7-117.8-28.8-233.1-57-344.8c-193.2,450.9-684.5,1021.5-1448.5,1532.2c-732.8,489.8-1424.9,729.7-1918.2,757.5
		C1847.3,4832.7,1946.7,4890.7,2051.1,4940.4z"/>
	<path style="fill:#A56941;" d="M4731.3,1687.2c-147.5,467.3-657.6,1100.2-1496.5,1660.9c-833.4,557.1-1614.4,791.1-2109.8,757.1
		c44.4,73.1,93.3,143.2,146,210.3c28.3-0.8,56.9-1.8,86.1-3.9c557.3-39.8,1281.6-313.6,1996.2-791.3
		C4110.1,3014.4,4654.5,2414.1,4877,1898C4832.6,1824.8,4783.9,1754.5,4731.3,1687.2z"/>
	<path style="fill:#823214;" d="M4877,1898.1L4877,1898.1c-44.3-73.3-93.1-143.6-145.7-210.8c-68.7,217.5-216.9,471.1-439.3,736.4
		c3.8,46,6.1,92.5,6.1,139.4c0,60.1-3.2,119.4-9.3,177.9C4560.5,2453.9,4762,2164.8,4877,1898.1z"/>
	<path style="fill:#823214;" d="M1689.5,4051.4c-212.8,47.2-403.8,64.9-564.5,53.9c44.4,73.1,93.3,143.2,146,210.3
		c28.3-0.8,56.9-1.8,86.1-3.9c193.2-13.8,406.9-56.4,632.9-125.2C1884.9,4150.8,1784.4,4105.3,1689.5,4051.4z"/>
	<path style="fill:#A56941;" d="M4391.8,1340c-55.1-44.9-112.4-87.2-171.8-126.7c-209.7,440.9-690.8,984.2-1421.6,1472.7
		c-741.9,495.9-1441.9,735.5-1936.3,758.3c14.8,69.8,33.1,138.3,54.6,205.4c1.3-0.1,2.6-0.1,3.9-0.2
		c557.3-39.8,1281.6-313.6,1996.2-791.2C3623.4,2385.9,4144.5,1831.6,4391.8,1340z"/>
	<path style="fill:#823214;" d="M4220.1,1213.3c-56.6,119.1-133.3,245.6-229.1,376.5c43,61.5,82,125.8,116.7,192.7
		c116.6-150.5,212-299.1,284.2-442.5C4336.8,1295.1,4279.5,1252.8,4220.1,1213.3z"/>
	<path style="fill:#823214;" d="M1051.8,3426.3c-66.1,9.3-129.4,15.2-189.7,18c14.8,69.8,33.1,138.3,54.6,205.4
		c1.3-0.1,2.6-0.1,3.9-0.2c83.3-5.9,170.6-17.7,260.7-34C1134.2,3555.4,1090.8,3492.2,1051.8,3426.3z"/>
</g>
</svg>
