<?xml version="1.0" encoding="UTF-8" standalone="no"?>
<!-- Generator: Adobe Illustrator 22.1.0, SVG Export Plug-In . SVG Version: 6.00 Build 0)  -->

<svg
   xmlns:dc="http://purl.org/dc/elements/1.1/"
   xmlns:cc="http://creativecommons.org/ns#"
   xmlns:rdf="http://www.w3.org/1999/02/22-rdf-syntax-ns#"
   xmlns:svg="http://www.w3.org/2000/svg"
   xmlns="http://www.w3.org/2000/svg"
   xmlns:xlink="http://www.w3.org/1999/xlink"
   xmlns:sodipodi="http://sodipodi.sourceforge.net/DTD/sodipodi-0.dtd"
   xmlns:inkscape="http://www.inkscape.org/namespaces/inkscape"
   version="1.1"
   id="Layer_1"
   x="0px"
   y="0px"
   width="140.8px"
   height="125.7px"
   viewBox="0 0 140.8 125.7"
   enable-background="new 0 0 140.8 125.7"
   xml:space="preserve"
   sodipodi:docname="barca0.svg"
   inkscape:version="0.92.4 (5da689c313, 2019-01-14)"><metadata
   id="metadata151"><rdf:RDF><cc:Work
       rdf:about=""><dc:format>image/svg+xml</dc:format><dc:type
         rdf:resource="http://purl.org/dc/dcmitype/StillImage" /></cc:Work></rdf:RDF></metadata><defs
   id="defs149" /><sodipodi:namedview
   pagecolor="#ffffff"
   bordercolor="#666666"
   borderopacity="1"
   objecttolerance="10"
   gridtolerance="10"
   guidetolerance="10"
   inkscape:pageopacity="0"
   inkscape:pageshadow="2"
   inkscape:window-width="1920"
   inkscape:window-height="1017"
   id="namedview147"
   showgrid="false"
   inkscape:zoom="10.620665"
   inkscape:cx="70.400002"
   inkscape:cy="62.849998"
   inkscape:window-x="-8"
   inkscape:window-y="-8"
   inkscape:window-maximized="1"
   inkscape:current-layer="g104" />
<g
   id="g144">
	<path
   opacity="0.6"
   fill="#4D87A7"
   d="M53.1,88.2c12.4,2.6,35,1,55.8-5.2l1.6,0.2l0,0c0.1,0,0.3,0,0.5-0.1c0.4-0.1,0.7-0.4,0.8-0.5   c0-0.1-0.1-0.1-0.2-0.2c0,0,0,0,0,0l-1.3-0.2l-14-8.1l0.1-0.3l-0.7-0.1L95.1,74l0.5-3.7l-8-0.4l-16,3c-0.8,0.2-1.7,0.5-2.6,0.9   c-0.2,0.1-0.3,0.1-0.5,0.2c-0.2,0.1-0.5,0.2-0.7,0.3c-0.2,0.1-0.3,0.1-0.5,0.2c-0.2,0.1-0.3,0.1-0.5,0.2c-0.2,0.1-0.3,0.1-0.5,0.2   c-0.1,0-0.2,0.1-0.3,0.1c-0.2,0.1-0.3,0.1-0.5,0.2c-0.3,0.1-0.5,0.2-0.8,0.3c-0.2,0.1-0.4,0.1-0.5,0.2c-0.1,0-0.2,0.1-0.3,0.1   c-1.6,0.7-3.2,1.4-4.8,2.1c-0.1,0-0.2,0.1-0.3,0.1c-0.3,0.1-0.5,0.2-0.8,0.4c-0.2,0.1-0.4,0.2-0.5,0.2c-0.9,0.4-1.7,0.8-2.6,1.2   c-0.2,0.1-0.3,0.2-0.5,0.2C54.3,80,54.2,80,54,80.1c-0.4,0.2-0.8,0.4-1.2,0.6c-0.2,0.1-0.3,0.1-0.5,0.2c-0.4,0.2-0.7,0.4-1.1,0.5   c-0.3,0.1-0.6,0.3-0.8,0.4c-0.9,0.4-1.8,0.8-2.4,1.2c-0.1,0-0.2,0.1-0.3,0.1c-1.2,0.6-3.3,1.5-3.3,1.5l2.4,4.8   C46.8,89.5,50.7,88.5,53.1,88.2z M79.5,79.8l2.4-0.7l26.8,3.9C96.4,83.2,85.3,81.9,79.5,79.8z M110.4,83.3   C110.4,83.3,110.4,83.3,110.4,83.3C110.4,83.3,110.4,83.3,110.4,83.3z M110.3,83.2C110.3,83.2,110.3,83.2,110.3,83.2   C110.3,83.2,110.3,83.2,110.3,83.2z M110.3,83.2C110.3,83.2,110.3,83.2,110.3,83.2C110.3,83.2,110.3,83.2,110.3,83.2z M110.3,83.2   C110.3,83.2,110.4,83.2,110.3,83.2C110.4,83.2,110.3,83.2,110.3,83.2z M110.3,83.2C110.3,83.2,110.3,83.2,110.3,83.2   C110.3,83.2,110.3,83.2,110.3,83.2z M110.3,83.2C110.3,83.2,110.3,83.2,110.3,83.2C110.3,83.2,110.3,83.2,110.3,83.2z M110.3,83.1   C110.3,83.1,110.3,83.1,110.3,83.1C110.3,83.1,110.3,83.1,110.3,83.1z M111.2,82.5C111.2,82.5,111.2,82.5,111.2,82.5   C111.2,82.5,111.2,82.5,111.2,82.5z M111,82.6C111.1,82.6,111.1,82.6,111,82.6C111.1,82.6,111.1,82.6,111,82.6z M111.1,82.6   C111.2,82.5,111.2,82.5,111.1,82.6C111.2,82.5,111.2,82.5,111.1,82.6z M111.5,82.5C111.5,82.5,111.5,82.5,111.5,82.5   C111.5,82.5,111.5,82.5,111.5,82.5z M111.3,82.5C111.3,82.5,111.3,82.5,111.3,82.5C111.3,82.5,111.3,82.5,111.3,82.5z M111.3,82.5   C111.4,82.5,111.4,82.5,111.3,82.5C111.4,82.5,111.4,82.5,111.3,82.5z M111.4,82.5C111.4,82.5,111.4,82.5,111.4,82.5   C111.4,82.5,111.4,82.5,111.4,82.5z"
   id="path2" />
	<g
   id="g142">
		<path
   fill="#C8C7C6"
   d="M93.1,62.1L39.9,83.8l6,3.9c0,0,22.6-4,30.5-8.5l15.3-8.8L93.1,62.1z"
   id="path4" />
		<g
   id="g8"
   style="fill:#333333">
			<path
   fill="#E31E26"
   d="M77.6,76.9c-7.9,4.6-29.1,8.7-33.7,9.5l1.9,1.2c0,0,22.6-4,30.5-8.5l15.3-8.8l0.3-1.6L77.6,76.9z"
   id="path6"
   style="fill:#333333" />
		</g>
		<path
   fill="#F3F3F3"
   d="M78.6,53.8L55.7,66.8c-7.9,4.5-15.8,17-15.8,17s22.6-4,30.5-8.5l22.7-13.1L78.6,53.8z"
   id="path10" />
		<g
   id="g60">
			<g
   enable-background="new    "
   id="g58">
				<g
   enable-background="new    "
   id="g22">
					<defs
   id="defs13">
						<path
   id="SVGID_1_"
   enable-background="new    "
   d="M58,71.1l0-3.2c0,0.6,0.4,1.1,1.1,1.6l0,3.2C58.4,72.3,58,71.7,58,71.1z" />
					</defs>
					<clipPath
   id="SVGID_2_">
						<use
   xlink:href="#SVGID_1_"
   overflow="visible"
   id="use15" />
					</clipPath>
					<g
   clip-path="url(#SVGID_2_)"
   id="g20">
						<path
   fill="#E0E1E0"
   d="M59.2,69.5l0,3.2c-0.7-0.4-1.1-1-1.1-1.6l0-3.2C58,68.5,58.4,69.1,59.2,69.5L59.2,69.5z"
   id="path18" />
					</g>
				</g>
				<g
   id="g26">
					<polygon
   fill="#C8C7C6"
   points="80.9,64 80.9,67.2 68,74.7 68,71.5      "
   id="polygon24" />
				</g>
				<g
   id="g30">
					<polygon
   fill="#E0E1E0"
   points="62.6,71.5 62.6,74.7 59.1,72.7 59.2,69.5      "
   id="polygon28" />
				</g>
				<g
   enable-background="new    "
   id="g44">
					<defs
   id="defs33">
						<path
   id="SVGID_3_"
   enable-background="new    "
   d="M68,71.5l0,3.2c-1.5,0.9-3.9,0.9-5.4,0l0-3.2C64.1,72.4,66.5,72.4,68,71.5        z" />
					</defs>
					<clipPath
   id="SVGID_4_">
						<use
   xlink:href="#SVGID_3_"
   overflow="visible"
   id="use35" />
					</clipPath>
					<g
   clip-path="url(#SVGID_4_)"
   enable-background="new    "
   id="g42">
						<path
   fill="#C8C7C6"
   d="M68,71.5l0,3.2c-0.8,0.4-1.8,0.7-2.7,0.6l0-3.2C66.3,72.2,67.3,72,68,71.5L68,71.5z"
   id="path38" />
						<path
   fill="#E0E1E0"
   d="M65.3,72.2l0,3.2c-0.9,0-1.9-0.2-2.6-0.6l0-3.2C63.4,72,64.3,72.2,65.3,72.2L65.3,72.2z"
   id="path40" />
					</g>
				</g>
				<g
   id="g48">
					<path
   fill="#FFFFFF"
   d="M80.9,64L68,71.5c-1.5,0.9-3.9,0.9-5.4,0l-3.5-2c-1.5-0.9-1.5-2.2,0-3.1l12.9-7.5L80.9,64z"
   id="path46" />
				</g>
				<g
   id="g52">
					<polygon
   fill="#065175"
   points="60.4,71.1 60.4,72.5 58.9,71.6 58.9,70.2      "
   id="polygon50" />
				</g>
				<g
   id="g56">
					<polygon
   fill="#065175"
   points="63,72.6 63,74 61.5,73.1 61.5,71.7      "
   id="polygon54" />
				</g>
			</g>
		</g>
		<g
   id="g104">
			<g
   id="g72">
				<g
   enable-background="new    "
   id="g70">
					<g
   id="g64">
						<polygon
   fill="#E0E1E0"
   points="67.9,62.1 67.9,62.9 81.5,55 81.5,54.2       "
   id="polygon62" />
					</g>
					<g
   id="g68">
						<polygon
   fill="#FFFFFF"
   points="67.9,62.1 81.5,54.2 80.8,53.8 67.9,61.3       "
   id="polygon66" />
					</g>
				</g>
			</g>
			<polygon
   fill="#E31E26"
   points="68,27.5 68,61.6 81,54.1    "
   id="polygon74"
   style="fill:#ff7f2a" />
			<g
   id="g78"
   style="fill:#d45500">
				<path
   fill="#E31E26"
   d="M67,29.2c-5.2,14.1-5.2,29.8,0,37.9c-9,3.5-19.7,9.3-24.7,15.5C39.8,67.3,47.3,40.5,67,29.2z"
   id="path76"
   style="fill:#d45500" />
			</g>
			<g
   id="g102">
				<g
   enable-background="new    "
   id="g100">
					<g
   enable-background="new    "
   id="g94">
						<defs
   id="defs81">
							<path
   id="SVGID_5_"
   enable-background="new    "
   d="M68.7,27.4l-0.1,39.5c0,0.1-0.1,0.3-0.3,0.4c-0.4,0.2-0.9,0.2-1.3,0         c-0.2-0.1-0.3-0.2-0.3-0.4l0.1-39.5c0,0.1,0.1,0.3,0.3,0.4c0.4,0.2,0.9,0.2,1.3,0C68.6,27.7,68.7,27.5,68.7,27.4z" />
						</defs>
						<clipPath
   id="SVGID_6_">
							<use
   xlink:href="#SVGID_5_"
   overflow="visible"
   id="use83" />
						</clipPath>
						<g
   clip-path="url(#SVGID_6_)"
   enable-background="new    "
   id="g92">
							<path
   fill="#C8C7C6"
   d="M68.7,27.4l-0.1,39.5c0,0.1-0.1,0.3-0.3,0.4c0,0,0,0-0.1,0l0.1-39.5c0,0,0,0,0.1,0         C68.6,27.7,68.7,27.5,68.7,27.4L68.7,27.4z"
   id="path86" />
							<path
   fill="#E0E1E0"
   d="M68.4,27.8l-0.1,39.5c-0.2,0.1-0.4,0.1-0.6,0.1l0.1-39.5C68,27.9,68.2,27.9,68.4,27.8L68.4,27.8z"
   id="path88" />
							<path
   fill="#C8C7C6"
   d="M67.8,27.9l-0.1,39.5c-0.2,0-0.4-0.1-0.6-0.2c-0.2-0.1-0.3-0.2-0.3-0.4l0.1-39.5         c0,0.1,0.1,0.3,0.3,0.4C67.3,27.9,67.5,27.9,67.8,27.9L67.8,27.9z"
   id="path90" />
						</g>
					</g>
					<g
   id="g98">
						<path
   fill="#E3E3E3"
   d="M68.4,27c0.4,0.2,0.4,0.5,0,0.8c-0.4,0.2-0.9,0.2-1.3,0c-0.4-0.2-0.4-0.5,0-0.8        C67.5,26.8,68.1,26.8,68.4,27z"
   id="path96" />
					</g>
				</g>
			</g>
		</g>
		<g
   id="g108">
			<polygon
   fill="#065175"
   points="67.9,72.7 67.9,74 70.4,72.6 70.4,71.2    "
   id="polygon106" />
		</g>
		<g
   id="g112">
			<polygon
   fill="#065175"
   points="71.3,70.7 71.3,72.1 73.8,70.6 73.8,69.3    "
   id="polygon110" />
		</g>
		<g
   id="g116">
			<polygon
   fill="#065175"
   points="74.5,68.8 74.5,70.2 77,68.7 77,67.4    "
   id="polygon114" />
		</g>
		<g
   id="g120">
			<polygon
   fill="#065175"
   points="77.9,66.9 77.9,68.2 80.4,66.8 80.3,65.4    "
   id="polygon118" />
		</g>
		<g
   id="g140">
			<g
   id="g126">
				<path
   fill="#FFFFFF"
   d="M84.2,69.5c0,0.7-0.5,1.5-1,1.9l0,0c-0.6,0.3-1,0.1-1-0.6v-0.1c0-0.7,0.5-1.5,1-1.9l0,0      C83.8,68.5,84.2,68.8,84.2,69.5L84.2,69.5z"
   id="path122" />
				<path
   fill="#004B75"
   d="M84.1,69.6c0,0.6-0.4,1.3-0.9,1.6l0,0c-0.5,0.3-0.9,0.1-0.9-0.5v-0.1c0-0.6,0.4-1.3,0.9-1.6l0,0      C83.7,68.7,84.1,68.9,84.1,69.6L84.1,69.6z"
   id="path124" />
			</g>
			<g
   id="g132">
				<path
   fill="#FFFFFF"
   d="M88.2,67.3c0,0.7-0.5,1.5-1,1.9l0,0c-0.6,0.3-1,0.1-1-0.6v-0.1c0-0.7,0.5-1.5,1-1.9l0,0      C87.7,66.2,88.2,66.5,88.2,67.3L88.2,67.3z"
   id="path128" />
				<path
   fill="#004B75"
   d="M88.1,67.3c0,0.6-0.4,1.3-0.9,1.6l0,0c-0.5,0.3-0.9,0.1-0.9-0.5v-0.1c0-0.6,0.4-1.3,0.9-1.6l0,0      C87.6,66.4,88.1,66.7,88.1,67.3L88.1,67.3z"
   id="path130" />
			</g>
			<g
   id="g138">
				<path
   fill="#FFFFFF"
   d="M91.9,65.1c0,0.7-0.5,1.5-1,1.9l0,0c-0.6,0.3-1,0.1-1-0.6v-0.1c0-0.7,0.5-1.5,1-1.9l0,0      C91.4,64.1,91.9,64.4,91.9,65.1L91.9,65.1z"
   id="path134" />
				<path
   fill="#004B75"
   d="M91.8,65.2c0,0.6-0.4,1.3-0.9,1.6l0,0c-0.5,0.3-0.9,0.1-0.9-0.5v-0.1c0-0.6,0.4-1.3,0.9-1.6l0,0      C91.4,64.3,91.8,64.5,91.8,65.2L91.8,65.2z"
   id="path136" />
			</g>
		</g>
	</g>
</g>
</svg>