<?xml version="1.0" encoding="utf-8"?>
<!-- Generator: Adobe Illustrator 22.1.0, SVG Export Plug-In . SVG Version: 6.00 Build 0)  -->
<svg version="1.1" id="Layer_1" xmlns="http://www.w3.org/2000/svg" xmlns:xlink="http://www.w3.org/1999/xlink" x="0px" y="0px"
	 width="140.8px" height="125.7px" viewBox="0 0 140.8 125.7" enable-background="new 0 0 140.8 125.7" xml:space="preserve">
<g>
	<path opacity="0.6" fill="#4D87A7" d="M116.3,66.3l-12.3-11.2l-12.1-1.9L50.9,78.2c0,0-8.1,5.2-8.9,11c0,0,0,0,0,0c0,0,0,0,0,0
		c0,0,0,0,0,0c0,0,0,0,0,0c0,0,0,0,0,0c0,0,0,0,0,0c0,0,0,0,0,0c0,0,0,0,0,0c0,0,0,0,0,0c0,0,0,0,0,0c0,0,0,0,0,0.1c0,0,0,0.1,0,0.1
		c0,0,0,0,0,0c0,0,0,0,0,0.1c0,0,0,0,0,0c0,0,0,0,0,0.1c0,0,0,0,0,0c0,0,0,0.1,0,0.1c0,0,0,0,0,0c0,0,0,0.1,0,0.1c0,0,0,0,0,0
		c0.3,2.6,1.6,9.1,1.7,9.2l0,0c0,0,11.5,1.2,24.3-4.4l3.2-0.6l0,0c2.3,0.2,5.8-0.9,9.8-3.2l0.6-0.3l0.9,0.1
		c-0.1,0.2-0.2,0.4-0.2,0.6c0,0.3,0.2,0.5,0.5,0.6l0.2,0c0,0,0,0,0,0c0.3,0,0.7-0.1,1.2-0.4c0.3-0.2,0.6-0.4,0.8-0.7l3.3,0.2
		c0,0,0,0,0,0c0.1,0,0.1,0,0.2-0.1c0.2-0.1,0.3-0.3,0.3-0.4c0-0.1,0-0.1-0.1-0.1c0,0,0,0,0,0l-3.1-0.5c0.1-0.3,0.2-0.5,0.2-0.7
		c0-0.4-0.2-0.6-0.5-0.6c0,0,0,0,0.1,0l-0.2,0c-0.2,0-0.3,0-0.6,0.1l12-7.1l0-0.2l3.5-0.3l5.9-3.6l0.1-2.5l-4.5,0L116.3,66.3z
		 M83.3,89.8L83.3,89.8L83.3,89.8C83.3,89.8,83.3,89.8,83.3,89.8z"/>
	<g>
		<g>
			<path fill="#A6DDE9" d="M109,45.4l-2.9,11.1c0,0-0.2,2.1-1.6,4.5c-1.4,2.2-6.4,5.1-6.4,5.1L55.9,90.9c0,0-8.3,4.4-16.2,0.3
				c-1.3-0.6-13.2-10.5-13.4-10.6C26.2,80.5,109,45.4,109,45.4z"/>
			<g>
				<path fill="#194C6D" d="M53.5,88.2c0,0-7.7,4.1-15.8,1.5c1,0.8,1.8,1.4,2.1,1.5c7.9,4.1,16.2-0.3,16.2-0.3l42.2-24.8
					c0,0,5-2.9,6.4-5.1c1.5-2.4,1.6-4.5,1.6-4.5l0.1-0.2c-2.2,1.9-5,3.5-5,3.5L53.5,88.2z"/>
			</g>
			<g>
				<g>
					<path fill="#FFFFFF" d="M41.1,54.2c-14.3,8.6-14.7,26.4-14.7,26.4s0,0,0.1,0l26-19.5L41.1,54.2z"/>
					<path fill="#FFFFFF" d="M52.4,61.1l-26,19.5c1.5-0.1,27.4-2,41.3-10.3L52.4,61.1z"/>
				</g>
				<g>
					<polygon fill="#FFFFFF" points="41.1,54.2 67.7,70.3 109,45.4 109,45.4 82.7,29.7 					"/>
				</g>
			</g>
			<g>
				<g>
					<polygon fill="#E9E8E8" points="43.8,54 68.2,68.7 106.7,45.5 106.7,45.5 82.5,31.1 					"/>
				</g>
			</g>
			<g>
				<polygon fill="#B4B4B4" points="43.8,54 46,55.3 82.5,33.7 82.5,31.1 				"/>
				<polygon fill="#9E9E9E" points="82.5,31.1 82.5,31.1 82.5,33.7 82.5,33.7 104.5,46.9 106.7,45.5 				"/>
			</g>
			<g>
				<path fill="#D2D2D2" d="M79.2,50.3l-38.4,5.4c-0.7,0.4-1.3,0.9-1.9,1.3l-1.1-2.1l-3.1,6.9c-0.2,0.4-0.4,0.8-0.5,1.2l0,0l0,0
					c-1.3,3.5-0.1,6.9,3.8,9.3c6.7,4,18.9,3.2,27.3-1.8l14-8.3L79.2,50.3z"/>
				<path fill="#004B75" d="M76.4,52l-35.7,3.7c-0.7,0.4-1.3,0.9-1.9,1.3l-1.1-2.1l-3.1,6.9c-0.2,0.4-0.4,0.8-0.5,1.2l0,0l0,0
					c-1.3,3.5-0.1,6.9,3.8,9.3c6.7,4,18.9,3.2,27.3-1.8l11.2-6.7V52z"/>
				<g>
					<path fill="#FFFFFF" d="M79.2,50.3l-15.1,9c-7.1,4.2-17.2,4.9-22.8,1.5c-5.6-3.4-4.5-9.5,2.4-13.8l15-9.1L79.2,50.3z"/>
				</g>
			</g>
			<path fill="#FFFFFF" d="M104.7,53.5c0,1.6-1.1,3.6-2.4,4.4l0,0c-1.3,0.8-2.4,0.2-2.4-1.5v-0.2c0-1.6,1.1-3.6,2.4-4.4l0,0
				c1.3-0.8,2.4-0.2,2.4,1.5L104.7,53.5z"/>
			<path fill="#004B75" d="M104.4,53.7c0,1.4-0.9,3.1-2.1,3.8l0,0c-1.2,0.7-2.1,0.1-2.1-1.3v-0.2c0-1.4,0.9-3.1,2.1-3.8l0,0
				c1.2-0.7,2.1-0.1,2.1,1.3V53.7z"/>
			<path fill="#FFFFFF" d="M97.6,57.9c0,1.6-1.1,3.6-2.4,4.4l0,0c-1.3,0.8-2.4,0.2-2.4-1.5v-0.2c0-1.6,1.1-3.6,2.4-4.4l0,0
				c1.3-0.8,2.4-0.2,2.4,1.5V57.9z"/>
			<path fill="#004B75" d="M97.2,58.1c0,1.4-0.9,3.1-2.1,3.7l0,0c-1.1,0.7-2.1,0.1-2.1-1.2v-0.2c0-1.4,0.9-3.1,2.1-3.7l0,0
				c1.1-0.7,2.1-0.1,2.1,1.2V58.1z"/>
			<g>
				<g>
					<g enable-background="new    ">
						<g enable-background="new    ">
							<g enable-background="new    ">
								<path fill="#959494" d="M45.8,53.8l0,4.1c0,0,0,0.1,0,0.1l0-4.1C45.8,53.9,45.8,53.8,45.8,53.8L45.8,53.8z"/>
								<path fill="#B4B4B4" d="M45.8,53.9l0,4.1c0,0.1-0.1,0.2-0.2,0.2c-0.2,0.1-0.4,0.1-0.6,0.1l0-4.1c0.2,0,0.4,0,0.6-0.1
									C45.7,54.1,45.7,54,45.8,53.9L45.8,53.9z"/>
								<path fill="#DCDCDC" d="M45,54.3l0,4.1c-0.2,0-0.4,0-0.6-0.1c-0.2-0.1-0.2-0.2-0.2-0.3l0-4.1c0,0.1,0.1,0.3,0.2,0.3
									C44.6,54.2,44.8,54.3,45,54.3L45,54.3z"/>
							</g>
						</g>
						<g>
							<path fill="#CCCCCC" d="M45.6,53.4c0.3,0.2,0.3,0.5,0,0.7c-0.3,0.2-0.8,0.2-1.1,0c-0.3-0.2-0.3-0.5,0-0.7
								C44.7,53.3,45.2,53.3,45.6,53.4z"/>
						</g>
					</g>
				</g>
				<g>
					<g enable-background="new    ">
						<g enable-background="new    ">
							<defs>
								<path id="SVGID_1_" enable-background="new    " d="M48.3,53.5l0,0.4c0,0.5-0.3,1-0.9,1.4c-1.3,0.8-3.3,0.8-4.6,0
									c-0.6-0.4-1-0.9-1-1.4l0-0.4c0,0.5,0.3,1,1,1.4c1.3,0.8,3.4,0.8,4.6,0C47.9,54.5,48.2,54,48.3,53.5z"/>
							</defs>
							<clipPath id="SVGID_2_">
								<use xlink:href="#SVGID_1_"  overflow="visible"/>
							</clipPath>
							<g clip-path="url(#SVGID_2_)">
								<path fill="#C3C3C3" d="M48.3,53.5l0,0.4c0,0.5-0.3,1-0.9,1.4c-1.3,0.8-3.3,0.8-4.6,0c-0.6-0.4-1-0.9-1-1.4l0-0.4
									c0,0.5,0.3,1,1,1.4c1.3,0.8,3.4,0.8,4.6,0C47.9,54.5,48.2,54,48.3,53.5L48.3,53.5z"/>
							</g>
						</g>
						<g>
							<path fill="#FFFFFF" d="M47.3,52.1c1.3,0.8,1.3,2,0,2.8c-1.3,0.8-3.3,0.8-4.6,0c-1.3-0.8-1.3-2,0-2.8
								C43.9,51.4,46,51.3,47.3,52.1z"/>
						</g>
					</g>
				</g>
				<g>
					<g enable-background="new    ">
						<g enable-background="new    ">
							<g enable-background="new    ">
								<path fill="#959494" d="M45.8,49.2l0,4.1c0,0,0,0.1,0,0.1l0-4.1C45.8,49.3,45.8,49.3,45.8,49.2L45.8,49.2z"/>
								<path fill="#B4B4B4" d="M45.8,49.3l0,4.1c0,0.1-0.1,0.2-0.2,0.2c-0.2,0.1-0.4,0.1-0.6,0.1l0-4.1c0.2,0,0.4,0,0.6-0.1
									C45.7,49.5,45.7,49.4,45.8,49.3L45.8,49.3z"/>
								<path fill="#DCDCDC" d="M45,49.7l0,4.1c-0.2,0-0.4,0-0.6-0.1c-0.2-0.1-0.2-0.2-0.2-0.3l0-4.1c0,0.1,0.1,0.3,0.2,0.3
									C44.6,49.7,44.8,49.7,45,49.7L45,49.7z"/>
							</g>
						</g>
						<g>
							<path fill="#CCCCCC" d="M45.6,48.9c0.3,0.2,0.3,0.5,0,0.7c-0.3,0.2-0.8,0.2-1.1,0c-0.3-0.2-0.3-0.5,0-0.7
								C44.7,48.7,45.2,48.7,45.6,48.9z"/>
						</g>
					</g>
				</g>
				<g>
					<g enable-background="new    ">
						<g enable-background="new    ">
							<defs>
								<path id="SVGID_3_" enable-background="new    " d="M47.7,48.7l0,0.3c0,0.4-0.3,0.8-0.8,1.2c-1.1,0.6-2.8,0.6-3.9,0
									c-0.5-0.3-0.8-0.8-0.8-1.2l0-0.3c0,0.4,0.3,0.9,0.8,1.2c1.1,0.6,2.8,0.6,3.9,0C47.5,49.6,47.7,49.2,47.7,48.7z"/>
							</defs>
							<clipPath id="SVGID_4_">
								<use xlink:href="#SVGID_3_"  overflow="visible"/>
							</clipPath>
							<g clip-path="url(#SVGID_4_)">
								<path fill="#C3C3C3" d="M47.7,48.7l0,0.3c0,0.4-0.3,0.8-0.8,1.2c-1.1,0.6-2.8,0.6-3.9,0c-0.5-0.3-0.8-0.8-0.8-1.2l0-0.3
									c0,0.4,0.3,0.9,0.8,1.2c1.1,0.6,2.8,0.6,3.9,0C47.5,49.6,47.7,49.2,47.7,48.7L47.7,48.7z"/>
							</g>
						</g>
						<g>
							<path fill="#FFFFFF" d="M46.9,47.6c1.1,0.6,1.1,1.7,0,2.3c-1.1,0.6-2.8,0.6-3.9,0c-1.1-0.6-1.1-1.7,0-2.3
								C44.1,46.9,45.8,46.9,46.9,47.6z"/>
						</g>
					</g>
				</g>
				<g>
					<g enable-background="new    ">
						<g enable-background="new    ">
							<g enable-background="new    ">
								<path fill="#959494" d="M45.8,44.4l0,4.1c0,0,0,0.1,0,0.1l0-4.1C45.8,44.5,45.8,44.5,45.8,44.4L45.8,44.4z"/>
								<path fill="#B4B4B4" d="M45.8,44.6l0,4.1c0,0.1-0.1,0.2-0.2,0.2c-0.2,0.1-0.4,0.1-0.6,0.1l0-4.1c0.2,0,0.4,0,0.6-0.1
									C45.7,44.7,45.7,44.6,45.8,44.6L45.8,44.6z"/>
								<path fill="#DCDCDC" d="M45,44.9l0,4.1c-0.2,0-0.4,0-0.6-0.1c-0.2-0.1-0.2-0.2-0.2-0.3l0-4.1c0,0.1,0.1,0.3,0.2,0.3
									C44.6,44.9,44.8,44.9,45,44.9L45,44.9z"/>
							</g>
						</g>
						<g>
							<path fill="#CCCCCC" d="M45.6,44.1c0.3,0.2,0.3,0.5,0,0.7c-0.3,0.2-0.8,0.2-1.1,0c-0.3-0.2-0.3-0.5,0-0.7
								C44.7,43.9,45.2,43.9,45.6,44.1z"/>
						</g>
					</g>
				</g>
				<g>
					<g enable-background="new    ">
						<g enable-background="new    ">
							<defs>
								<path id="SVGID_5_" enable-background="new    " d="M47.3,44.1l0,0.3c0,0.4-0.2,0.7-0.7,1c-0.9,0.5-2.4,0.5-3.3,0
									c-0.5-0.3-0.7-0.6-0.7-1l0-0.3c0,0.4,0.2,0.7,0.7,1c0.9,0.5,2.4,0.5,3.3,0C47.1,44.8,47.3,44.4,47.3,44.1z"/>
							</defs>
							<clipPath id="SVGID_6_">
								<use xlink:href="#SVGID_5_"  overflow="visible"/>
							</clipPath>
							<g clip-path="url(#SVGID_6_)">
								<path fill="#C3C3C3" d="M47.3,44.1l0,0.3c0,0.4-0.2,0.7-0.7,1c-0.9,0.5-2.4,0.5-3.3,0c-0.5-0.3-0.7-0.6-0.7-1l0-0.3
									c0,0.4,0.2,0.7,0.7,1c0.9,0.5,2.4,0.5,3.3,0C47.1,44.8,47.3,44.4,47.3,44.1L47.3,44.1z"/>
							</g>
						</g>
						<g>
							<path fill="#FFFFFF" d="M46.6,43.1c0.9,0.5,0.9,1.4,0,2c-0.9,0.5-2.4,0.5-3.3,0c-0.9-0.5-0.9-1.4,0-2
								C44.2,42.5,45.7,42.5,46.6,43.1z"/>
						</g>
					</g>
				</g>
				<g>
					<g enable-background="new    ">
						<g enable-background="new    ">
							<g enable-background="new    ">
								<path fill="#959494" d="M45.4,38.9l0.3,5.2c0,0,0,0.1,0,0.1L45.4,38.9C45.4,38.9,45.4,38.9,45.4,38.9L45.4,38.9z"/>
								<path fill="#C3C3C3" d="M45.4,39l0.3,5.3c0,0.1-0.1,0.1-0.2,0.2c-0.1,0.1-0.3,0.1-0.5,0.1l0-5.4c0.1,0,0.2,0,0.3-0.1
									C45.4,39,45.4,39,45.4,39L45.4,39z"/>
								<path fill="#DCDCDC" d="M45,39.2l0,5.4c-0.2,0-0.4,0-0.5-0.1c-0.1-0.1-0.2-0.2-0.2-0.3l0.3-5.2c0,0.1,0,0.1,0.1,0.2
									C44.8,39.1,44.9,39.2,45,39.2L45,39.2z"/>
							</g>
						</g>
						<g>
							<path fill="#FFFFFF" d="M45.3,38.7c0.2,0.1,0.2,0.3,0,0.4c-0.2,0.1-0.4,0.1-0.6,0c-0.2-0.1-0.2-0.3,0-0.4
								C44.9,38.6,45.1,38.6,45.3,38.7z"/>
						</g>
					</g>
				</g>
			</g>
			<g>
				<g>
					<polygon fill="#F1F0F0" points="63.2,36.6 59.9,34.5 56,48.6 59.3,50.7 					"/>
				</g>
				<g>
					<polygon fill="#FFFFFF" points="69,33.1 65.6,31.1 59.9,34.5 63.2,36.6 					"/>
				</g>
				<g>
					<polygon fill="#DCDCDC" points="63.2,36.6 59.3,50.7 67.2,46 69,33.1 					"/>
				</g>
			</g>
			<g>
				<g>
					<g enable-background="new    ">
						<g>
							<polygon fill="#FFFFFF" points="64.1,79.1 90.5,62.9 88.7,61.8 62.3,78 							"/>
						</g>
						<g>
							<polygon fill="#DCDBDB" points="64.1,79.9 90.5,63.7 90.5,62.9 64.1,79.1 							"/>
						</g>
					</g>
				</g>
				<g>
					<polygon fill="#9B9C9C" points="64.1,79.1 64.1,79.9 62.3,78.7 62.3,78 					"/>
				</g>
			</g>
		</g>
		<g>
			<g>
				<g enable-background="new    ">
					<g>
						<polygon fill="#FFFFFF" points="80.1,40.9 86.4,37.1 83,35.1 76.7,38.9 						"/>
					</g>
					<g>
						<polygon fill="#9B9C9C" points="80.1,42.2 86.4,38.4 86.4,37.1 80.1,40.9 						"/>
					</g>
				</g>
			</g>
			<g>
				<polygon fill="#C8C7C6" points="80.1,40.9 80.1,42.2 76.7,40.2 76.7,38.9 				"/>
			</g>
		</g>
		<g>
			<g enable-background="new    ">
				<g enable-background="new    ">
					<defs>
						<path id="SVGID_7_" enable-background="new    " d="M90,52l0,0.9c0,0.7-0.5,1.4-1.3,2c-1.8,1.1-4.7,1.1-6.6,0
							c-0.9-0.6-1.4-1.3-1.4-2l0-0.9c0,0.7,0.5,1.4,1.4,2c1.8,1.1,4.8,1.1,6.6,0C89.5,53.5,90,52.8,90,52z"/>
					</defs>
					<clipPath id="SVGID_8_">
						<use xlink:href="#SVGID_7_"  overflow="visible"/>
					</clipPath>
					<g clip-path="url(#SVGID_8_)" enable-background="new    ">
						<path fill="#ACABAB" d="M90,52l0,0.9c0,0.7-0.5,1.4-1.3,2c-0.1,0.1-0.2,0.1-0.3,0.2l0-0.9c0.1-0.1,0.2-0.1,0.3-0.2
							C89.5,53.5,90,52.8,90,52L90,52z"/>
						<path fill="#D4D4D4" d="M88.3,54.2l0,0.9c-0.9,0.5-2,0.7-3.2,0.6l0-0.9C86.3,54.9,87.4,54.7,88.3,54.2L88.3,54.2z"/>
						<path fill="#ACABAB" d="M85.2,54.8l0,0.9c-1.1,0-2.2-0.3-3.1-0.8c-0.9-0.6-1.4-1.3-1.4-2l0-0.9c0,0.7,0.5,1.4,1.4,2
							C82.9,54.5,84,54.8,85.2,54.8L85.2,54.8z"/>
					</g>
				</g>
				<g>
					<path fill="#FFFFFF" d="M88.6,50c1.8,1.1,1.8,2.9,0,4c-1.8,1.1-4.7,1.1-6.6,0c-1.8-1.1-1.8-2.9,0-4
						C83.9,48.9,86.8,48.9,88.6,50z"/>
				</g>
			</g>
		</g>
	</g>
</g>
</svg>
