<?xml version="1.0" encoding="utf-8"?>
<!-- Generator: Adobe Illustrator 22.1.0, SVG Export Plug-In . SVG Version: 6.00 Build 0)  -->
<svg version="1.1" id="Layer_1" xmlns="http://www.w3.org/2000/svg" xmlns:xlink="http://www.w3.org/1999/xlink" x="0px" y="0px"
	 width="6000px" height="6000px" viewBox="0 0 6000 6000" enable-background="new 0 0 6000 6000" xml:space="preserve">
<g>
	<g>
		<ellipse fill="#1E87DC" cx="3000" cy="3000" rx="2231.9" ry="2176.4"/>
		<path fill="#144B7D" d="M3000,823.6c-81.2,0-161.4,4.5-240.4,12.7c882.3,102.5,1566.6,834.1,1566.6,1722
			c0,958.1-796.5,1734.8-1779.1,1734.8c-910.6,0-1660.9-667.2-1766-1527.6c-8.5,77-13.1,155.2-13.1,234.4
			c0,1202,999.3,2176.4,2231.9,2176.4c1232.6,0,2231.9-974.4,2231.9-2176.4S4232.7,823.6,3000,823.6z"/>
	</g>
	<path fill="#283D77" d="M2030.6,4960.8c524.9-93.2,1153.9-354.3,1776.1-765.8c645.1-426.5,1138.9-919.4,1417.1-1374
		c-9.9-119.1-29.4-235.5-58.2-348.4c-197.4,455.6-699.3,1032.2-1479.9,1548.3C2937,4516,2230,4758.4,1725.9,4786.5
		C1822.3,4852,1923.9,4910.6,2030.6,4960.8z"/>
	<path fill="#0073AA" d="M4768.8,1673.4c-150.7,472.2-671.9,1111.8-1528.9,1678.4c-851.5,562.9-1649.3,799.5-2155.5,765.1
		c45.4,73.9,95.3,144.7,149.1,212.5c28.9-0.8,58.1-1.9,88-4c569.4-40.2,1309.3-316.9,2039.4-799.6
		c773.2-511.3,1329.4-1117.8,1556.7-1639.4C4872.3,1812.4,4822.5,1741.4,4768.8,1673.4z"/>
	<g>
		<path fill="#283D77" d="M4917.6,1886.5L4917.6,1886.5c-45.3-74-95.1-145.1-148.8-213.1c-70.2,219.8-221.6,476-448.8,744.1
			c3.8,46.5,6.2,93.4,6.2,140.9c0,60.7-3.3,120.7-9.5,179.7C4594.3,2448.1,4800.2,2156,4917.6,1886.5z"/>
		<path fill="#283D77" d="M1661.1,4062.5c-217.4,47.7-412.6,65.6-576.7,54.4c45.4,73.9,95.3,144.7,149.1,212.5
			c28.9-0.8,58.1-1.9,88-4c197.4-13.9,415.7-57,646.6-126.5C1860.7,4162.9,1758.1,4117,1661.1,4062.5z"/>
	</g>
	<path fill="#0073AA" d="M4422,1322.5c-56.2-45.4-114.8-88.2-175.5-128.1C4032.3,1640,3540.7,2189,2794.1,2682.7
		c-757.9,501.1-1473.1,743.2-1978.2,766.3c15.2,70.5,33.8,139.8,55.8,207.6c1.3-0.1,2.7-0.1,4-0.2
		c569.4-40.2,1309.3-316.9,2039.4-799.6C3636.9,2379.5,4169.3,1819.2,4422,1322.5z"/>
	<g>
		<path fill="#283D77" d="M4246.5,1194.5c-57.8,120.3-136.2,248.2-234.1,380.4c44,62.1,83.8,127.2,119.3,194.8
			c119.1-152.1,216.6-302.3,290.3-447.2C4365.7,1277.1,4307.2,1234.4,4246.5,1194.5z"/>
		<path fill="#283D77" d="M1009.6,3430.7c-67.6,9.4-132.2,15.3-193.8,18.2c15.2,70.5,33.8,139.8,55.8,207.6c1.3-0.1,2.7-0.1,4-0.2
			c85.1-6,174.3-17.9,266.4-34.4C1093.8,3561.3,1049.5,3497.4,1009.6,3430.7z"/>
	</g>
</g>
</svg>
