# Blender v2.79 (sub 0) OBJ File: ''
# www.blender.org
mtllib arm.mtl
o Cylinder.001_Cylinder.002
v 0.000000 49.999996 110.000000
v 0.000000 850.000000 110.000038
v 17.558128 850.000000 111.729362
v 17.558128 49.999996 111.729324
v 34.441509 850.000000 116.850883
v 34.441509 49.999996 116.850845
v 50.001324 850.000000 125.167778
v 50.001324 49.999996 125.167740
v 63.639610 850.000000 136.360413
v 63.639610 49.999992 136.360382
v 74.832268 850.000000 149.998718
v 74.832268 49.999992 149.998688
v 83.149155 850.000000 165.558517
v 83.149155 49.999992 165.558487
v 88.270676 850.000000 182.441895
v 88.270676 49.999992 182.441864
v 90.000000 850.000000 200.000031
v 90.000000 49.999992 200.000000
v 88.270676 850.000000 217.558151
v 88.270676 49.999992 217.558121
v 83.149162 850.000000 234.441528
v 83.149162 49.999989 234.441498
v 74.832268 850.000000 250.001343
v 74.832268 49.999989 250.001312
v 63.639610 850.000000 263.639648
v 63.639610 49.999989 263.639618
v 50.001316 850.000000 274.832306
v 50.001316 49.999989 274.832275
v 34.441494 850.000000 283.149200
v 34.441494 49.999989 283.149170
v 17.558107 850.000000 288.270721
v 17.558107 49.999989 288.270691
v -0.000029 850.000000 290.000031
v -0.000029 49.999989 290.000000
v -17.558165 850.000000 288.270691
v -17.558165 49.999989 288.270660
v -34.441547 850.000000 283.149170
v -34.441547 49.999989 283.149139
v -50.001366 850.000000 274.832275
v -50.001366 49.999989 274.832245
v -63.639652 850.000000 263.639618
v -63.639652 49.999989 263.639587
v -74.832298 850.000000 250.001297
v -74.832298 49.999989 250.001266
v -83.149185 850.000000 234.441467
v -83.149185 49.999989 234.441437
v -88.270691 850.000000 217.558075
v -88.270691 49.999992 217.558044
v -90.000000 850.000000 199.999939
v -90.000000 49.999992 199.999908
v -88.270653 850.000000 182.441803
v -88.270653 49.999992 182.441772
v -83.149117 850.000000 165.558426
v -83.149117 49.999992 165.558395
v -74.832207 850.000000 149.998627
v -74.832207 49.999992 149.998596
v -63.639530 850.000000 136.360336
v -63.639530 49.999992 136.360306
v -50.001221 850.000000 125.167702
v -50.001221 49.999996 125.167664
v -34.441387 850.000000 116.850830
v -34.441387 49.999996 116.850792
v -17.557993 850.000000 111.729340
v -17.557993 49.999996 111.729301
vn 0.0980 0.0000 -0.9952
vn 0.2903 0.0000 -0.9569
vn 0.4714 0.0000 -0.8819
vn 0.6344 0.0000 -0.7730
vn 0.7730 0.0000 -0.6344
vn 0.8819 0.0000 -0.4714
vn 0.9569 0.0000 -0.2903
vn 0.9952 0.0000 -0.0980
vn 0.9952 0.0000 0.0980
vn 0.9569 -0.0000 0.2903
vn 0.8819 -0.0000 0.4714
vn 0.7730 -0.0000 0.6344
vn 0.6344 -0.0000 0.7730
vn 0.4714 -0.0000 0.8819
vn 0.2903 -0.0000 0.9569
vn 0.0980 -0.0000 0.9952
vn -0.0980 -0.0000 0.9952
vn -0.2903 -0.0000 0.9569
vn -0.4714 -0.0000 0.8819
vn -0.6344 -0.0000 0.7730
vn -0.7730 -0.0000 0.6344
vn -0.8819 -0.0000 0.4714
vn -0.9569 -0.0000 0.2903
vn -0.9952 -0.0000 0.0980
vn -0.9952 -0.0000 -0.0980
vn -0.9569 0.0000 -0.2903
vn -0.8819 0.0000 -0.4714
vn -0.7730 0.0000 -0.6344
vn -0.6344 0.0000 -0.7730
vn -0.4714 0.0000 -0.8819
vn 0.0000 1.0000 -0.0000
vn -0.2903 0.0000 -0.9569
vn -0.0980 0.0000 -0.9952
vn 0.0000 -1.0000 -0.0000
usemtl Material.003
s 1
f 1//1 2//1 3//1 4//1
f 4//2 3//2 5//2 6//2
f 6//3 5//3 7//3 8//3
f 8//4 7//4 9//4 10//4
f 10//5 9//5 11//5 12//5
f 12//6 11//6 13//6 14//6
f 14//7 13//7 15//7 16//7
f 16//8 15//8 17//8 18//8
f 18//9 17//9 19//9 20//9
f 20//10 19//10 21//10 22//10
f 22//11 21//11 23//11 24//11
f 24//12 23//12 25//12 26//12
f 26//13 25//13 27//13 28//13
f 28//14 27//14 29//14 30//14
f 30//15 29//15 31//15 32//15
f 32//16 31//16 33//16 34//16
f 34//17 33//17 35//17 36//17
f 36//18 35//18 37//18 38//18
f 38//19 37//19 39//19 40//19
f 40//20 39//20 41//20 42//20
f 42//21 41//21 43//21 44//21
f 44//22 43//22 45//22 46//22
f 46//23 45//23 47//23 48//23
f 48//24 47//24 49//24 50//24
f 50//25 49//25 51//25 52//25
f 52//26 51//26 53//26 54//26
f 54//27 53//27 55//27 56//27
f 56//28 55//28 57//28 58//28
f 58//29 57//29 59//29 60//29
f 60//30 59//30 61//30 62//30
f 3//31 2//31 63//31 61//31 59//31 57//31 55//31 53//31 51//31 49//31 47//31 45//31 43//31 41//31 39//31 37//31 35//31 33//31 31//31 29//31 27//31 25//31 23//31 21//31 19//31 17//31 15//31 13//31 11//31 9//31 7//31 5//31
f 62//32 61//32 63//32 64//32
f 64//33 63//33 2//33 1//33
f 1//34 4//34 6//34 8//34 10//34 12//34 14//34 16//34 18//34 20//34 22//34 24//34 26//34 28//34 30//34 32//34 34//34 36//34 38//34 40//34 42//34 44//34 46//34 48//34 50//34 52//34 54//34 56//34 58//34 60//34 62//34 64//34
o Cylinder
v 0.000000 90.000015 -99.999985
v 0.000000 89.999985 100.000015
v 17.558128 88.270660 100.000015
v 17.558128 88.270691 -99.999985
v 34.441509 83.149139 100.000000
v 34.441509 83.149170 -100.000000
v 50.001324 74.832245 100.000000
v 50.001324 74.832275 -100.000000
v 63.639610 63.639603 100.000000
v 63.639610 63.639618 -100.000000
v 74.832268 50.001308 100.000000
v 74.832268 50.001324 -100.000000
v 83.149155 34.441502 100.000000
v 83.149155 34.441517 -100.000000
v 88.270676 17.558125 100.000000
v 88.270676 17.558140 -100.000000
v 90.000000 -0.000002 100.000000
v 90.000000 0.000015 -100.000000
v 88.270676 -17.558126 100.000000
v 88.270676 -17.558111 -100.000000
v 83.149162 -34.441502 100.000000
v 83.149162 -34.441486 -100.000000
v 74.832268 -50.001324 100.000000
v 74.832268 -50.001308 -100.000000
v 63.639610 -63.639618 100.000000
v 63.639610 -63.639603 -100.000000
v 50.001316 -74.832283 100.000000
v 50.001316 -74.832253 -100.000000
v 34.441494 -83.149185 100.000000
v 34.441494 -83.149155 -100.000000
v 17.558107 -88.270691 99.999985
v 17.558107 -88.270660 -100.000015
v -0.000029 -90.000015 99.999985
v -0.000029 -89.999985 -100.000015
v -17.558165 -88.270683 99.999985
v -17.558165 -88.270653 -100.000015
v -34.441547 -83.149155 100.000000
v -34.441547 -83.149124 -100.000000
v -50.001366 -74.832253 100.000000
v -50.001366 -74.832222 -100.000000
v -63.639652 -63.639580 100.000000
v -63.639652 -63.639565 -100.000000
v -74.832298 -50.001274 100.000000
v -74.832298 -50.001259 -100.000000
v -83.149185 -34.441448 100.000000
v -83.149185 -34.441433 -100.000000
v -88.270691 -17.558060 100.000000
v -88.270691 -17.558044 -100.000000
v -90.000000 0.000079 100.000000
v -90.000000 0.000095 -100.000000
v -88.270653 17.558214 100.000000
v -88.270653 17.558229 -100.000000
v -83.149117 34.441593 100.000000
v -83.149117 34.441608 -100.000000
v -74.832207 50.001404 100.000000
v -74.832207 50.001419 -100.000000
v -63.639530 63.639683 100.000000
v -63.639530 63.639698 -100.000000
v -50.001221 74.832321 100.000000
v -50.001221 74.832352 -100.000000
v -34.441387 83.149193 100.000000
v -34.441387 83.149223 -100.000000
v -17.557993 88.270683 100.000015
v -17.557993 88.270714 -99.999985
vn 0.0980 0.9952 0.0000
vn 0.2903 0.9569 0.0000
vn 0.4714 0.8819 0.0000
vn 0.6344 0.7730 0.0000
vn 0.7730 0.6344 0.0000
vn 0.8819 0.4714 0.0000
vn 0.9569 0.2903 0.0000
vn 0.9952 0.0980 0.0000
vn 0.9952 -0.0980 -0.0000
vn 0.9569 -0.2903 -0.0000
vn 0.8819 -0.4714 -0.0000
vn 0.7730 -0.6344 -0.0000
vn 0.6344 -0.7730 -0.0000
vn 0.4714 -0.8819 -0.0000
vn 0.2903 -0.9569 -0.0000
vn 0.0980 -0.9952 -0.0000
vn -0.0980 -0.9952 -0.0000
vn -0.2903 -0.9569 -0.0000
vn -0.4714 -0.8819 -0.0000
vn -0.6344 -0.7730 -0.0000
vn -0.7730 -0.6344 -0.0000
vn -0.8819 -0.4714 -0.0000
vn -0.9569 -0.2903 -0.0000
vn -0.9952 -0.0980 -0.0000
vn -0.9952 0.0980 0.0000
vn -0.9569 0.2903 0.0000
vn -0.8819 0.4714 0.0000
vn -0.7730 0.6344 0.0000
vn -0.6344 0.7730 0.0000
vn -0.4714 0.8819 0.0000
vn -0.0000 -0.0000 1.0000
vn -0.2903 0.9569 0.0000
vn -0.0980 0.9952 0.0000
vn 0.0000 0.0000 -1.0000
usemtl Material.001
s 1
f 65//35 66//35 67//35 68//35
f 68//36 67//36 69//36 70//36
f 70//37 69//37 71//37 72//37
f 72//38 71//38 73//38 74//38
f 74//39 73//39 75//39 76//39
f 76//40 75//40 77//40 78//40
f 78//41 77//41 79//41 80//41
f 80//42 79//42 81//42 82//42
f 82//43 81//43 83//43 84//43
f 84//44 83//44 85//44 86//44
f 86//45 85//45 87//45 88//45
f 88//46 87//46 89//46 90//46
f 90//47 89//47 91//47 92//47
f 92//48 91//48 93//48 94//48
f 94//49 93//49 95//49 96//49
f 96//50 95//50 97//50 98//50
f 98//51 97//51 99//51 100//51
f 100//52 99//52 101//52 102//52
f 102//53 101//53 103//53 104//53
f 104//54 103//54 105//54 106//54
f 106//55 105//55 107//55 108//55
f 108//56 107//56 109//56 110//56
f 110//57 109//57 111//57 112//57
f 112//58 111//58 113//58 114//58
f 114//59 113//59 115//59 116//59
f 116//60 115//60 117//60 118//60
f 118//61 117//61 119//61 120//61
f 120//62 119//62 121//62 122//62
f 122//63 121//63 123//63 124//63
f 124//64 123//64 125//64 126//64
f 67//65 66//65 127//65 125//65 123//65 121//65 119//65 117//65 115//65 113//65 111//65 109//65 107//65 105//65 103//65 101//65 99//65 97//65 95//65 93//65 91//65 89//65 87//65 85//65 83//65 81//65 79//65 77//65 75//65 73//65 71//65 69//65
f 126//66 125//66 127//66 128//66
f 128//67 127//67 66//67 65//67
f 65//68 68//68 70//68 72//68 74//68 76//68 78//68 80//68 82//68 84//68 86//68 88//68 90//68 92//68 94//68 96//68 98//68 100//68 102//68 104//68 106//68 108//68 110//68 112//68 114//68 116//68 118//68 120//68 122//68 124//68 126//68 128//68
o Cylinder.002_Cylinder.003
v 0.000000 90.000015 -99.999992
v 0.000000 89.999977 300.000000
v 17.558128 88.270653 300.000000
v 17.558128 88.270691 -99.999992
v 34.441509 83.149132 300.000000
v 34.441509 83.149170 -100.000000
v 50.001324 74.832237 300.000000
v 50.001324 74.832275 -100.000000
v 63.639610 63.639591 300.000000
v 63.639610 63.639622 -100.000000
v 74.832268 50.001297 300.000000
v 74.832268 50.001328 -100.000000
v 83.149155 34.441490 300.000000
v 83.149155 34.441521 -100.000000
v 88.270676 17.558109 300.000000
v 88.270676 17.558146 -100.000000
v 90.000000 -0.000015 300.000000
v 90.000000 0.000020 -100.000000
v 88.270676 -17.558142 300.000000
v 88.270676 -17.558105 -100.000000
v 83.149162 -34.441513 300.000000
v 83.149162 -34.441483 -100.000000
v 74.832268 -50.001335 300.000000
v 74.832268 -50.001305 -100.000000
v 63.639610 -63.639629 300.000000
v 63.639610 -63.639599 -100.000000
v 50.001316 -74.832291 300.000000
v 50.001316 -74.832253 -100.000000
v 34.441494 -83.149193 300.000000
v 34.441494 -83.149155 -100.000000
v 17.558107 -88.270699 300.000000
v 17.558107 -88.270660 -100.000008
v -0.000029 -90.000023 300.000000
v -0.000029 -89.999985 -100.000008
v -17.558165 -88.270691 300.000000
v -17.558165 -88.270653 -100.000008
v -34.441547 -83.149162 300.000000
v -34.441547 -83.149124 -100.000000
v -50.001366 -74.832260 300.000000
v -50.001366 -74.832222 -100.000000
v -63.639652 -63.639591 300.000000
v -63.639652 -63.639561 -100.000000
v -74.832298 -50.001286 300.000000
v -74.832298 -50.001255 -100.000000
v -83.149185 -34.441460 300.000000
v -83.149185 -34.441429 -100.000000
v -88.270691 -17.558075 300.000000
v -88.270691 -17.558039 -100.000000
v -90.000000 0.000065 300.000000
v -90.000000 0.000100 -100.000000
v -88.270653 17.558199 300.000000
v -88.270653 17.558235 -100.000000
v -83.149117 34.441582 300.000000
v -83.149117 34.441612 -100.000000
v -74.832207 50.001392 300.000000
v -74.832207 50.001423 -100.000000
v -63.639530 63.639671 300.000000
v -63.639530 63.639702 -100.000000
v -50.001221 74.832314 300.000000
v -50.001221 74.832352 -100.000000
v -34.441387 83.149185 300.000000
v -34.441387 83.149223 -100.000000
v -17.557993 88.270676 300.000000
v -17.557993 88.270714 -99.999992
vn 0.0980 0.9952 0.0000
vn 0.2903 0.9569 0.0000
vn 0.4714 0.8819 0.0000
vn 0.6344 0.7730 0.0000
vn 0.7730 0.6344 0.0000
vn 0.8819 0.4714 0.0000
vn 0.9569 0.2903 0.0000
vn 0.9952 0.0980 0.0000
vn 0.9952 -0.0980 -0.0000
vn 0.9569 -0.2903 -0.0000
vn 0.8819 -0.4714 -0.0000
vn 0.7730 -0.6344 -0.0000
vn 0.6344 -0.7730 -0.0000
vn 0.4714 -0.8819 -0.0000
vn 0.2903 -0.9569 -0.0000
vn 0.0980 -0.9952 -0.0000
vn -0.0980 -0.9952 -0.0000
vn -0.2903 -0.9569 -0.0000
vn -0.4714 -0.8819 -0.0000
vn -0.6344 -0.7730 -0.0000
vn -0.7730 -0.6344 -0.0000
vn -0.8819 -0.4714 -0.0000
vn -0.9569 -0.2903 -0.0000
vn -0.9952 -0.0980 -0.0000
vn -0.9952 0.0980 0.0000
vn -0.9569 0.2903 0.0000
vn -0.8819 0.4714 0.0000
vn -0.7730 0.6344 0.0000
vn -0.6344 0.7730 0.0000
vn -0.4714 0.8819 0.0000
vn 0.0000 0.0000 1.0000
vn -0.2903 0.9569 0.0000
vn -0.0980 0.9952 0.0000
vn -0.0000 0.0000 -1.0000
usemtl Material.004
s 1
f 129//69 130//69 131//69 132//69
f 132//70 131//70 133//70 134//70
f 134//71 133//71 135//71 136//71
f 136//72 135//72 137//72 138//72
f 138//73 137//73 139//73 140//73
f 140//74 139//74 141//74 142//74
f 142//75 141//75 143//75 144//75
f 144//76 143//76 145//76 146//76
f 146//77 145//77 147//77 148//77
f 148//78 147//78 149//78 150//78
f 150//79 149//79 151//79 152//79
f 152//80 151//80 153//80 154//80
f 154//81 153//81 155//81 156//81
f 156//82 155//82 157//82 158//82
f 158//83 157//83 159//83 160//83
f 160//84 159//84 161//84 162//84
f 162//85 161//85 163//85 164//85
f 164//86 163//86 165//86 166//86
f 166//87 165//87 167//87 168//87
f 168//88 167//88 169//88 170//88
f 170//89 169//89 171//89 172//89
f 172//90 171//90 173//90 174//90
f 174//91 173//91 175//91 176//91
f 176//92 175//92 177//92 178//92
f 178//93 177//93 179//93 180//93
f 180//94 179//94 181//94 182//94
f 182//95 181//95 183//95 184//95
f 184//96 183//96 185//96 186//96
f 186//97 185//97 187//97 188//97
f 188//98 187//98 189//98 190//98
f 131//99 130//99 191//99 189//99 187//99 185//99 183//99 181//99 179//99 177//99 175//99 173//99 171//99 169//99 167//99 165//99 163//99 161//99 159//99 157//99 155//99 153//99 151//99 149//99 147//99 145//99 143//99 141//99 139//99 137//99 135//99 133//99
f 190//100 189//100 191//100 192//100
f 192//101 191//101 130//101 129//101
f 129//102 132//102 134//102 136//102 138//102 140//102 142//102 144//102 146//102 148//102 150//102 152//102 154//102 156//102 158//102 160//102 162//102 164//102 166//102 168//102 170//102 172//102 174//102 176//102 178//102 180//102 182//102 184//102 186//102 188//102 190//102 192//102
