<?xml version="1.0" encoding="utf-8"?>
<!-- Generator: Adobe Illustrator 22.1.0, SVG Export Plug-In . SVG Version: 6.00 Build 0)  -->
<svg version="1.1" id="Layer_1" xmlns="http://www.w3.org/2000/svg" xmlns:xlink="http://www.w3.org/1999/xlink" x="0px" y="0px"
	 width="6344px" height="6344px" viewBox="0 0 6344 6344" style="enable-background:new 0 0 6344 6344;" xml:space="preserve">
<g>
	<g>
		<g>
			
				<ellipse transform="matrix(0.9997 -2.463014e-02 2.463014e-02 0.9997 -77.4177 79.0925)" style="fill:none;stroke:#000000;stroke-miterlimit:10;" cx="3172" cy="3182.3" rx="1501.3" ry="1522.8"/>
			<path style="fill:none;stroke:#000000;stroke-miterlimit:10;" d="M3852.2,4540.4c84.1-43.3,162.2-93.9,234.4-150
				c-727.6,224.3-1417.7-129-1774.3-786.2c-387.6-714.3-214.3-1530.7,536.9-1909.8c-121.4,27.1-241.5,70-357.4,129.7
				c-739.2,380.5-1034,1297-658.2,2047.1C2209.2,4621.3,3113,4920.9,3852.2,4540.4z"/>
			<path style="fill:none;stroke:#000000;stroke-miterlimit:10;" d="M4378.1,5321.1c-66.6,33.1-137.1,37.5-189.8,30.7
				c-14.5-1.3-24.2-4.2-36.7-6.6c-11.3-2.7-24.2-5.3-34.2-8.5c-19-6.6-40.4-13.6-57.2-21.2c-69.5-30.7-120.5-65.6-167.8-101
				c-94.8-70.9-170.3-145.9-243.9-222.2c-145.2-152.7-272.4-311.9-393-474.9c-239.6-326.6-444.9-671.2-626.6-1027
				c-89.5-178.6-174.9-359.3-254.2-543c-79.2-183.7-151.1-371-216.4-561.7c-64.6-191.2-120.3-386.3-160.6-591.6
				c-19.2-103.6-36-207.8-38.1-325c-1-58.5,0.4-119.6,16.3-193c3.6-17.8,10.4-38.9,16.3-57.9c3.1-9.8,8.6-21.6,13.1-32.2
				c5.3-11.3,8.8-20.8,16.2-33c25.6-45.9,70.9-99.2,137.3-132.7c67.2-31.9,137.4-35.1,189.4-27.1c14.2,1.7,24,4.7,36.1,7.5
				c11.1,2.9,23.9,5.9,33.5,9.3c18.7,7.1,39.5,14.5,55.7,22.7c67.5,32.5,116.5,69,161.8,105.7c90.6,73.7,161.9,151.4,231.1,230.2
				c136.4,157.9,252.7,322.7,364.5,489.5c111.6,166.7,214.7,337.4,313.7,509.7c99.6,172,193.1,347,282.4,523.8
				c178.8,353.7,347.5,712.1,493.8,1084.4c72.8,186.5,139.5,376.2,189.2,577.5c23.7,101.5,45.2,203.9,52.3,319.4
				c3.4,57.8,4.5,118.1-8.9,191c-2.9,17.7-9.1,38.7-14.3,57.7c-2.8,9.8-7.9,21.6-12.1,32.2c-4.9,11.2-8.1,20.9-15.2,33.1
				C4487.8,5232.7,4443.9,5286.6,4378.1,5321.1z M4197.5,4971.3c-22.6,10.5-32.2,27.6-32.9,30.6c-0.3,2.1-0.2-0.3,0.2-0.1
				c0.2-0.8,0.9,0.2,1.5-1.7c0.9-4.6,2.9-6.8,4.2-12.9c6.1-22.7,9.4-60.4,8.6-99.9c-0.3-79.2-13.5-169.3-30-258.3
				c-33.7-179.5-84.9-362.4-143.7-543.2c-118.8-362-274.4-715.9-452.5-1057.2c-90.5-170.1-184.7-338.2-284.6-502.5
				c-99.8-164.3-206.4-324.4-317.7-479.5c-111.8-154.4-231.7-303.1-358.5-436.3c-63.3-65.4-129.6-129.2-194.5-176
				c-31.8-23.9-64.7-43.6-87.1-52c-5.9-2.7-8.9-2.3-13.1-4.4c-2-0.7-1.6,0.4-2.3,0.1c0,0.4-2.1-0.9-0.2,0.1c2.9,1.3,22.6,3.7,44.6-8
				c23.1-9.4,34.1-25.9,36.1-28.9c0.6-2,0.8,0.4,0.9,0.2c0.1,0.8-0.2-0.2-0.4,1.7c-0.2,4.6-1.6,6.6-2.2,12.7
				c-3.5,22.2-4.4,59.2-1.1,97.9c5.1,77.6,23,166,44.1,252.9c43.3,175.5,105.4,353.2,172.3,529.1c67,176.3,142.9,350.6,222.4,523.7
				c79,173.3,164.2,344.2,253.4,513.3c177.9,337.9,365.8,671.2,571.9,988.5c103.1,158.1,212.1,312.5,330,450.8
				c59,67.9,120.9,134.3,181.6,184c29.8,25.4,60.7,46.6,81,56.9c5.5,3.1,7.9,3.2,11.8,5.8c1.7,1,1.1,0.2,1.7,0.6
				c-0.2-0.1,1.7,1.5-0.4,0.8C4239,4959.5,4218.9,4958.5,4197.5,4971.3z"/>
			<path style="fill:none;stroke:#000000;stroke-miterlimit:10;" d="M4047.9,4420.1c592.8-430.2,803-1246.8,462.6-1926.7
				c-352.2-703.2-1166.9-1006-1878.3-732.6c-191.6,73.6,48.9,638.8,499.6,1541.6C3425.8,3891.1,3712.4,4532.4,4047.9,4420.1z"/>
		</g>
		<g>
			<path style="fill:none;stroke:#000000;stroke-miterlimit:10;" d="M4596.2,3665.3c-2.1-2.5-4.6-4.8-7-7.2
				c-89.1-94.5-168.9-201.2-243.3-311.5c-149.1-220.8-282.1-454.1-407.1-691.5c-62.6-118.7-122.1-239.2-176.3-361.9
				c-54.7-122.4-106.5-246.3-150.7-372.2c-42.5-120.3-41.7-92.6-66.6-215.3c-60.6-13.4-90.2-21.5-171.8-33c0.4,3.4-0.4-1.9,0,1.5
				c18.2,142.2,33.2,167.9,73.3,302.1c80.2,268.4,188.7,525.2,311.9,773.9c125.3,247.8,271.1,485.6,444.3,704.5
				c86.9,109.2,179.5,214.4,284.3,310.7c16.8,15.5,32.5,33.1,52,45.5c2.7,1.7,14.1-24.3,32.3-68.5
				C4586.3,3707.2,4600,3670,4596.2,3665.3z"/>
			<path style="fill:none;stroke:#000000;stroke-miterlimit:10;" d="M4292.1,4197.2c-1.9-1.1-3.5-2.8-5.2-4
				C3698.4,3730.6,2972.1,2630.9,2912.5,1709c-0.6-8.1,0.4-16.4-1.4-24.3c-0.7-2.8-53.6,8.6-107.1,17.6
				c-55.1,9.4-103.3,33.3-105.7,33.6c-7,0.5,2,14.2,3,21.4c151.1,1034,793.2,2109,1433,2584.2c2.3,1.7,5.5,2.7,6.9,5.1
				c1.3,2.1,35.9-26.5,81.4-72.6C4258.6,4237.9,4300.2,4201.6,4292.1,4197.2z"/>
		</g>
		<path style="fill:none;stroke:#000000;stroke-miterlimit:10;" d="M3825.7,4553.2c8.9-4.3,17.7-8.3,26.5-12.8
			c739.1-380.5,1033.9-1297,658.2-2047.1c-375.7-750.1-1279.4-1049.6-2018.7-669.1c-8.8,4.5-17.2,9.5-25.9,14.2L3825.7,4553.2z"/>
		<path style="fill:none;stroke:#000000;stroke-miterlimit:10;" d="M3852.2,4540.4c-739.2,380.5-1643,81-2018.7-669.1
			s-81-1666.6,658.2-2047.1c283.3-145.8,590.7-191.7,883.3-150.7c56.5,7.8,112.5,19.1,167.6,33.4c404.3,105,763.9,379.4,967.7,786.4
			C4886.1,3243.3,4591.4,4159.9,3852.2,4540.4z"/>
	</g>
</g>
<g>
	<g>
		<g>
			<ellipse style="fill:#FABE9B;" cx="3181.2" cy="3172" rx="1601.9" ry="1528.1"/>
			<path style="fill:#D27350;" d="M4621.6,2503.3c-44-86.3-95.9-166.7-153.6-241.2c223.1,744.4-160.7,1440.5-858.2,1792.1
				c-758.2,382.1-1613.7,191.7-1999.2-579.4c26.4,124,69.4,247,130.1,365.9c387.1,758.9,1345.9,1074.7,2141.5,705.3
				C4677.7,4176.7,5008.8,3262.2,4621.6,2503.3z"/>
			<path style="fill:#FFD23C;" d="M5379.3,2048.6c32.6,64.3,35.9,131.8,28.1,182.1c-1.5,13.8-4.7,23.1-7.3,35
				c-2.9,10.8-5.8,23.1-9.3,32.6c-7,18.1-14.6,38.4-22.6,54.3c-32.4,66-68.8,114.2-105.6,158.8c-73.8,89.5-151.4,160.4-230.3,229.6
				c-158,136.4-322.2,255.3-490.2,368c-336.6,223.8-691,414.4-1056.4,582.2c-183.4,82.6-368.8,161.2-557.2,234
				c-188.4,72.7-380.4,138.3-575.7,197.6c-195.8,58.6-395.4,108.6-605.2,143.7c-105.8,16.6-212.2,30.9-331.6,31
				c-59.6,0-121.8-2.4-196.3-18.8c-18-3.7-39.4-10.6-58.7-16.6c-9.9-3.1-21.9-8.6-32.6-13.1c-11.4-5.3-21-8.7-33.3-16.1
				c-46.4-25.2-99.8-69.5-132.9-133.6c-31.4-64.8-33.4-132-24.5-181.7c1.9-13.6,5.2-22.8,8.2-34.4c3.2-10.6,6.4-22.7,10-31.9
				c7.5-17.7,15.4-37.5,24-52.9c34.2-64,72.2-110.3,110.3-153c76.6-85.4,156.9-152.3,238.3-217.2
				c163.1-127.8,332.9-236.3,504.6-340.5c171.6-104,347.2-199.7,524.4-291.6c176.8-92.4,356.6-178.9,538.1-261.4
				c363.2-165.1,731.1-320.4,1112.6-454.2c191.2-66.5,385.5-127.2,591.3-171.3c103.8-21,208.5-39.9,326.2-44.7
				c58.9-2.3,120.4-2.3,194.4,11.7c18,3,39.2,9.4,58.5,14.6c9.9,2.9,21.9,7.9,32.6,12.1c11.4,4.9,21.1,8.1,33.4,15.1
				C5291.1,1942.1,5345.3,1985,5379.3,2048.6z M5020,2215.5c10.3,21.8,27.6,31.3,30.6,32c2.1,0.4-0.3,0.2-0.1-0.2
				c-0.8-0.2,0.2-0.9-1.7-1.4c-4.7-0.9-6.8-2.9-13.1-4.2c-23-6.2-61.4-10-101.6-9.9c-80.7-1.1-172.7,10.1-263.6,24.3
				c-183.4,29.3-370.5,75.2-555.6,128.3c-370.6,107.6-733.7,250.5-1084.3,415.2c-174.7,83.7-347.5,171.1-516.6,263.8
				c-169,92.8-333.8,192-493.6,295.9c-159.1,104.3-312.5,216.5-450.3,335.6c-67.7,59.5-133.8,121.8-182.5,183.1
				c-24.9,30.1-45.5,61.2-54.4,82.4c-2.9,5.6-2.5,8.5-4.7,12.5c-0.8,1.9,0.4,1.5,0.1,2.2c0.4,0-1,2,0.1,0.2
				c1.3-2.8,4.1-21.6-7.4-42.8c-9.2-22.3-25.8-33.1-28.8-35.1c-2-0.6,0.4-0.8,0.2-0.9c0.8-0.1-0.2,0.2,1.7,0.4
				c4.7,0.3,6.6,1.6,12.9,2.3c22.6,3.7,60.2,5.2,99.6,2.7c79.1-3.6,169.4-19.3,258.3-37.9c179.4-38.4,361.5-94.9,541.7-156
				c180.7-61.2,359.5-130.8,537.1-204c177.8-72.7,353.3-151.3,527-233.8c347.1-164.5,689.6-338.6,1016.2-530.5
				c162.8-96,321.8-197.6,464.6-308.1c70.2-55.3,138.8-113.4,190.4-170.6c26.4-28.1,48.5-57.3,59.3-76.5c3.3-5.2,3.4-7.5,6.1-11.1
				c1.1-1.6,0.2-1.1,0.7-1.6c-0.1,0.2,1.5-1.6,0.8,0.4C5008.8,2175.6,5007.3,2194.8,5020,2215.5z"/>
			<path style="fill:#FABE9B;" d="M4498.5,2302c-442.1-610.7-1297.2-838.8-2018.3-504.1c-745.8,346.2-1078.7,1170.1-803.6,1898.9
				c74,196.3,672.8-38.7,1630.2-481.8C3931.1,2926,4610.7,2645.3,4498.5,2302z"/>
		</g>
		<g>
			<path style="fill:#D27350;" d="M3714.3,1731c-2.7,2.1-5.1,4.6-7.7,7c-101,89-214.6,168.4-331.9,242.2
				c-234.9,147.9-482.5,279.2-734.4,402.3c-126,61.6-253.7,120.1-383.8,173.1c-129.7,53.5-260.9,104.2-394.2,146.9
				c-127.3,41.2-98.1,40.8-227.6,64c-15.1,61.4-24.2,91.4-37.8,174.3c3.6-0.4-2,0.4,1.5,0c149.9-16.1,177.2-30.9,319-69.4
				c283.7-77,555.7-182.9,819.4-304c262.8-123.3,515.5-267.5,748.8-440c116.4-86.5,228.7-179,331.8-284
				c16.6-16.9,35.4-32.5,48.8-52.2c1.8-2.7-25.3-14.8-71.5-34.1C3758.2,1741.8,3719.3,1727.2,3714.3,1731z"/>
			<path style="fill:#D27350;" d="M4268.3,2049.7c-1.2,2-3,3.5-4.3,5.3c-496.8,590.9-1666.3,1311-2636.9,1355.7
				c-8.6,0.4-17.3-0.7-25.5,1c-3,0.6,8.1,54.7,16.6,109.3c8.9,56.2,33.2,105.7,33.4,108.2c0.4,7.1,14.9-1.8,22.6-2.7
				c1090.2-135.9,2232.2-770.8,2743.2-1413.7c1.8-2.3,2.9-5.5,5.5-7c2.2-1.2-27.3-37-74.9-84.1
				C4310.6,2084.4,4273.2,2041.5,4268.3,2049.7z"/>
		</g>
		<path style="fill:none;" d="M4634.6,2530.5c-4.3-9.1-8.4-18.2-13-27.2c-387.1-758.8-1345.9-1074.6-2141.5-705.3
			c-795.5,369.4-1126.5,1283.9-739.4,2042.8c4.6,9,9.6,17.7,14.5,26.6L4634.6,2530.5z"/>
		<path style="fill:none;" d="M4621.6,2503.3c387.1,758.9,56.2,1673.5-739.4,2042.8s-1754.3,53.6-2141.5-705.3
			c-148.3-290.8-191.2-604.4-142.9-901.5c9.3-57.3,22.1-114.2,38.1-170c117.6-409.6,412.5-770.8,844.2-971.2
			C3275.6,1428.7,4234.4,1744.4,4621.6,2503.3z"/>
	</g>
</g>
</svg>
