<?xml version="1.0" encoding="utf-8"?>
<!-- Generator: Adobe Illustrator 22.1.0, SVG Export Plug-In . SVG Version: 6.00 Build 0)  -->
<svg version="1.1" id="Layer_1" xmlns="http://www.w3.org/2000/svg" xmlns:xlink="http://www.w3.org/1999/xlink" x="0px" y="0px"
	 width="6000px" height="6000px" viewBox="0 0 6000 6000" enable-background="new 0 0 6000 6000" xml:space="preserve">
<g>
	<ellipse fill="#87A0AF" cx="3004.4" cy="3005.2" rx="2255" ry="2179"/>
	<g>
		<path fill="#738C96" d="M1695.1,2622.8c0,395.4-111.6,716-249.4,716s-249.4-320.6-249.4-716s111.6-716,249.4-716
			S1695.1,2227.4,1695.1,2622.8z"/>
		<path fill="#738C96" d="M3759.9,1906.8c0,259.8-73.3,470.4-163.8,470.4c-90.5,0-163.8-210.6-163.8-470.4s73.3-470.4,163.8-470.4
			C3686.5,1436.4,3759.9,1647,3759.9,1906.8z"/>
		<ellipse fill="#738C96" cx="2864.5" cy="2561.9" rx="163.8" ry="681.7"/>
		<path fill="#738C96" d="M2214.2,3392.4c0,343.2-50.5,621.4-112.8,621.4c-62.3,0-112.8-278.2-112.8-621.4s50.5-621.4,112.8-621.4
			C2163.8,2771,2214.2,3049.2,2214.2,3392.4z"/>
		<path fill="#738C96" d="M2492.1,1636.3c0,224.4-50.5,406.4-112.8,406.4c-62.3,0-112.8-181.9-112.8-406.4s50.5-406.4,112.8-406.4
			C2441.6,1229.9,2492.1,1411.9,2492.1,1636.3z"/>
		<path fill="#738C96" d="M3410.3,3579.1c0,224.4-50.5,406.4-112.8,406.4c-62.3,0-112.8-181.9-112.8-406.4
			c0-224.4,50.5-406.4,112.8-406.4C3359.8,3172.7,3410.3,3354.7,3410.3,3579.1z"/>
	</g>
	<path fill="#46738C" d="M3004.4,826.2c-82.1,0-163.1,4.5-242.9,12.8c891.4,102.6,1582.8,835.1,1582.8,1724.1
		c0,959.2-804.7,1736.8-1797.4,1736.8c-920,0-1678.1-668-1784.2-1529.4c-8.5,77.1-13.2,155.4-13.2,234.7
		c0,1203.4,1009.6,2179,2255,2179c1245.4,0,2255-975.6,2255-2179S4249.8,826.2,3004.4,826.2z"/>
</g>
</svg>
