<?xml version="1.0" encoding="utf-8"?>
<!-- Generator: Adobe Illustrator 22.1.0, SVG Export Plug-In . SVG Version: 6.00 Build 0)  -->
<svg version="1.1" id="Layer_1" xmlns="http://www.w3.org/2000/svg" xmlns:xlink="http://www.w3.org/1999/xlink" x="0px" y="0px"
	 width="184.5px" height="106.1px" viewBox="0 0 184.5 106.1" enable-background="new 0 0 184.5 106.1" xml:space="preserve">
<g>
	<g>
		<polygon fill="#9CC9B5" points="43.2,81.1 55.1,101.5 65.8,104.7 67,91.7 49.4,81.1 		"/>
		<path fill="#682B41" d="M137.6,25.6l-10-6.3c0,0-6.8-7.9,9.9-9.4c16.8-1.5,31.1,5.4,28.1,7.7C162.6,19.7,156.2,25.4,137.6,25.6z"
			/>
		<path fill="#9AD3D3" d="M5.9,47.4C6.1,70.9,39.3,89.6,80,89.3c40.8-0.3,73.7-19.6,73.5-43.1c-0.1-9.9-6.1-19-16-26.2
			c-13.7-9.7-34.7-15.9-58.2-15.7C38.6,4.6,5.7,23.9,5.9,47.4z"/>
		<path fill="#9AD3D3" d="M8.1,47C8.3,70.5,39.3,89.6,80,89.3c40.8-0.3,73.7-19.6,73.5-43.1c-0.1-9.9-6.1-19-16-26.2
			c-13.7-9.7-34.7-15.9-58.2-15.7C38.6,4.6,7.9,23.5,8.1,47z"/>
		<path fill="#CD2927" d="M5.9,47.4c0.1,18.6,33.3,33.4,74,33c40.8-0.3,73.7-15.7,73.5-34.2c-0.1-7.9-6-15-16-20.7
			c-13.6-7.7-34.6-12.5-58.1-12.4C38.6,13.5,5.7,28.8,5.9,47.4z"/>
		<path fill="#9AD3D3" d="M5.9,47.4c0.1,11.5,33.2,20.5,74,20.2c40.8-0.3,73.7-9.9,73.6-21.4c0-4.8-6-9.3-15.9-12.7
			c-13.6-4.7-34.5-7.6-58-7.4C38.7,26.4,5.8,35.9,5.9,47.4z"/>
		<path fill="#BF2826" d="M5.9,47.4c0,4.2,33.1,7.4,73.9,7c40.8-0.3,73.8-4,73.7-8.2c0-1.8-5.9-3.4-15.9-4.6
			c-13.5-1.7-34.5-2.6-58-2.4C38.8,39.5,5.8,43.2,5.9,47.4z"/>
		<path fill="#9C1C4A" d="M5.9,47.4c-0.1-13.9,11.3-26.3,29-34.2c4.4,8.6,11.4,26.6,6.8,48.8c-1.6,7.8-4.1,13.9-6.9,18.7
			C17.3,73.2,6,61.1,5.9,47.4z"/>
		<path fill="#5F2E49" d="M34.1,62.1c4.1-19.9-1-36.4-5.3-45.8c2-1.1,4-2.1,6.1-3.1c4.4,8.6,11.4,26.6,6.8,48.8
			c-1.6,7.8-4.1,13.9-6.9,18.7c-2.1-0.9-4.1-1.9-6-2.9C31,73.6,32.8,68.4,34.1,62.1z"/>
		<path fill="#5F2E49" d="M10.7,62.4c-3.1-4.6-4.8-9.7-4.9-15c0-4.8,1.3-9.3,3.8-13.6c1.4,4.4,2.3,9.9,2.3,15.9
			C12,54.3,11.5,58.6,10.7,62.4z"/>
		<path opacity="0.4" fill="#9AD3D3" enable-background="new    " d="M77.7,71.7c37.3-0.3,68.1-16.5,72.8-37.3c1.9,3.7,3,7.7,3,11.8
			C153.7,69.7,120.8,89,80,89.3S6,70.9,5.8,47.4c0-2,0.2-3.9,0.6-5.8C15.5,59.2,44,72,77.7,71.7z"/>
		<path fill="#1D3E3C" d="M136.9,73.3C97.7,101.8,27.2,91.5,9.9,61c9,13.9,27.6,21.6,43.8,25C80.6,91.5,113.7,88.5,136.9,73.3z"/>
		<path fill="#692467" d="M174.4,43.8c0.1,7.2-10.4,15.3-29.7,21.1c-17.9-14.5-10.9-31.2-2.1-40.6C162.4,29.7,174.4,36.5,174.4,43.8
			z"/>
		<path fill="#562669" d="M172.5,49.4c-3.9,5.6-13.3,11.2-27.8,15.5c-16.5-13.4-11.8-28.6-4.1-38.3
			C138.5,36.6,140.7,51.1,172.5,49.4z"/>
		<path fill="#412B56" d="M142.6,24.2c1.2,0.3,2.4,0.7,3.5,1c-8.1,9.4-13.9,24.9,1.9,38.6c-1.1,0.3-2.1,0.7-3.3,1
			C126.8,50.4,133.8,33.7,142.6,24.2z"/>
		<g>
			<path fill="#668788" d="M175.7,39l-1.2,4.7c0,0,1.9-0.1,3.9-1.3c1.4-0.9,2.8-3.4,1.2-4.7C178.2,36.7,176.1,37.4,175.7,39z"/>
			<path fill="#668788" d="M175.6,49.5l-1.2-4.7c0,0,1.9,0.1,3.8,1.3c1.4,0.9,2.8,3.4,1.2,4.7C178.2,51.8,176.1,51.1,175.6,49.5z"/>
			<path fill="#6E9495" d="M172.3,44.3c0,1.2,0.9,2.1,2,2.1s1.9-1,1.9-2.1c0-1.2-0.9-2.1-2-2.1C173.2,42.2,172.3,43.2,172.3,44.3z"
				/>
			<path fill="#6E9495" d="M168.8,41l4.5,2.1c0,0,0.3-1.8-0.5-4c-0.6-1.6-2.8-3.4-4.4-2C167,38.1,167.3,40.3,168.8,41z"/>
			<path fill="#6E9495" d="M170.7,49.6l2.3-4.3c0,0-1.8-0.4-4,0.3c-1.6,0.5-3.5,2.6-2.3,4.3C167.7,51.2,169.9,51,170.7,49.6z"/>
		</g>
		<path fill="#9C1C4A" d="M133.5,65.2l-4.5,3.2c-1.1,0.8-1.7,1.9-1.9,3.2c-0.4,2.3,0.9,5.5,10.8,5.8c15.8,0.4,28.8-6.9,25.9-8.8
			c-2.6-1.7-8.1-6-21.9-6.1C138.9,62.5,135.9,63.4,133.5,65.2z"/>
		<path fill="#682B41" d="M129,68.4l0.2-0.1c12.2,5.5,26.4,3.4,35,1.1c-0.5,2.6-12.3,8.4-26.3,8c-10.3-0.3-11.4-3.7-10.9-6
			C127.3,70.2,128,69.1,129,68.4z"/>
		<path fill="#CB1D60" d="M130,38.3c0,0,26.8-2.1,29.9,4.4c2.9,6-22.3,8.9-26.3,8.8c0,0-4.2,0.4-7.7-0.9
			C122.5,49.3,118.7,39.6,130,38.3z"/>
		<path fill="#9CC9B5" d="M55.7,81.6c0,0-4.6,4.4-7.8,4.4l9.4,4.2H61L55.7,81.6z"/>
		<path fill="#84AB99" d="M110,81.1l-10.9,23.3l-33.3,0.3L55.7,81.6h3.7c0,0,0.5,4.4,15.1,6.7c14.6,2.3,30.3-7.1,30.3-7.1L110,81.1z
			"/>
		<path fill="#719182" d="M104.8,81.2c0,0-15.7,9.4-30.3,7.1s-15.1-6.7-15.1-6.7h-3.7l1.1,2.5c6.5,2.9,25.6,11.7,37.4,20.4h4.9
			L110,81.1L104.8,81.2z"/>
		<g>
			<path fill="#1D3E3C" d="M70.6,93.7c0,2-1.6,3.6-3.6,3.6s-3.6-1.6-3.6-3.6s1.6-3.6,3.6-3.6S70.6,91.7,70.6,93.7z"/>
			<path fill="#6D7B9E" d="M69.4,93.7c0,1.3-1.1,2.4-2.4,2.4s-2.4-1.1-2.4-2.4s1.1-2.4,2.4-2.4C68.4,91.3,69.4,92.4,69.4,93.7z"/>
			<path opacity="0.56" fill="#6D7B9E" enable-background="new    " d="M64.6,93.7c0,0.4,0.1,0.8,0.3,1.1c0.3,0.1,0.6,0.2,1,0.2
				c1.3,0,2.4-1.1,2.4-2.4c0-0.4-0.1-0.8-0.3-1.1c-0.3-0.1-0.6-0.2-1-0.2C65.7,91.3,64.6,92.4,64.6,93.7z"/>
		</g>
		<g>
			<circle fill="#1D3E3C" cx="79.2" cy="93.7" r="3.6"/>
			<path fill="#6D7B9E" d="M81.7,93.7c0,1.3-1.1,2.4-2.4,2.4s-2.4-1.1-2.4-2.4s1.1-2.4,2.4-2.4C80.6,91.3,81.7,92.4,81.7,93.7z"/>
			<path opacity="0.56" fill="#6D7B9E" enable-background="new    " d="M76.8,93.7c0,0.4,0.1,0.8,0.3,1.1c0.3,0.1,0.6,0.2,1,0.2
				c1.3,0,2.4-1.1,2.4-2.4c0-0.4-0.1-0.8-0.3-1.1c-0.3-0.1-0.6-0.2-1-0.2C77.9,91.3,76.8,92.4,76.8,93.7z"/>
		</g>
		<g>
			<circle fill="#1D3E3C" cx="91.5" cy="93.7" r="3.6"/>
			<path fill="#6D7B9E" d="M93.9,93.7c0,1.3-1.1,2.4-2.4,2.4s-2.4-1.1-2.4-2.4s1.1-2.4,2.4-2.4C92.9,91.3,93.9,92.4,93.9,93.7z"/>
			<path opacity="0.56" fill="#6D7B9E" enable-background="new    " d="M89.1,93.7c0,0.4,0.1,0.8,0.3,1.1c0.3,0.1,0.6,0.2,1,0.2
				c1.3,0,2.4-1.1,2.4-2.4c0-0.4-0.1-0.8-0.3-1.1c-0.3-0.1-0.6-0.2-1-0.2C90.2,91.3,89.1,92.4,89.1,93.7z"/>
		</g>
		<polygon fill="#1D3E3C" points="48.5,87.9 55.7,85.9 61.9,100.1 55.1,99.4 		"/>
		<polygon fill="#6D7B9E" points="49.9,88.6 55.4,98.7 60.1,98.7 55.1,87 		"/>
		<path opacity="0.56" fill="#6D7B9E" enable-background="new    " d="M55.5,88l-0.4-1l-5.2,1.6l5.5,10.1h0.4
			C56.1,95.3,55.8,90.9,55.5,88z"/>
	</g>
	<path fill="#D93D77" d="M127.3,45.6c0.1,1.2,6.5,1.6,14.4,1.1s14.2-1.9,14.1-3.1c-0.1-1.2-6.5-1.6-14.4-1.1
		C133.5,43.1,127.2,44.4,127.3,45.6z"/>
	<path opacity="0.39" fill="#9AD3D3" enable-background="new    " d="M47.2,24.3c0.1,10.1,15.5,18.2,34.4,18s34.2-8.5,34.2-18.6
		c-0.1-10.1-15.5-18.2-34.4-18C62.4,5.9,47.1,14.2,47.2,24.3z"/>
	<polygon fill="#1D3E3C" points="110,81.1 99.1,104.4 65.8,104.7 97.9,103.4 	"/>
</g>
</svg>
