<?xml version="1.0" encoding="utf-8"?>
<!-- Generator: Adobe Illustrator 22.1.0, SVG Export Plug-In . SVG Version: 6.00 Build 0)  -->
<svg version="1.1" id="Layer_1" xmlns="http://www.w3.org/2000/svg" xmlns:xlink="http://www.w3.org/1999/xlink" x="0px" y="0px"
	 width="184.5px" height="106.1px" viewBox="0 0 184.5 106.1" enable-background="new 0 0 184.5 106.1" xml:space="preserve">
<g>
	<g>
		<polygon fill="#52555F" points="116.9,11 113.9,35.1 124.2,34 120,11.4 		"/>
		<polygon fill="#A53322" points="155.6,92.5 143.5,91 142.2,83.6 141,83.8 142.2,90.9 107.9,86.6 110.4,80.8 109.3,80.3 
			106.6,86.5 102.2,85.9 102,87.2 155.4,93.8 		"/>
		<path fill="#728FC9" d="M133.7,31.9c-20.7-5.2-37.8,5.2-47.8,14c-12.5-0.3-33.9-0.7-47.8-0.8l-8.6-19c-1-2.2-4.2-2.2-5.1,0
			c-0.8,1.8-1.1,3.8-1,5.8c0.2,2.5,0.4,5.6,0.8,8.8c0.3,2.9,1.3,5.8,3,8.2l0,0c1.4,2.1,3.7,3.6,6.2,4.1l42.1,8.2l0,0
			c0.4,2.5,1.6,5.7,4.7,9.7c7.4,9.5,63.2,21.3,72.2,8.9C161.6,67.7,167.1,40.4,133.7,31.9z"/>
		<path fill="#6771B5" d="M147.6,83.4c-33.3-8.9-49.8-29.1-57-41.3c-1.7,1.3-3.3,2.6-4.7,3.8c-1.8,0-3.7-0.1-5.8-0.1L73.6,61l0,0
			l2,0.4l0,0c0.4,2.5,1.6,5.7,4.7,9.7C86.8,79.5,131.2,89.7,147.6,83.4z"/>
		<path fill="#EC4424" d="M85.9,45.9c-9-0.2-22.4-0.5-34.4-0.6c-8.1-0.1-15.5-4.9-18.8-12.3l-3.1-6.8c-1-2.2-4.2-2.2-5.1,0.1
			c-1.5,3.5-1.1,5.9-0.2,14.6c0.5,5.5,3.5,11.2,9.2,12.3l42,8.2C79.6,50.7,86.2,45.7,85.9,45.9z"/>
		<g>
			<path fill="#D32B2D" d="M85.9,45.9C85.9,45.9,85.9,45.9,85.9,45.9C85.9,45.9,85.9,45.9,85.9,45.9z"/>
			<path fill="#D32B2D" d="M85.9,45.9c-1.2,0-2.4-0.1-3.8-0.1C72.5,51.7,55.3,56,25.5,46c1.4,3.5,4.1,6.5,7.9,7.2l42,8.2
				C79.5,51.1,85.7,46.1,85.9,45.9z"/>
		</g>
		<path fill="#D85127" d="M112.7,95.3l6.7-14c-0.4-0.5-2-0.1-2.5,0.4L110.6,95l0,0l-26.7-4.3l14.1-13.5c-0.2-0.6-2-0.6-2.6-0.3
			l-14,13.4l-7.9-1.3l-0.3,2l55.7,9.1l0.3-2L112.7,95.3z"/>
		<path fill="#23A394" d="M151.9,41.2c-9,0-31.6,1-37.1,11c-1.6,2.9-2.7,5.7-3.5,8.1c-2.3,7.2,1.9,14.8,9.2,16.8
			c8.3,2.3,20.3,4.6,31.8,3.2c0.1-0.1,0.2-0.2,0.2-0.3C159.3,70.8,164.2,53,151.9,41.2z"/>
		<path fill="#277D9A" d="M152.5,80c0.4-0.6,0.9-1.3,1.3-1.9c-11-3.4-25.3-8.9-29.6-15.2c-4.7-6.9,3.6-15.3,10.2-20.4
			c-8.3,1.4-16.6,4.1-19.6,9.6c-1.6,2.9-2.7,5.6-3.5,8.1c-2.3,7.2,1.9,14.8,9.2,16.8c8.3,2.3,20.3,4.6,31.8,3.2
			C152.4,80.2,152.4,80.1,152.5,80z"/>
		<path fill="#185A48" d="M151.9,41.2c-15,0.5-32.8,1.5-38.6,15.3c-4.1,9.6-0.5,19.5,13.7,22.1c1.3,0.2,16.2,2.5,25.4,1.8
			c-7.2,1.1-19.8,0.1-25.5-0.8c-14.6-2.4-19.2-13-14.6-23.5C118.3,41.8,136.3,40.7,151.9,41.2z"/>
	</g>
	<path fill="#7D597D" d="M117.8,11l-55.6-0.8c-0.1,0-0.2,0-0.3,0c-1.8,0.2-3.2,1.8-3,3.6c0.2,1.8,1.8,3.2,3.6,3l55.4-4.9
		c0.2,0,0.4-0.2,0.4-0.4C118.2,11.2,118,11,117.8,11z"/>
	<path fill="#7D597D" d="M117.9,11l55.6-1.4c0.1,0,0.2,0,0.3,0c1.8,0.1,3.2,1.7,3.1,3.6c-0.1,1.8-1.7,3.2-3.6,3l-55.5-4.3
		c-0.2,0-0.4-0.2-0.4-0.4C117.4,11.2,117.6,11,117.9,11z"/>
	<path fill="#FBA924" d="M118.3,9.8c-0.8,0-1.5,0.6-1.6,1.4h3.2C119.8,10.5,119.1,9.8,118.3,9.8z"/>
	<path opacity="0.18" fill="#83AEDD" d="M117.9,43.2c-2.8,1.9-6.2,1.9-7.5,0c-1.3-1.9-0.1-5,2.8-6.9c2.8-1.9,12.7-3.2,14-1.2
		C128.5,36.9,120.8,41.3,117.9,43.2z"/>
	<g>
		<path fill="#812619" d="M28.5,43.2c0.3,1.8-1,3.4-2.8,3.7c-1.8,0.3-3.5-0.9-3.8-2.7c-0.3-1.8,1-3.4,2.8-3.7
			C26.6,40.2,28.2,41.4,28.5,43.2z"/>
		<path fill="#812619" d="M36.1,56.6c1.2,1.9,1.1,4.1-0.2,4.9c-1.3,0.8-3.3-0.1-4.5-2.1c-1.2-1.9-5.9-14.7-5.9-14.7
			S34.9,54.7,36.1,56.6z"/>
		<g>
			<path fill="#7D597D" d="M36.1,56.6c1.2,1.9,1.1,4.1-0.2,4.9c-1.3,0.8-3.3-0.1-4.5-2.1c-1.2-1.9-5.9-14.7-5.9-14.7
				S34.9,54.7,36.1,56.6z"/>
			<path fill="#7D597D" d="M13.1,30.1c-1.2-1.9-1.1-4.1,0.2-4.9c1.3-0.8,3.3,0.1,4.5,2.1C19,29.2,23.7,42,23.7,42
				S14.3,32.1,13.1,30.1z"/>
		</g>
		<g>
			<path fill="#7D597D" d="M38.8,32.9c2-1,4.2-0.8,4.9,0.6c0.7,1.3-0.4,3.3-2.5,4.3c-2,1-15.1,4.6-15.1,4.6S36.8,33.9,38.8,32.9z"/>
			<path fill="#7D597D" d="M10.5,53.5c-2,1-4.2,0.8-4.9-0.6C4.9,51.6,6,49.7,8,48.6c2-1,15.1-4.6,15.1-4.6S12.5,52.5,10.5,53.5z"/>
		</g>
		<path fill="#FBA924" d="M24.7,40.5c-1.8,0.3-3.1,1.9-2.8,3.7c0.2,1.5,1.5,2.6,3,2.7c1.8-0.3,3.1-1.9,2.8-3.7
			C27.5,41.7,26.2,40.6,24.7,40.5z"/>
		<path fill="#CE5737" d="M26.1,43.5c0.1,1-0.6,1.9-1.6,2.1c-1,0.2-2-0.5-2.1-1.5c-0.1-1,0.6-1.9,1.6-2.1
			C25,41.9,25.9,42.5,26.1,43.5z"/>
	</g>
	<g>
		<path fill="#728FC9" d="M99.2,71.7c-2.5,0-4.6-2-4.6-4.5V52c0-2.5,2-4.5,4.6-4.5h2.5c2.5,0,4.6,2,4.6,4.5v15.2
			c0,2.5-2,4.5-4.6,4.5H99.2z"/>
		<path fill="#33695C" d="M101.7,47h-2.5c-2.7,0-5,2.2-5,5v15.2c0,2.7,2.2,5,5,5h2.5c2.7,0,5-2.2,5-5V52
			C106.7,49.3,104.4,47,101.7,47z M105.8,67.2c0,2.3-1.9,4.1-4.1,4.1h-2.5c-2.3,0-4.1-1.9-4.1-4.1V52c0-2.3,1.9-4.1,4.1-4.1h2.5
			c2.3,0,4.1,1.9,4.1,4.1V67.2z"/>
	</g>
</g>
</svg>
