<?xml version="1.0" encoding="utf-8"?>
<!-- Generator: Adobe Illustrator 22.1.0, SVG Export Plug-In . SVG Version: 6.00 Build 0)  -->
<svg version="1.1" id="Layer_1" xmlns="http://www.w3.org/2000/svg" xmlns:xlink="http://www.w3.org/1999/xlink" x="0px" y="0px"
	 width="227px" height="77px" viewBox="0 0 227 77" enable-background="new 0 0 227 77" xml:space="preserve">
<g>
	<path fill="#FFF200" stroke="#000000" stroke-miterlimit="10" d="M65.1,9.2c0.1,1,0,2.2-0.2,3.6c-0.2,1.4-0.5,3.1-0.8,4.9
		c-0.3,1.8-0.7,3.8-1.1,5.9c-0.4,2.1-0.8,4.4-1.3,6.7c-0.4,2.3-0.8,4.7-1.1,7.2c-0.3,2.5-0.6,4.9-0.8,7.4c0,0.2-0.1,0.7-0.1,1.6
		c-0.1,0.9-0.1,2-0.2,3.3c-0.1,1.3-0.2,2.7-0.3,4.3c-0.1,1.6-0.2,3.2-0.3,4.8c-0.1,1.6-0.1,3.2-0.2,4.8s0,2.9,0,4.1
		c0,0.7-0.1,1.4-0.5,2s-0.8,1.2-1.3,1.7s-1.1,0.9-1.6,1.2c-0.5,0.3-1,0.5-1.4,0.5c-0.3,0-0.7-0.1-1.1-0.2c-0.4-0.1-0.8-0.4-1.1-0.6
		s-0.7-0.6-0.9-1.1c-0.3-0.4-0.4-0.9-0.5-1.5c0-0.4,0-1.2,0.1-2.2c0.1-1.1,0.3-2.3,0.4-3.7c0.2-1.4,0.4-2.9,0.6-4.5
		c0.2-1.6,0.4-3.2,0.6-4.7c0.2-1.5,0.3-2.9,0.4-4.2c0.1-1.3,0.1-2.4,0-3.2c-0.1-0.6-0.3-1.1-0.8-1.5c-0.5-0.3-1-0.5-1.6-0.5
		c-0.9,0-2,0.1-3.4,0.2c-1.4,0.1-2.9,0.2-4.4,0.3c-1.5,0.1-3,0.2-4.4,0.3c-1.4,0.1-2.6,0.1-3.5,0.1c-0.2,0-0.7,0-1.5,0.1
		c-0.8,0-1.8,0.1-3,0.2c-1.1,0.1-2.4,0.2-3.6,0.3c-1.3,0.1-2.5,0.2-3.6,0.3c-1.1,0.1-2.1,0.2-2.9,0.3c-0.8,0.1-1.3,0.2-1.5,0.3
		c-0.2,0.1-0.3,0.4-0.5,1c-0.2,0.5-0.3,1.2-0.5,2c-0.2,0.8-0.3,1.7-0.5,2.6c-0.1,1-0.3,1.9-0.4,2.9c-0.1,0.9-0.2,1.9-0.3,2.7
		c-0.1,0.9-0.1,1.6-0.2,2.2c-0.1,1.6-0.1,3.1-0.2,4.7c-0.1,1.5-0.2,2.9-0.4,4.1s-0.6,2.2-1.1,2.9c-0.5,0.7-1.3,1.1-2.2,1.1
		c-0.3,0-0.8-0.2-1.3-0.5c-0.5-0.4-1-0.8-1.5-1.3C8.7,71.5,8.3,71,8,70.4c-0.3-0.6-0.5-1.1-0.6-1.6c-0.1-0.5,0-1.1,0.1-1.8
		c0.1-0.7,0.2-1.3,0.4-2c0.2-0.7,0.3-1.4,0.5-2s0.3-1.2,0.4-1.6c0.4-1.7,0.8-3.7,1.1-6c0.4-2.3,0.8-4.7,1.1-7.3
		c0.4-2.6,0.7-5.3,1.1-8.2c0.4-2.9,0.7-5.8,1.1-8.7c0.3-2.9,0.7-5.9,1-8.8c0.3-2.9,0.6-5.8,0.9-8.6c0-0.3,0.1-0.7,0.3-1
		c0.2-0.4,0.4-0.7,0.7-1c0.3-0.3,0.7-0.5,1.1-0.6c0.4-0.1,0.8-0.2,1.3-0.1c1.3,0.2,2.2,0.7,2.8,1.3c0.6,0.6,1,1.4,1.1,2.5
		c0.2,1.8,0.1,3.8-0.3,5.9c-0.3,2.1-0.8,4.2-1.2,6.3c-0.5,2.1-0.9,4.2-1.3,6.3c-0.4,2.1-0.5,4-0.5,5.9c0,0.4,0.2,0.7,0.6,0.9
		c0.3,0.2,0.8,0.4,1.2,0.5c0.5,0.1,1,0.2,1.5,0.2c0.5,0,0.9,0,1.3,0c0.6,0,1.6,0,3.2-0.1c1.6-0.1,3.4-0.1,5.5-0.3
		c2.1-0.1,4.3-0.3,6.6-0.5c2.3-0.2,4.5-0.4,6.5-0.7s3.7-0.6,5.1-1c1.4-0.4,2.2-0.8,2.5-1.3c0.2-0.3,0.4-0.9,0.6-1.8
		c0.2-0.9,0.5-2.1,0.7-3.5c0.3-1.4,0.5-3,0.7-4.7c0.2-1.7,0.5-3.6,0.7-5.5c0.2-1.9,0.4-3.9,0.5-6s0.2-4.1,0.2-6
		c0-0.2,0.1-0.5,0.3-0.9c0.2-0.4,0.5-0.7,0.9-1.1c0.4-0.3,0.8-0.6,1.3-0.9c0.5-0.3,1-0.4,1.6-0.4c0.4,0,0.8,0.1,1.3,0.2
		c0.5,0.1,0.9,0.3,1.3,0.5c0.4,0.2,0.8,0.5,1.1,0.9C64.9,8.2,65,8.7,65.1,9.2z"/>
	<path fill="#FFF200" stroke="#000000" stroke-miterlimit="10" d="M125.4,34.8c0,0.6-0.3,1.6-0.8,2.9c-0.5,1.3-1.3,2.9-2.2,4.6
		c-0.9,1.7-2,3.5-3.3,5.4c-1.3,1.9-2.6,3.7-4.1,5.4c-1.5,1.8-3.2,3.6-5,5.3c-1.9,1.7-3.9,3.2-6,4.6c-2.1,1.3-4.4,2.4-6.8,3.2
		c-2.4,0.8-4.8,1.2-7.3,1.2c-2.6,0-4.7-0.4-6.5-1.3c-1.8-0.9-3.3-2-4.4-3.4c-1.1-1.4-2-3-2.5-4.8c-0.5-1.8-0.8-3.6-0.8-5.5
		c0-1.7,0.2-3.4,0.5-5.1s0.8-3.4,1.4-5s1.3-3.2,2.1-4.7c0.8-1.5,1.7-2.9,2.8-4.2c0.6-0.8,1.4-1.7,2.3-2.6s2-1.8,3.1-2.5
		c1.2-0.8,2.4-1.4,3.8-1.9s2.8-0.8,4.3-0.8c1.1,0,2,0.2,2.8,0.6c0.8,0.4,1.5,0.9,2,1.5c0.5,0.6,1,1.3,1.2,2.1
		c0.3,0.8,0.4,1.5,0.4,2.3c0,1.6-0.3,3.1-0.9,4.6c-0.6,1.5-1.5,3-2.9,4.5c-1.3,1.6-3.1,3.2-5.2,4.9c-2.1,1.7-4.8,3.6-7.9,5.7
		c-0.2,0.1-0.5,0.3-0.8,0.5c-0.3,0.2-0.7,0.4-1,0.7c-0.3,0.3-0.6,0.5-0.9,0.8c-0.3,0.3-0.4,0.5-0.4,0.7c0,0.7,0.1,1.5,0.4,2.3
		s0.7,1.6,1.3,2.3c0.6,0.7,1.5,1.3,2.6,1.8c1.1,0.5,2.5,0.7,4.2,0.7c1.2,0,2.4-0.2,3.7-0.5c1.3-0.3,2.6-0.7,3.9-1.3
		c1.3-0.5,2.6-1.2,3.8-2c1.3-0.8,2.4-1.6,3.6-2.5c1.5-1.2,3-2.6,4.5-4.2c1.5-1.6,3-3.3,4.4-5.1s2.8-3.8,4.1-5.8
		c1.3-2,2.5-4.1,3.6-6.2c0.3-0.6,0.6-1,1-1.2c0.4-0.2,0.7-0.3,0.9-0.3c0.3,0,0.6,0.2,0.7,0.6C125.4,33.4,125.4,34,125.4,34.8z
		 M96.6,33.5c0-0.3-0.1-0.6-0.3-0.8c-0.2-0.3-0.4-0.5-0.6-0.7c-0.3-0.2-0.5-0.4-0.8-0.5c-0.3-0.1-0.5-0.2-0.7-0.2
		c-1,0-2.2,0.4-3.5,1.3c-1.3,0.9-2.5,2.1-3.6,3.6c-1.2,1.5-2.2,3.4-3.1,5.6c-0.9,2.2-1.5,4.5-1.8,7.1c0.4-0.2,1-0.7,1.9-1.4
		c0.9-0.7,1.8-1.5,2.9-2.3c1-0.9,2-1.7,3-2.6s1.8-1.6,2.4-2.3c0.7-0.8,1.4-1.5,1.9-2.1c0.5-0.6,1-1.2,1.3-1.7c0.3-0.5,0.6-1,0.7-1.5
		S96.6,33.9,96.6,33.5z"/>
	<path fill="#FFF200" stroke="#000000" stroke-miterlimit="10" d="M157.5,44.6c0,0.4-0.3,1.1-0.8,2.1c-0.5,1-1.2,2.2-2.2,3.5
		c-0.9,1.3-2,2.8-3.3,4.4c-1.3,1.6-2.6,3.2-4.1,4.8c-1.5,1.6-3,3.2-4.6,4.7c-1.6,1.5-3.3,2.8-4.9,4c-1.7,1.2-3.3,2.1-4.9,2.8
		c-1.6,0.7-3.2,1-4.6,1c-2,0-3.6-0.4-4.8-1.1c-1.2-0.7-2.2-1.7-2.9-2.9c-0.7-1.2-1.2-2.6-1.4-4.1c-0.3-1.5-0.4-3.1-0.4-4.8
		c0-1,0.1-2.4,0.2-4.3c0.1-1.9,0.4-4.1,0.7-6.5c0.3-2.4,0.7-5,1.1-7.8c0.4-2.8,1-5.6,1.5-8.3c0.6-2.7,1.2-5.4,2-7.9
		c0.7-2.5,1.5-4.8,2.4-6.7c0.9-1.9,1.8-3.5,2.8-4.6c1-1.2,2.1-1.7,3.2-1.7c0.5,0,0.8,0.3,1,0.8c0.2,0.5,0.3,1.4,0.3,2.6
		c0,0-0.1,0.4-0.3,1.1c-0.2,0.7-0.5,1.5-0.8,2.6c-0.3,1-0.7,2.2-1.1,3.4c-0.4,1.2-0.8,2.4-1.1,3.5c-0.3,1.1-0.6,2-0.9,2.8
		c-0.3,0.8-0.4,1.3-0.5,1.5c-1.5,5-2.6,10-3.5,14.9c-0.8,4.9-1.2,9.5-1.2,13.7c0,1.3,0.1,2.4,0.4,3.2c0.3,0.9,0.7,1.6,1.2,2.1
		c0.5,0.5,1.1,0.9,1.7,1.2c0.7,0.3,1.4,0.4,2.1,0.4c1,0,2.2-0.3,3.4-0.8c1.3-0.5,2.6-1.3,3.9-2.2c1.3-0.9,2.7-2,4.1-3.2
		c1.4-1.2,2.8-2.5,4.2-3.9s2.7-2.7,3.9-4.2c1.3-1.4,2.4-2.8,3.5-4.1c0.3-0.3,0.6-0.6,0.9-1c0.3-0.3,0.7-0.6,1-0.9
		c0.4-0.3,0.7-0.5,1-0.7c0.3-0.2,0.6-0.3,0.8-0.3C157.3,43.8,157.5,44,157.5,44.6z"/>
	<path fill="#FFF200" stroke="#000000" stroke-miterlimit="10" d="M189.5,47.1c0,1.3-0.8,3.2-2.3,5.9c-0.3,0.5-0.7,1.1-1.2,1.8
		c-0.5,0.7-1.1,1.4-1.7,2.2s-1.3,1.5-2,2.3c-0.7,0.8-1.4,1.5-2,2.2c-1,1-2.1,2-3.3,3s-2.5,1.8-3.8,2.6c-1.3,0.8-2.7,1.4-4.2,1.9
		c-1.4,0.5-2.8,0.7-4.2,0.7c-1.8,0-3.6-0.3-5.2-1c-1.6-0.7-3-1.7-4.2-3.1c-1.2-1.4-2.1-3.1-2.8-5.2c-0.7-2.1-1-4.6-1-7.4
		c0-1.9,0.1-4,0.3-6.1c0.2-2.1,0.4-4.3,0.7-6.4c0.3-2.1,0.6-4.3,1-6.3c0.4-2.1,0.7-4.1,1.1-6.1c0.2-1.3,0.4-2.4,0.6-3.3
		c0.2-0.9,0.3-1.6,0.5-2.4c0.1-0.7,0.3-1.4,0.4-2.2c0.1-0.7,0.2-1.6,0.4-2.7c0.1-0.7,0.2-1.4,0.3-2c0.1-0.6,0.2-1,0.2-1.4
		c0.1-0.6,0.3-1.3,0.5-1.8c0.3-0.6,0.6-1.1,1-1.6c0.4-0.5,0.8-0.8,1.3-1.1c0.5-0.3,1.1-0.4,1.7-0.4c1.3,0,2.2,0.6,2.8,1.8
		c-0.2,0.8-0.3,1.6-0.5,2.4c-0.2,0.8-0.3,1.6-0.5,2.4c-0.7,3.4-1.2,6.1-1.6,8.2c-0.4,2.1-0.7,3.6-0.9,4.4c-0.3,1.7-0.7,3.5-1,5.4
		c-0.4,1.9-0.7,3.9-1,6c-0.3,2-0.6,4-0.7,6c-0.2,2-0.3,3.8-0.3,5.5c0,1.8,0.1,3.5,0.4,5c0.3,1.5,0.8,2.8,1.4,3.9
		c0.7,1.1,1.5,1.9,2.5,2.5c1,0.6,2.3,0.9,3.7,0.9c1.6,0,3.2-0.4,4.7-1.1c1.5-0.7,3-1.6,4.5-2.7c1.4-1.1,2.8-2.3,4.1-3.6
		s2.5-2.6,3.5-3.8c0.9-1,1.6-1.9,2.2-2.6c0.6-0.7,1.2-1.4,1.6-1.9c0.3-0.4,0.7-0.8,1.2-1.2c0.4-0.4,0.8-0.6,1.2-0.6
		C189.2,46,189.5,46.3,189.5,47.1z"/>
	<path fill="#FFF200" stroke="#000000" stroke-miterlimit="10" d="M219.8,44.6c0,0.9,0,1.7-0.1,2.4c-0.1,0.8-0.2,1.5-0.4,2.2
		s-0.4,1.4-0.6,2.2c-0.3,0.7-0.6,1.5-1,2.3c-0.4,0.8-1.1,1.8-2,3c-1,1.1-2.2,2.3-3.5,3.6c-1.4,1.2-2.9,2.4-4.5,3.6
		c-1.6,1.2-3.3,2.3-5,3.2s-3.3,1.7-4.9,2.3c-1.6,0.6-3.1,0.9-4.4,0.9c-1.8,0-3.4-0.3-4.7-0.9c-1.3-0.6-2.4-1.4-3.3-2.4
		c-0.9-1-1.5-2.1-2-3.3c-0.4-1.3-0.7-2.5-0.7-3.8c0-0.9,0.1-1.8,0.3-2.9c0.2-1.1,0.5-2.2,0.8-3.4c0.3-1.2,0.8-2.4,1.2-3.6
		c0.5-1.2,1-2.4,1.5-3.5c0.5-1.1,1.1-2.2,1.6-3.1s1.1-1.8,1.6-2.4c0.9-1.2,2.1-2.3,3.4-3.4c1.3-1.1,2.8-2.1,4.3-3
		c1.6-0.9,3.3-1.6,5.1-2.1c1.8-0.5,3.7-0.8,5.6-0.8c1.4,0,2.9,0.4,4.2,1.1c1.4,0.7,2.6,1.7,3.7,2.9c1.1,1.2,2,2.6,2.6,4.2
		C219.4,41.3,219.8,42.9,219.8,44.6z M213.5,45.8c0-2.6-0.8-4.7-2.3-6.2c-1.5-1.5-3.7-2.2-6.5-2.2c-1,0-1.9,0.3-2.9,0.8
		c-1,0.5-1.9,1.1-2.8,1.9c-0.9,0.7-1.7,1.5-2.5,2.4c-0.8,0.8-1.4,1.6-1.9,2.3c-0.5,0.7-1.1,1.6-1.7,2.8c-0.6,1.2-1.2,2.5-1.7,3.8
		c-0.5,1.3-1,2.7-1.4,4c-0.4,1.3-0.5,2.5-0.5,3.5c0,0.6,0.1,1.2,0.4,1.9c0.2,0.6,0.6,1.2,1,1.7c0.4,0.5,1,0.9,1.6,1.2
		c0.6,0.3,1.3,0.5,2,0.5c0.8,0,1.8-0.2,3.1-0.7s2.6-1.1,4-2c1.4-0.8,2.9-1.8,4.3-3s2.7-2.4,3.9-3.8c1.2-1.4,2.1-2.8,2.8-4.3
		C213.2,48.8,213.5,47.3,213.5,45.8z"/>
</g>
</svg>
