<?xml version="1.0" encoding="utf-8"?>
<!-- Generator: Adobe Illustrator 22.1.0, SVG Export Plug-In . SVG Version: 6.00 Build 0)  -->
<svg version="1.1" id="Layer_1" xmlns="http://www.w3.org/2000/svg" xmlns:xlink="http://www.w3.org/1999/xlink" x="0px" y="0px"
	 width="184.5px" height="106.1px" viewBox="0 0 184.5 106.1" enable-background="new 0 0 184.5 106.1" xml:space="preserve">
<g>
	<g>
		<g>
			<path fill="#9C1B49" d="M46.3,14c0,0-3.4,4.8-1.3,9.4c2.4,5.3,25.8,25.9,25.8,25.9l5.1-6L46.3,14z"/>
			<g>
				<path fill="#E64553" d="M76.8,47.5l34.7-14c0,0-24.2-17.5-37.6-24.8c-13.4-7.2-28.7,0.5-29,10.1S76.8,47.5,76.8,47.5z"/>
			</g>
		</g>
		<path fill="#9BA3B3" d="M120.4,68.6l-1.7,4.2c0,0-26.9,11.9-62.4,6.7c-35.4-5.2-36.8-22.3-36.8-22.3l41.8,0.3L120.4,68.6z"/>
		<path fill="#CFDAEC" d="M58.3,32.8c19.9-9.7,73-20.2,84.2-16.5c11.3,3.6,13,8.4,20.5,10.6c3.2,1,6.2,2.1,8.4,3.1
			c5.7,2.6,7.3,10,3.1,14.6c-8.3,9-30.5,18.1-55.9,28.2C81.7,87.5,71.5,67,71.5,67c-9.9-2.2-49.4-1.6-52-9.9
			C16.6,47.7,42.4,40.6,58.3,32.8z"/>
		<path fill="#BFCADA" d="M126.4,57.2c-17.9,1.2-40.4,6.5-54.7,10.3c1.8,3,13.4,18.6,47,5.3c25.4-10.1,47.6-19.2,55.9-28.2
			c0.3-0.3,0.5-0.6,0.7-0.8C164,48.8,144.8,56,126.4,57.2z"/>
		<path fill="#798696" d="M19.5,57.2c1,6.7,7.8,12.3,13.9,15.4C55,84,93.2,82.4,117.2,73.3c22.9-9.1,46.2-18,57.4-28.6
			c-11.9,11.5-37,20.7-57.3,28.9c-29.4,11.3-83,10.7-96-11.4C20.5,60.6,19.7,58.9,19.5,57.2z"/>
		<path fill="#DAE1F2" d="M132.5,46l2.7-0.7c1.7-0.5,2.8-2.3,2.3-4l-2.9-10.8c-0.5-1.7-2.3-2.8-4-2.3l-2.7,0.7
			c-1.7,0.5-2.8,2.3-2.3,4l2.9,10.8C128.9,45.4,130.7,46.4,132.5,46z"/>
		<path fill="#CFDAEC" d="M132.5,45.4l2.2-0.6c1.6-0.4,2.6-2.1,2.1-3.7l-2.8-10.4c-0.4-1.6-2.1-2.6-3.7-2.1l-2.2,0.6
			c-1.6,0.4-2.6,2.1-2.1,3.7l2.8,10.4C129.3,44.9,130.9,45.9,132.5,45.4z"/>
		<polygon fill="#9BA3B3" points="28.1,54.4 21.5,51 9.2,21.2 11.5,20.3 		"/>
		<path fill="#CFDAEC" d="M60.4,45.4c0,0-13.4-19.6-21.6-22.7c-8.3-3.1-27.4-2.4-27.4-2.4l16.7,34.1C28.1,54.4,52.5,52.1,60.4,45.4z
			"/>
		<path fill="#CD2927" d="M16.1,29.8L34,28c0.6-0.1,1-0.6,1-1.2c-0.1-0.6-0.6-1-1.2-1l-18.6,2L16.1,29.8z"/>
		<path fill="#CD2927" d="M18.5,34.7L40,32.2c0.6-0.1,1-0.6,1-1.2c-0.1-0.6-0.6-1-1.2-1l-22.2,2.6L18.5,34.7z"/>
		<path fill="#CD2927" d="M21,39.8l25.4-3.1c0.6-0.1,1-0.6,1-1.2c-0.1-0.6-0.6-1-1.2-1L20,37.7L21,39.8z"/>
		<path opacity="0.36" fill="#E0EAF7" d="M22.2,23.7c5.8-0.1,12.6,0.4,17.8,3.2c6.3,3.3,11.5,10.6,14.6,12.7
			c1.9,1.3,7.9-1.2,9.8-1.7c6.7-1.8,13.4-3.8,20-5.8c12.1-3.6,24-8.3,36.6-10.1c8.3-1.2,19.4-1.6,26.6,3.4c-1.3-0.9-5.2-0.6-6.8-0.7
			c-9-0.5-17.9,0.6-26.6,3.1c-8.5,2.5-16.7,6.2-25.2,8.6c-6.9,2-13.9,3.7-21,5.1c-5.7,1.1-13.1,3.7-18.2-0.2
			c-2.3-1.7-3.9-4.1-5.8-6.2C38.5,28.8,30.5,24.7,22.2,23.7z"/>
		<path fill="#777F91" d="M157.1,39.9c4.7-1,6.8-6.9,7.2-12.7c-0.4-0.1-0.8-0.2-1.2-0.4c-5.8-1.7-8.1-5-14.2-8c0,2.4,0.1,5.5-1,7.8
			c-1.2,2.7-1.9,5.6-0.6,8.2C148.9,38,151.9,41.1,157.1,39.9z"/>
		<path fill="#9C1B49" d="M101.2,68.2l-12-2l0.5,3.8c0,0,31.1,23.4,35.2,25.7c9.1,5.3,19.6,2.4,25.6-3.6c0.6-0.6,2.5-2.9,2.5-2.9
			L101.2,68.2z"/>
		<g>
			<path fill="#E64553" d="M124.7,52.8L89.3,66.2c0,0,23.4,18.8,36.5,26.7c13.1,7.9,28.8,0.3,29.6-9.7
				C156.2,73.2,124.7,52.8,124.7,52.8z"/>
		</g>
		<g>
			<path fill="#DAE1F2" d="M73.4,51.9c-0.1,3.1,2.4,5.7,5.5,5.7c3.1,0.1,5.7-2.4,5.7-5.5c0.1-3.1-2.4-5.7-5.5-5.7
				C76,46.3,73.4,48.8,73.4,51.9z"/>
			<path fill="#8F95A8" d="M74.5,51.9c-0.1,2.4,1.9,4.5,4.3,4.5c2.4,0.1,4.5-1.9,4.5-4.3c0.1-2.4-1.9-4.5-4.3-4.5
				C76.6,47.5,74.6,49.5,74.5,51.9z"/>
			<path fill="#8F95A8" d="M79.5,47c0,0.1-0.1,0.2-0.2,0.2c-0.1,0-0.2-0.1-0.2-0.2c0-0.1,0.1-0.2,0.2-0.2
				C79.4,46.8,79.5,46.9,79.5,47z"/>
			<circle fill="#8F95A8" cx="75.7" cy="48.2" r="0.2"/>
			<path fill="#8F95A8" d="M74.2,51.1c0,0.1-0.1,0.2-0.2,0.2c-0.1,0-0.2-0.1-0.2-0.2c0-0.1,0.1-0.2,0.2-0.2
				C74.1,50.9,74.2,51,74.2,51.1z"/>
			<path fill="#8F95A8" d="M74.8,54.5c0,0.1-0.1,0.2-0.2,0.2c-0.1,0-0.2-0.1-0.2-0.2c0-0.1,0.1-0.2,0.2-0.2
				C74.7,54.2,74.8,54.3,74.8,54.5z"/>
			<path fill="#8F95A8" d="M77,56.6c0,0.1-0.1,0.2-0.2,0.2c-0.1,0-0.2-0.1-0.2-0.2c0-0.1,0.1-0.2,0.2-0.2C76.9,56.3,77,56.4,77,56.6
				z"/>
			<path fill="#8F95A8" d="M80,57c0,0.1-0.1,0.2-0.2,0.2c-0.1,0-0.2-0.1-0.2-0.2c0-0.1,0.1-0.2,0.2-0.2C79.9,56.8,80,56.9,80,57z"/>
			<path fill="#8F95A8" d="M82.5,55.7c0,0.1-0.1,0.3-0.3,0.3c-0.1,0-0.3-0.1-0.3-0.3c0-0.1,0.1-0.2,0.3-0.2
				C82.4,55.5,82.5,55.6,82.5,55.7z"/>
			<path fill="#8F95A8" d="M84,53.5c0,0.1-0.1,0.2-0.2,0.2c-0.1,0-0.2-0.1-0.2-0.2s0.1-0.2,0.2-0.2C83.9,53.2,84,53.3,84,53.5z"/>
			<path fill="#8F95A8" d="M83.9,50.2c0,0.1-0.1,0.2-0.2,0.2s-0.2-0.1-0.2-0.2s0.1-0.2,0.2-0.2S83.9,50.1,83.9,50.2z"/>
			<path fill="#8F95A8" d="M81.7,47.7c0,0.1-0.1,0.2-0.2,0.2c-0.1,0-0.2-0.1-0.2-0.2c0-0.1,0.1-0.2,0.2-0.2
				C81.7,47.6,81.7,47.7,81.7,47.7z"/>
		</g>
		<g>
			<path fill="#DAE1F2" d="M90.5,46.4c-0.1,3.1,2.4,5.7,5.5,5.7c3.1,0.1,5.7-2.4,5.7-5.5c0.1-3.1-2.4-5.7-5.5-5.7
				C93.1,40.9,90.6,43.4,90.5,46.4z"/>
			<path fill="#8F95A8" d="M91.7,46.5c-0.1,2.4,1.9,4.5,4.3,4.5c2.4,0.1,4.5-1.9,4.5-4.3c0.1-2.4-1.9-4.5-4.3-4.5
				C93.8,42.1,91.7,44,91.7,46.5z"/>
			<path fill="#8F95A8" d="M96.7,41.6c0,0.1-0.1,0.2-0.2,0.2c-0.1,0-0.2-0.1-0.2-0.2c0-0.1,0.1-0.2,0.2-0.2
				C96.6,41.3,96.7,41.4,96.7,41.6z"/>
			<path fill="#8F95A8" d="M93.1,42.8c0,0.1-0.1,0.2-0.2,0.2c-0.1,0-0.2-0.1-0.2-0.2s0.1-0.2,0.2-0.2C93,42.5,93.1,42.6,93.1,42.8z"
				/>
			<path fill="#8F95A8" d="M91.4,45.7c0,0.1-0.1,0.2-0.2,0.2s-0.2-0.1-0.2-0.2c0-0.1,0.1-0.2,0.2-0.2S91.4,45.6,91.4,45.7z"/>
			<path fill="#8F95A8" d="M91.9,49c0,0.1-0.1,0.2-0.2,0.2c-0.1,0-0.2-0.1-0.2-0.2c0-0.1,0.1-0.2,0.2-0.2
				C91.8,48.8,91.9,48.9,91.9,49z"/>
			<path fill="#8F95A8" d="M94.2,51.2c0,0.1-0.1,0.2-0.2,0.2c-0.1,0-0.2-0.1-0.2-0.2c0-0.1,0.1-0.2,0.2-0.2
				C94,50.9,94.2,51,94.2,51.2z"/>
			<path fill="#8F95A8" d="M97.1,51.6c0,0.1-0.1,0.2-0.2,0.2c-0.1,0-0.2-0.1-0.2-0.2c0-0.1,0.1-0.2,0.2-0.2
				C97,51.4,97.1,51.5,97.1,51.6z"/>
			<circle fill="#8F95A8" cx="99.4" cy="50.3" r="0.3"/>
			<path fill="#8F95A8" d="M101.1,48.1c0,0.1-0.1,0.2-0.2,0.2c-0.1,0-0.2-0.1-0.2-0.2s0.1-0.2,0.2-0.2
				C101,47.8,101.1,47.9,101.1,48.1z"/>
			<path fill="#8F95A8" d="M101,44.8c0,0.1-0.1,0.2-0.2,0.2c-0.1,0-0.2-0.1-0.2-0.2c0-0.1,0.1-0.2,0.2-0.2
				C100.9,44.6,101,44.7,101,44.8z"/>
			<path fill="#8F95A8" d="M98.9,42.3c0,0.1-0.1,0.2-0.2,0.2c-0.1,0-0.2-0.1-0.2-0.2c0-0.1,0.1-0.2,0.2-0.2
				C98.8,42.2,98.9,42.2,98.9,42.3z"/>
		</g>
		<g>
			<path fill="#DAE1F2" d="M106.5,39.8c-0.1,3.1,2.4,5.7,5.5,5.7c3.1,0.1,5.7-2.4,5.7-5.5c0.1-3.1-2.4-5.7-5.5-5.7
				C109.2,34.2,106.6,36.7,106.5,39.8z"/>
			<path fill="#8F95A8" d="M107.7,39.8c-0.1,2.4,1.9,4.5,4.3,4.5c2.4,0.1,4.5-1.9,4.5-4.3c0.1-2.4-1.9-4.5-4.3-4.5
				C109.8,35.4,107.8,37.3,107.7,39.8z"/>
			<path fill="#8F95A8" d="M112.7,34.9c0,0.1-0.1,0.2-0.2,0.2s-0.2-0.1-0.2-0.2c0-0.1,0.1-0.2,0.2-0.2S112.7,34.7,112.7,34.9z"/>
			<circle fill="#8F95A8" cx="108.9" cy="36.1" r="0.2"/>
			<path fill="#8F95A8" d="M107.4,39c0,0.1-0.1,0.2-0.2,0.2c-0.1,0-0.2-0.1-0.2-0.2c0-0.1,0.1-0.2,0.2-0.2
				C107.3,38.8,107.4,38.9,107.4,39z"/>
			<path fill="#8F95A8" d="M108,42.4c0,0.1-0.1,0.2-0.2,0.2c-0.1,0-0.2-0.1-0.2-0.2s0.1-0.2,0.2-0.2C107.9,42.1,108,42.2,108,42.4z"
				/>
			<path fill="#8F95A8" d="M110.2,44.5c0,0.1-0.1,0.2-0.2,0.2c-0.1,0-0.2-0.1-0.2-0.2c0-0.1,0.1-0.2,0.2-0.2
				C110.1,44.2,110.2,44.3,110.2,44.5z"/>
			<path fill="#8F95A8" d="M113.2,44.9c0,0.1-0.1,0.2-0.2,0.2c-0.1,0-0.2-0.1-0.2-0.2c0-0.1,0.1-0.2,0.2-0.2
				C113.1,44.7,113.2,44.8,113.2,44.9z"/>
			<path fill="#8F95A8" d="M115.7,43.6c0,0.1-0.1,0.3-0.3,0.3c-0.1,0-0.3-0.1-0.3-0.3c0-0.1,0.1-0.2,0.3-0.2
				C115.6,43.4,115.7,43.5,115.7,43.6z"/>
			<path fill="#8F95A8" d="M117.1,41.4c0,0.1-0.1,0.2-0.2,0.2s-0.2-0.1-0.2-0.2c0-0.1,0.1-0.2,0.2-0.2S117.1,41.2,117.1,41.4z"/>
			<path fill="#8F95A8" d="M117,38.1c0,0.1-0.1,0.2-0.2,0.2s-0.2-0.1-0.2-0.2s0.1-0.2,0.2-0.2S117,38,117,38.1z"/>
			<path fill="#8F95A8" d="M114.9,35.6c0,0.1-0.1,0.2-0.2,0.2c-0.1,0-0.2-0.1-0.2-0.2c0-0.1,0.1-0.2,0.2-0.2
				C114.8,35.5,114.9,35.5,114.9,35.6z"/>
		</g>
		<g>
			
				<rect x="126.3" y="34.2" transform="matrix(0.9619 -0.2733 0.2733 0.9619 -4.4835 37.0464)" fill="#DAE1F2" width="8.8" height="0.9"/>
		</g>
		<g>
			<rect x="128.1" y="40.7" transform="matrix(0.96 -0.28 0.28 0.96 -6.2137 38.7442)" fill="#DAE1F2" width="8.8" height="0.9"/>
		</g>
	</g>
	<path fill="#F04F5C" d="M134.2,88.4c12.2,1.5,14-9.5,9.6-13.9c-4.4-4.4-19-16.6-19-16.6L102,67.9C102,67.9,122,86.8,134.2,88.4z"/>
	<path fill="#F04F5C" d="M60.2,8.9c0,0-8.5,0-9.6,5.3c-1,5.3,12,13.4,12,13.4l17.5-7.3C80.2,20.4,66.1,8.9,60.2,8.9z"/>
</g>
</svg>
