<?xml version="1.0" encoding="utf-8"?>
<!-- Generator: Adobe Illustrator 22.1.0, SVG Export Plug-In . SVG Version: 6.00 Build 0)  -->
<svg version="1.1" xmlns="http://www.w3.org/2000/svg" xmlns:xlink="http://www.w3.org/1999/xlink" x="0px" y="0px" width="342.6px"
	 height="898.1px" viewBox="0 0 342.6 898.1" enable-background="new 0 0 342.6 898.1" xml:space="preserve">
<g id="Layer_1">
</g>
<g id="Layer_2">
	<g>
		<path fill="#0BADA2" d="M329.8,138.9l-13.3,6.6c-91.7,45.2-199.2,45.2-290.8,0l-13.3-6.6V35.3h317.5V138.9z"/>
		<g>
			<path fill="#F6F6F6" d="M329.8,875.4c0,11-8.9,19.8-19.8,19.8H171H32.1c-11,0-19.8-8.9-19.8-19.8V35.3h317.5V875.4z"/>
			<path fill="#DBDAD9" d="M329.8,138.9l-13.3,6.6c-91.7,45.2-199.2,45.2-290.8,0l-13.3-6.6V35.3h317.5V138.9z"/>
		</g>
		<path fill="#0BADA2" d="M171,164.2c-51.5,0-103.1-12-149.2-34.8l-18.2-9V24.5c0-12,9.7-21.6,21.6-21.6h291.5
			c12,0,21.6,9.7,21.6,21.6v95.9l-18.2,9C274.1,152.2,222.5,164.2,171,164.2z"/>
		<g>
			
				<line fill="none" stroke="#0BADA2" stroke-width="1.3119" stroke-linecap="round" stroke-linejoin="round" stroke-miterlimit="10" x1="75.4" y1="215.7" x2="266.6" y2="215.7"/>
			
				<line fill="none" stroke="#0BADA2" stroke-width="1.3119" stroke-linecap="round" stroke-linejoin="round" stroke-miterlimit="10" x1="75.4" y1="261.1" x2="266.6" y2="261.1"/>
			
				<line fill="none" stroke="#0BADA2" stroke-width="1.3119" stroke-linecap="round" stroke-linejoin="round" stroke-miterlimit="10" x1="75.4" y1="306.5" x2="266.6" y2="306.5"/>
			
				<line fill="none" stroke="#0BADA2" stroke-width="1.3119" stroke-linecap="round" stroke-linejoin="round" stroke-miterlimit="10" x1="75.4" y1="351.9" x2="266.6" y2="351.9"/>
			<g>
				
					<line fill="none" stroke="#0BADA2" stroke-width="1.3119" stroke-linecap="round" stroke-linejoin="round" stroke-miterlimit="10" x1="75.4" y1="446.7" x2="266.6" y2="446.7"/>
				
					<line fill="none" stroke="#0BADA2" stroke-width="1.3119" stroke-linecap="round" stroke-linejoin="round" stroke-miterlimit="10" x1="75.4" y1="492.1" x2="266.6" y2="492.1"/>
				
					<line fill="none" stroke="#0BADA2" stroke-width="1.3119" stroke-linecap="round" stroke-linejoin="round" stroke-miterlimit="10" x1="75.4" y1="537.5" x2="266.6" y2="537.5"/>
				
					<line fill="none" stroke="#0BADA2" stroke-width="1.3119" stroke-linecap="round" stroke-linejoin="round" stroke-miterlimit="10" x1="75.4" y1="582.9" x2="266.6" y2="582.9"/>
			</g>
			<g>
				
					<line fill="none" stroke="#0BADA2" stroke-width="1.3119" stroke-linecap="round" stroke-linejoin="round" stroke-miterlimit="10" x1="75.4" y1="661.3" x2="266.6" y2="661.3"/>
				
					<line fill="none" stroke="#0BADA2" stroke-width="1.3119" stroke-linecap="round" stroke-linejoin="round" stroke-miterlimit="10" x1="75.4" y1="706.7" x2="266.6" y2="706.7"/>
				
					<line fill="none" stroke="#0BADA2" stroke-width="1.3119" stroke-linecap="round" stroke-linejoin="round" stroke-miterlimit="10" x1="75.4" y1="752.1" x2="266.6" y2="752.1"/>
				
					<line fill="none" stroke="#0BADA2" stroke-width="1.3119" stroke-linecap="round" stroke-linejoin="round" stroke-miterlimit="10" x1="75.4" y1="797.5" x2="266.6" y2="797.5"/>
			</g>
		</g>
		<g>
			<circle fill="#49B5AC" cx="74" cy="69" r="52.8"/>
		</g>
	</g>
</g>
</svg>
