# Blender v2.79 (sub 0) OBJ File: ''
# www.blender.org
mtllib base.mtl
o Cylinder
v 0.000000 -124.999992 -150.000000
v 0.000000 125.000008 -150.000000
v 29.263548 125.000008 -147.117783
v 29.263548 -124.999992 -147.117783
v 57.402519 125.000008 -138.581924
v 57.402519 -124.999992 -138.581924
v 83.335533 125.000008 -124.720428
v 83.335533 -124.999992 -124.720444
v 106.066017 125.000008 -106.066010
v 106.066017 -124.999992 -106.066025
v 124.720451 125.000000 -83.335518
v 124.720451 -125.000000 -83.335533
v 138.581924 125.000000 -57.402512
v 138.581924 -125.000000 -57.402519
v 147.117783 125.000000 -29.263548
v 147.117783 -125.000000 -29.263559
v 150.000000 125.000000 -0.000006
v 150.000000 -125.000000 -0.000016
v 147.117798 125.000000 29.263536
v 147.117798 -125.000000 29.263525
v 138.581940 125.000000 57.402496
v 138.581940 -125.000000 57.402489
v 124.720451 125.000000 83.335533
v 124.720451 -125.000000 83.335518
v 106.066017 124.999992 106.066025
v 106.066017 -125.000008 106.066010
v 83.335526 124.999992 124.720459
v 83.335526 -125.000008 124.720444
v 57.402493 124.999992 138.581940
v 57.402493 -125.000008 138.581940
v 29.263514 124.999992 147.117798
v 29.263514 -125.000008 147.117798
v -0.000049 124.999992 150.000000
v -0.000049 -125.000008 150.000000
v -29.263609 124.999992 147.117783
v -29.263609 -125.000008 147.117783
v -57.402580 124.999992 138.581894
v -57.402580 -125.000008 138.581894
v -83.335609 124.999992 124.720406
v -83.335609 -125.000008 124.720390
v -106.066086 124.999992 106.065964
v -106.066086 -125.000008 106.065948
v -124.720505 125.000000 83.335457
v -124.720505 -125.000000 83.335442
v -138.581985 125.000000 57.402405
v -138.581985 -125.000000 57.402397
v -147.117813 125.000000 29.263424
v -147.117813 -125.000000 29.263412
v -150.000000 125.000000 -0.000140
v -150.000000 -125.000000 -0.000150
v -147.117767 125.000000 -29.263697
v -147.117767 -125.000000 -29.263708
v -138.581863 125.000000 -57.402668
v -138.581863 -125.000000 -57.402676
v -124.720345 125.000000 -83.335678
v -124.720345 -125.000000 -83.335693
v -106.065880 125.000008 -106.066139
v -106.065880 -124.999992 -106.066154
v -83.335365 125.000008 -124.720551
v -83.335365 -124.999992 -124.720566
v -57.402313 125.000008 -138.582016
v -57.402313 -124.999992 -138.582016
v -29.263323 125.000008 -147.117828
v -29.263323 -124.999992 -147.117828
vn 0.0980 0.0000 -0.9952
vn 0.2903 0.0000 -0.9569
vn 0.4714 0.0000 -0.8819
vn 0.6344 0.0000 -0.7730
vn 0.7730 0.0000 -0.6344
vn 0.8819 0.0000 -0.4714
vn 0.9569 0.0000 -0.2903
vn 0.9952 0.0000 -0.0980
vn 0.9952 0.0000 0.0980
vn 0.9569 -0.0000 0.2903
vn 0.8819 -0.0000 0.4714
vn 0.7730 -0.0000 0.6344
vn 0.6344 -0.0000 0.7730
vn 0.4714 -0.0000 0.8819
vn 0.2903 0.0000 0.9569
vn 0.0980 0.0000 0.9952
vn -0.0980 0.0000 0.9952
vn -0.2903 0.0000 0.9569
vn -0.4714 -0.0000 0.8819
vn -0.6344 -0.0000 0.7730
vn -0.7730 -0.0000 0.6344
vn -0.8819 -0.0000 0.4714
vn -0.9569 -0.0000 0.2903
vn -0.9952 -0.0000 0.0980
vn -0.9952 -0.0000 -0.0980
vn -0.9569 0.0000 -0.2903
vn -0.8819 0.0000 -0.4714
vn -0.7730 0.0000 -0.6344
vn -0.6344 0.0000 -0.7730
vn -0.4714 0.0000 -0.8819
vn -0.0000 1.0000 0.0000
vn -0.2903 0.0000 -0.9569
vn -0.0980 0.0000 -0.9952
vn 0.0000 -1.0000 -0.0000
usemtl None
s 1
f 1//1 2//1 3//1 4//1
f 4//2 3//2 5//2 6//2
f 6//3 5//3 7//3 8//3
f 8//4 7//4 9//4 10//4
f 10//5 9//5 11//5 12//5
f 12//6 11//6 13//6 14//6
f 14//7 13//7 15//7 16//7
f 16//8 15//8 17//8 18//8
f 18//9 17//9 19//9 20//9
f 20//10 19//10 21//10 22//10
f 22//11 21//11 23//11 24//11
f 24//12 23//12 25//12 26//12
f 26//13 25//13 27//13 28//13
f 28//14 27//14 29//14 30//14
f 30//15 29//15 31//15 32//15
f 32//16 31//16 33//16 34//16
f 34//17 33//17 35//17 36//17
f 36//18 35//18 37//18 38//18
f 38//19 37//19 39//19 40//19
f 40//20 39//20 41//20 42//20
f 42//21 41//21 43//21 44//21
f 44//22 43//22 45//22 46//22
f 46//23 45//23 47//23 48//23
f 48//24 47//24 49//24 50//24
f 50//25 49//25 51//25 52//25
f 52//26 51//26 53//26 54//26
f 54//27 53//27 55//27 56//27
f 56//28 55//28 57//28 58//28
f 58//29 57//29 59//29 60//29
f 60//30 59//30 61//30 62//30
f 3//31 2//31 63//31 61//31 59//31 57//31 55//31 53//31 51//31 49//31 47//31 45//31 43//31 41//31 39//31 37//31 35//31 33//31 31//31 29//31 27//31 25//31 23//31 21//31 19//31 17//31 15//31 13//31 11//31 9//31 7//31 5//31
f 62//32 61//32 63//32 64//32
f 64//33 63//33 2//33 1//33
f 1//34 4//34 6//34 8//34 10//34 12//34 14//34 16//34 18//34 20//34 22//34 24//34 26//34 28//34 30//34 32//34 34//34 36//34 38//34 40//34 42//34 44//34 46//34 48//34 50//34 52//34 54//34 56//34 58//34 60//34 62//34 64//34
