<?xml version="1.0" encoding="utf-8"?>
<!-- Generator: Adobe Illustrator 22.1.0, SVG Export Plug-In . SVG Version: 6.00 Build 0)  -->
<svg version="1.1" id="Layer_1" xmlns="http://www.w3.org/2000/svg" xmlns:xlink="http://www.w3.org/1999/xlink" x="0px" y="0px"
	 width="448.9px" height="458.8px" viewBox="0 0 448.9 458.8" style="enable-background:new 0 0 448.9 458.8;" xml:space="preserve"
	>
<g>
	<g>
		
			<circle style="fill:#0BADA2;stroke:#000000;stroke-width:14;stroke-linecap:round;stroke-miterlimit:10;" cx="224.5" cy="229.4" r="213.4"/>
	</g>
</g>
<g>
	<path d="M189.7,331.1h-70.4c-6.6,0-12-5.4-12-12V139.7c0-6.6,5.4-12,12-12h70.4c6.6,0,12,5.4,12,12v179.4
		C201.7,325.7,196.3,331.1,189.7,331.1z"/>
	<path d="M329.7,331.1h-70.4c-6.6,0-12-5.4-12-12V139.7c0-6.6,5.4-12,12-12h70.4c6.6,0,12,5.4,12,12v179.4
		C341.7,325.7,336.3,331.1,329.7,331.1z"/>
</g>
</svg>
