<?xml version="1.0" encoding="utf-8"?>
<!-- Generator: Adobe Illustrator 22.1.0, SVG Export Plug-In . SVG Version: 6.00 Build 0)  -->
<svg version="1.1" id="Layer_1" xmlns="http://www.w3.org/2000/svg" xmlns:xlink="http://www.w3.org/1999/xlink" x="0px" y="0px"
	 width="6000px" height="6000px" viewBox="0 0 6000 6000" enable-background="new 0 0 6000 6000" xml:space="preserve">
<g>
	<g>
		<ellipse fill="#FAA952" cx="3000" cy="3000" rx="2221.7" ry="2168"/>
		<path fill="#D67D28" d="M3000,832c-80.9,0-160.6,4.5-239.3,12.7c878.3,102.1,1559.4,830.9,1559.4,1715.5
			c0,954.4-792.9,1728.1-1770.9,1728.1c-906.4,0-1653.3-664.7-1757.9-1521.8c-8.4,76.7-13,154.6-13,233.5
			c0,1197.4,994.7,2168,2221.7,2168c1227,0,2221.7-970.7,2221.7-2168S4227,832,3000,832z"/>
		<path fill="#BB6B28" d="M2042.8,4956.9c519.9-92.3,1143.1-351.1,1759.6-759c644.8-426.7,1137.3-920.4,1411.4-1374.4
			c-9.9-119.3-29.3-236-58.2-349.1c-190.5,454-690.7,1033.4-1473.1,1551c-743.1,491.6-1444.8,732-1944.2,758.9
			C1834.6,4849.2,1936.3,4907.2,2042.8,4956.9z"/>
		<path fill="#E79731" d="M4761.7,1679.7C4620.4,2149.4,4101.2,2793,3241,3362.1c-848.1,561.1-1642.8,795.3-2143.6,757.9
			c45.5,73.5,95.8,143.8,149.7,211.3c30.9-0.7,62.1-2,94.1-4.2c563.9-39.8,1296.6-314,2019.7-792.4
			c774-512.1,1328.9-1120.9,1549.3-1641.6C4865,1818.9,4815.3,1747.7,4761.7,1679.7z"/>
		<g>
			<path fill="#BB6B28" d="M1680.2,4065.9c-220.3,48.6-417.7,66.5-582.7,54.2c22.7,36.6,46.6,72.4,71.5,107.5c0.3,0.5,0.7,0.9,1,1.4
				c24.8,34.9,50.6,69,77.2,102.4c30.9-0.7,62.1-2,94.1-4.2c197.5-14,416-57.3,647.2-127.4
				C1880.7,4164.5,1777.6,4119.5,1680.2,4065.9z"/>
			<path fill="#BB6B28" d="M4910.2,1893.1c-45.2-74.1-94.9-145.3-148.6-213.4c-66.4,220.7-217.3,480.1-446.8,751.9
				c3.2,42.5,5.3,85.3,5.3,128.6c0,65-4,129.1-11.2,192.3C4589.1,2459.5,4795.4,2164.3,4910.2,1893.1z"/>
		</g>
		<path fill="#E79731" d="M4420.9,1333.5c-55.7-45.3-113.7-88-173.8-127.9c-207.3,444.8-697.9,997.3-1447.5,1493.3
			c-756.4,500.5-1470,740.6-1970.9,760.2c15.4,69.8,34.3,138.4,56.4,205.5c4.9-0.3,9.7-0.4,14.7-0.8
			c563.9-39.8,1296.6-314,2019.7-792.4C3642.6,2392.9,4174.3,1830.1,4420.9,1333.5z"/>
		<g>
			<path fill="#BB6B28" d="M899.8,3663.9c83-5.9,170-17.4,259.7-33.3c-48.5-60-93.1-123.2-133.2-189.2
				c-68.9,9.4-134.9,15.3-197.5,17.8c0,0,0,0.1,0,0.1c7.7,34.9,16.3,69.4,25.7,103.7l0,0.1c9.4,34.2,19.6,68.1,30.7,101.7
				C890,3664.3,894.8,3664.2,899.8,3663.9z"/>
			<path fill="#BB6B28" d="M4014.5,1589.6c43.3,62.1,82.4,127.1,117.2,194.5c119.1-153.4,216.7-304.9,289.1-450.7
				c-55.7-45.3-113.7-88-173.8-127.9C4190.6,1326.7,4112.4,1455.9,4014.5,1589.6z"/>
		</g>
	</g>
</g>
</svg>
