<?xml version="1.0" encoding="UTF-8" standalone="no"?>
<svg
   xmlns:dc="http://purl.org/dc/elements/1.1/"
   xmlns:cc="http://creativecommons.org/ns#"
   xmlns:rdf="http://www.w3.org/1999/02/22-rdf-syntax-ns#"
   xmlns:svg="http://www.w3.org/2000/svg"
   xmlns="http://www.w3.org/2000/svg"
   xmlns:sodipodi="http://sodipodi.sourceforge.net/DTD/sodipodi-0.dtd"
   xmlns:inkscape="http://www.inkscape.org/namespaces/inkscape"
   id="svg2"
   height="3162.7pt"
   width="2948.3pt"
   version="1.1"
   viewBox="0 0 2948.3169 3162.7361"
   inkscape:version="0.91 r13725"
   sodipodi:docname="Spaceman-remix.svg">
  <metadata
     id="metadata1203673">
    <rdf:RDF>
      <cc:Work
         rdf:about="">
        <dc:format>image/svg+xml</dc:format>
        <dc:type
           rdf:resource="http://purl.org/dc/dcmitype/StillImage" />
        <dc:title></dc:title>
        <dc:creator>
          <cc:Agent>
            <dc:title>j4p4n</dc:title>
          </cc:Agent>
        </dc:creator>
        <cc:license
           rdf:resource="http://creativecommons.org/publicdomain/zero/1.0/" />
      </cc:Work>
      <cc:License
         rdf:about="http://creativecommons.org/publicdomain/zero/1.0/">
        <cc:permits
           rdf:resource="http://creativecommons.org/ns#Reproduction" />
        <cc:permits
           rdf:resource="http://creativecommons.org/ns#Distribution" />
        <cc:permits
           rdf:resource="http://creativecommons.org/ns#DerivativeWorks" />
      </cc:License>
    </rdf:RDF>
  </metadata>
  <defs
     id="defs1203671" />
  <sodipodi:namedview
     pagecolor="#ffffff"
     bordercolor="#666666"
     borderopacity="1"
     objecttolerance="10"
     gridtolerance="10"
     guidetolerance="10"
     inkscape:pageopacity="0"
     inkscape:pageshadow="2"
     inkscape:window-width="1916"
     inkscape:window-height="1035"
     id="namedview1203669"
     showgrid="false"
     inkscape:zoom="0.12061333"
     inkscape:cx="1476.0719"
     inkscape:cy="2625.7059"
     inkscape:window-x="4"
     inkscape:window-y="1"
     inkscape:window-maximized="1"
     inkscape:current-layer="g4342" />
  <g
     id="g4342">
    <g
       id="g1204229">
      <path
         inkscape:connector-curvature="0"
         id="path1204225"
         d="M 868.89395,138.16015 981.6522,177.9572 941.85519,257.55131 868.89395,231.01994 Z"
         style="fill:#161616;fill-rule:evenodd;stroke:none;stroke-width:0.80000913px;stroke-linecap:butt;stroke-linejoin:miter;stroke-opacity:1;fill-opacity:1" />
      <path
         fill="#bacddb"
         d="m828.13-0.000097656c-9.7 0.78-15.43 10.46-18.44 18.68-165.77 580.93-327.57 1163-493.12 1744-24.87 2.48-54.781 2.5003-74.841 21.02-12.7 11.55-17.8 28.309-23.23 43.889-25.56 3.47-31.18 32.411-38.18 52.691-14.97 29.67-28.17 61.82-25.97 95.75 0.5 41.38 12.74 88.58 49.82 111.93 7.96 45.44-19.851 87.351-17.141 132.86-61.86 220.52-124.74 440.79-186.84 661.25-0.98 9.55 1.7003 22.59 12.57 25.33 30.42 9.29 61.26 17.19 91.73 26.35 8.89 2.84 19.39-1.7904 22.77-10.67 50.67-179.22 100.97-358.69 152.24-537.66 33.88 30.08 80.7 39.419 124.88 36.109 39.62 5.71 77.691-14.95 104.79-42.4 25.48-23.69 50.9-47.96 80.32-66.68-6.32 26.25 4.5794 58.38 31.509 67.9 1.96 50.27-0.459 101.43-9.589 151.03-19.7 58.99 4.72 119.88 2.1 179.88-1.2 13.92 15.1 17.94 20.9 28.43 24.85 37.02 27.18 83.2 37.58 125.42 7.95 61.95 49.19 113.24 92.8 155.19 22.41 24.18 54.219 41.989 88.139 37.689 28.89-4.32 58.051-10.42 83.581-25.33 19.19 39.75 48.73 81.3 95.6 88.33 44.25 8.34 87.98-8.919 127.43-27.489 18.25-11.96 38.499-25.36 46.459-46.68 3.94-9.78-1.8803-19.541-8.1203-26.681 1.46-7.59 0.451-17.969 4.611-23.569 35.67 23.31 83.169 30.669 122.04 11.209 2.01 25.26 8.281 49.9 14.311 74.43 12.47 45.55 60.11 69.28 102.77 79.35 31.24 2.3 62.829 0.3604 94.209 0.9204 35.96-17.42 72.39-39.151 92.77-74.891 8.27-15.3 5.9703-34.389-3.6297-48.469 1.93-10.87 5.13-21.63 5.9-32.75 4.77-7.5 18.389-10.571 15.789-21.711-3.39-16.09 4.6704-39.689-15.18-46.859 4.21-17.65-7.87-42.811 14.75-49.961-4.6-21.09 13.971-52.9-11.709-63.98-2.16-12.63-2.0103-25.79-1.7703-38.55 21.45-15.73 6.9203-46.01 10.37-68.23 1.66-16.48-19.28-19.029-24.32-31.409 11.74-24.45 9.1503-52.46 7.9703-78.75 29.3-21.21 54.63-49.63 62.3-85.9 17.66-77.5 46.599-154.97 38.719-235.8 3.86-85.1-1.629-170.21-1.439-255.35 0.73-29.64-14.82-59.76-43.55-70.55-5.03-13.38-4.1707-28.89-4.0907-43.02 16.76-19.35 36.501-36.111 52.861-55.811 6.1-16.12 3.9897-33.909 2.7797-50.759-6.03-78.72-32.161-153.73-49.661-230.06 33.77 6.6 67.211 15.529 100.89 22.859 198.27 51.94 405.75 59.32 609.29 44.3 122.18-13.24 244.37-39.41 356.78-90.22 71.92-30.94 145.1-68.219 196.68-128.16-89.13-11.8-176.62-44.67-258.78-82.9-108.3-55.4-209.86-123.66-306.01-197.97-64.9-55.66-120.21-121.24-178.15-183.87-20.37-23.06-41.43-45.72-58.7-71.28-52.69-71.71-103.81-144.55-153.98-218.03-46.92-68.83-100.55-132.64-151.75-198.25-35.21-42.6-75.629-80.441-116.39-117.61-49.63-44.44-99.941-88.579-155.64-125.36-65.51-42.9-137.45-74.88-210.54-102.48-123.65-40.17-257.75-47.121-385.17-33.561-127.57 449.85-254.49 899.95-382.09 1349.8-39.92 24.17-64.35 72.421-57.92 118.91 8.87 53.41 29.531 103.96 40.011 157.02 2.72 16.38 6.6493 38.549-7.6407 49.559-5.61-42.79-54.47-68.63-92.55-72.47 155.9-548.69 309.54-1098 465.36-1646.7 5.44-11.11-1.0894-25.23-13.409-27.15-32.98-6.06-63.481-23.82-96.841-26.15zm548.77 3007.1c1.9474 0.031 3.9427 0.1918 5.6703 0.2718-1.7276-0.08-3.7229-0.2393-5.6703-0.2703-0.6497-0.01-1.2896 0.0002-1.9172 0.028 0.6284-0.026 1.2667-0.04 1.9172-0.03z"
         id="rect4339" />
      <path
         id="path1204215"
         transform="matrix(0.80000916,0,0,0.80000916,-0.00839853,0)"
         d="M 1367.6172 113.52539 C 1316.8669 113.32993 1266.2787 116.12311 1216.5059 121.41992 C 1193.5445 202.38866 1170.6026 283.36392 1147.6699 364.34375 L 1758.916 1072.1016 L 2043.6934 1691.9102 L 2060.4453 1943.1836 L 2108.4375 1985.6914 C 2107.556 1981.9842 2106.683 1978.2743 2105.832 1974.5625 C 2148.044 1982.8124 2189.8451 1993.9743 2231.9434 2003.1367 C 2479.778 2068.061 2739.1248 2077.2846 2993.5469 2058.5098 C 3146.2701 2041.96 3299.0067 2009.2481 3439.5176 1945.7363 C 3529.4165 1907.0618 3620.891 1860.4645 3685.3652 1785.5391 C 3573.954 1770.7892 3464.5914 1729.701 3361.8926 1681.9141 C 3226.5191 1612.6649 3099.5709 1527.3415 2979.3848 1434.4551 C 2898.2607 1364.8809 2829.1253 1282.9077 2756.7012 1204.6211 C 2731.239 1175.7964 2704.9134 1147.4711 2683.3262 1115.5215 C 2617.4644 1025.885 2553.5653 934.83528 2490.8535 842.98633 C 2432.2042 756.94981 2365.1672 677.1893 2301.168 595.17773 C 2257.156 541.92834 2206.6323 494.62673 2155.6816 448.16602 C 2093.6449 392.61665 2030.7577 337.44447 1961.1348 291.46875 C 1879.2482 237.84436 1789.3243 197.86875 1697.9629 163.36914 C 1591.7024 128.84844 1479.2678 113.95541 1367.6172 113.52539 z "
         style="opacity:1;fill:#aa0000;stroke:#aa0000;stroke-opacity:1" />
      <path
         fill="#161616"
         d="m828.13 0c-9.7 0.78-15.429 10.46-18.439 18.68-165.77 580.93-327.57 1163-493.12 1744-24.87 2.48-54.781 2.5003-74.841 21.02-12.7 11.55-17.8 28.309-23.23 43.889-25.56 3.47-31.18 32.411-38.18 52.691-14.97 29.67-28.17 61.82-25.97 95.75 0.5 41.38 12.74 88.58 49.82 111.93 7.96 45.44-19.851 87.351-17.141 132.86-61.86 220.52-124.74 440.79-186.84 661.25-0.98 9.55 1.7003 22.59 12.57 25.33 30.42 9.29 61.26 17.19 91.73 26.35 8.89 2.84 19.39-1.7903 22.77-10.67 50.67-179.22 100.97-358.69 152.24-537.66 33.88 30.08 80.7 39.419 124.88 36.109 39.62 5.71 77.691-14.95 104.79-42.4 25.48-23.69 50.9-47.96 80.32-66.68-6.32 26.25 4.5794 58.38 31.509 67.9 1.96 50.27-0.4591 101.43-9.5891 151.03-19.7 58.99 4.72 119.88 2.1 179.88-1.2 13.92 15.1 17.94 20.9 28.43 24.85 37.02 27.18 83.2 37.58 125.42 7.95 61.95 49.19 113.24 92.8 155.19 22.41 24.18 54.219 41.989 88.139 37.689 28.89-4.32 58.051-10.42 83.581-25.33 19.19 39.75 48.73 81.3 95.6 88.33 44.25 8.34 87.98-8.9191 127.43-27.489 18.25-11.96 38.499-25.36 46.459-46.68 3.94-9.78-1.8803-19.541-8.1203-26.681 1.46-7.59 0.4509-17.969 4.6109-23.569 35.67 23.31 83.169 30.669 122.04 11.209 2.01 25.26 8.2809 49.9 14.311 74.43 12.47 45.55 60.11 69.28 102.77 79.35 31.24 2.3 62.829 0.3603 94.209 0.9203 35.96-17.42 72.39-39.151 92.77-74.891 8.27-15.3 5.9703-34.389-3.6297-48.469 1.93-10.87 5.13-21.63 5.9-32.75 4.77-7.5 18.389-10.571 15.789-21.711-3.39-16.09 4.6703-39.689-15.18-46.859 4.21-17.65-7.87-42.811 14.75-49.961-4.6-21.09 13.971-52.9-11.709-63.98-2.16-12.63-2.0103-25.79-1.7703-38.55 21.45-15.73 6.9203-46.01 10.37-68.23 1.66-16.48-19.28-19.029-24.32-31.409 11.74-24.45 9.1503-52.46 7.9703-78.75 29.3-21.21 54.63-49.63 62.3-85.9 17.66-77.5 46.599-154.97 38.719-235.8 3.86-85.1-1.6291-170.21-1.4391-255.35 0.73-29.64-14.82-59.76-43.55-70.55-5.03-13.38-4.1706-28.89-4.0906-43.02 16.76-19.35 36.501-36.111 52.861-55.811 6.1-16.12 3.9897-33.909 2.7797-50.759-6.03-78.72-32.161-153.73-49.661-230.06 33.77 6.6 67.211 15.529 100.89 22.859 198.27 51.94 405.75 59.32 609.29 44.3 122.18-13.24 244.37-39.41 356.78-90.22 71.92-30.94 145.1-68.219 196.68-128.16-89.13-11.8-176.62-44.67-258.78-82.9-108.3-55.4-209.86-123.66-306.01-197.97-64.9-55.66-120.21-121.24-178.15-183.87-20.37-23.06-41.43-45.72-58.7-71.28-52.69-71.71-103.81-144.55-153.98-218.03-46.92-68.83-100.55-132.64-151.75-198.25-35.21-42.6-75.629-80.441-116.39-117.61-49.63-44.44-99.941-88.579-155.64-125.36-65.51-42.9-137.45-74.88-210.54-102.48-123.65-40.17-257.75-47.121-385.17-33.561-127.57 449.85-254.49 899.95-382.09 1349.8-39.92 24.17-64.35 72.421-57.92 118.91 8.87 53.41 29.531 103.96 40.011 157.02 2.72 16.38 6.6494 38.549-7.6406 49.559-5.61-42.79-54.47-68.63-92.55-72.47 155.61-548.1 309.25-1097.4 465.07-1646.1 5.44-11.11-1.09-25.23-13.41-27.15-32.98-6.06-63.48-23.82-96.84-26.15zm15.861 39.77c16.64 4.28 33.11 10.929 49.97 15.309 3.84 0.37 4.9397 4.8197 4.2297 8.0297-74.09 260.71-147.35 521.69-221.61 782.32-19.62-5.65-39.519-10.73-58.919-16.92 74.38-261.72 148.17-523.63 222.35-785.41 0.52-1.82 2.3397-2.7197 3.9797-3.3297zm245.73 101.92c95.303-0.13602 190.96 13.309 280 47.716 85.95 34.36 169.39 77.601 240.53 137.46 64 53.26 126.09 109.2 182.16 170.84 67.06 82.33 133.53 165.36 191.56 254.43 50.69 71.1 99.31 143.92 154.02 211.99 44.19 50.68 89.53 100.42 135.83 149.17 80.21 88.36 182.91 151.5 282.37 215.64 85.98 55.73 181.91 96.51 278.16 128.45-106.55 64.13-226.39 103.82-348.51 125.42-99.79 18.69-201.8 19.871-302.94 19.431-119.07-1.74-238.52-13.131-354.37-41.641-49.76-12.45-101.03-22.88-150.03-36.07-3.47-0.54-8.8994 0.08-9.6594-4.4297-11.53-42.6-28.51-87.33-65.55-114.28-43.27-31.51-96.431-46.321-148.41-56.561-27.3-5.61-55.519 2.3006-78.119 17.891-71.36 3.28-141.89-13.57-213.27-10.5-7.19 1.56-13.121-2.7603-18.891-6.1703-47.59-28.3-102.5-43.28-157.6-46.35-94.68-6.47-196.23 16.5-267.22 82.63-14.5 22.03-43.869 17.4-65.909 26 115.95-411.47 232.53-822.8 348.95-1234.2 2.48-11.23 7.0197-22.059 7.0797-33.769 26.475-2.0059 53.132-3.1088 79.817-3.1469zm-479.85 723c18.9 4.83 37.871 10.239 56.611 15.839-16.85 57.96-33.58 115.99-48.45 174.46-50.6 178.12-100.36 356.62-151.59 534.47-18.44-4.72-36.23-11.789-54.88-15.819-5.17-0.45-1.6597-6.1909-1.1297-9.2109 66.07-233.32 132.29-467.04 199.44-699.74zm326.24 486.81c58.91 0.3684 119.82 12.49 166.91 49.619 40.97 32.78 74.68 75.459 95 123.99 23.21 58.7 24.571 122.33 28.611 184.48 3.8 15.53-8.1009 28.669-14.461 41.909-16.09 33.63-41.12 64.931-74.07 83.491-6.61 3.94-14.599 4.7591-22.139 4.6891 5.77-46.38 6.5997-93.33 4.9797-139.95-1.17-21.52-4.4203-42.869-9.7703-63.739-29.43-99.27-127.57-171.21-229.44-179.58-49.3-4.75-99.421-4.11-148.18 5.05 38.09-63.84 110.64-104.59 184.36-109.71 6.0338-0.1987 12.106-0.2866 18.2-0.2484zm284.77 60.712c47.444 0.1961 96.844 9.7206 143.73 8.9359-14.53 9.11-24.83 24.32-34.45 37.28-14.65 30.85-26 65.13-24.62 100.07-1.43 42.26 4.9794 84.53-0.4406 126.65-13.13 0.33-26.249 1.7306-39.369 1.3406 3.82-81.28-6.6612-165.72-45.881-237.99-8.09-11.29-17.14-23.779-25.1-35.309 8.6234-0.7281 17.344-1.0128 26.13-0.9765zm225.22 0.8562c41.82 3.36 75.86 34.479 98.17 67.989 21.41 108.78-19.37 216.04-56.65 316.51-3.05 4.33-3.2997 12.59-7.8297 14.78-11.97-34.34-26.7-74.691-63.75-88.241-16.55-6.86-34.02 0.67-48.27 9.2-9.09-9.66-19.28-18.21-29.93-26.1 7.67-52.02 9.01-104.8 5.45-157.22-5.74-63.1 44.339-119.98 102.81-136.92zm20.708 50.112c-2.809-0.065-5.6662 0.2031-8.5375 0.8469-43.89 8.66-60.499 73.9-28.009 103.85 10.89 11.2 28.47 13.421 42.68 7.9906 28.3-12.13 42.78-47.09 34.57-76.23-3.71-19.171-21.04-36-40.703-36.458zm-0.4656 14.202c4.4622 0.054 8.8797 1.2838 12.489 4.0062-28.05 15.75-39.021 53.01-27.591 82.4-37.99-13.52-27.661-77.411 9.0594-85.781 1.975-0.4312 4.0139-0.6495 6.0422-0.625zm-822.03 22.05c2.2069-0.2725-0.9547 3.8484-1.5672 5.3359-20.3 36.5-37.56 76.36-39.22 118.7-2.71 28.02 1.45 56.009 4.15 83.839-11.13-42.98-25.669-88.619-30.559-134.17-3.23-37.8 31.43-66.86 65.9-73.3 0.5575-0.2388 0.9816-0.3673 1.2969-0.4062zm944.13 11.195c22.67 45.65 40.05 93.71 54.57 142.52 19.22 60.17 41.069 123.98 28.959 187.77-6.07 20.19-14.59 39.68-25 58-28.52 40.74-55.13 82.78-80.45 125.57-5.54 10.28-11.11 20.86-19.52 29.13-0.41-2.4-0.6291-4.7603-0.6391-7.0703-2.08-24.95 1.9891-51.919-0.061-77.659-1.82-16.55-20.749-23.081-30.419-33.231 10.46-30.39-13.53-54.299-33.2-73.109 65.14-78.44 89.289-181.87 100.72-279.96 2.36-23.64 1.0906-49.361 5.0406-71.961zm-876.33 42.45c13.84 5.87 29.099 14.55 43.359 21.52-6.95 9.6-12.94 19.93-19 30.02-14.49-6.77-29.2-14.32-41.85-24.13 5.46-9.31 10.881-18.871 17.491-27.411zm729.15 41.97c-2.6216 0.032-5.27 0.3453-7.9124 0.9703-44.37 10.66-60.349 76.45-27.789 107.55 11.95 11.33 30.46 14.469 45.4 7.2594 30.28-14.45 43.14-54.35 31.27-84.92-5.5124-17.482-22.617-31.082-40.969-30.859zm-1042.7 12.63c18.98 4.02 37.03 11.2 55.8 16.02 4.63 0.72-0.01 6.5397 0.3906 8.9797-14.62 48.96-27.29 99.06-42.45 147.53-16.36-14.16-38.701-14.889-59.631-10.559 14.91-54.06 30.151-108.24 45.891-161.97zm1043.9 3.0047c4.3818 0.037 8.8306 1.2112 12.453 3.6562-28.2 17.02-35.57 56.659-21.27 85.019-44.43-6.11-35.689-81.479 4.4906-88.339 1.4125-0.235 2.8659-0.3485 4.3266-0.3359zm-761.61 1.0656c15.71 4 31.489 8.16 46.609 14-14.67 41.14-14.55 85.73-11.1 128.72-12.38-0.25-24.66 1.6197-36.8 3.8797-13.67-47.68-17.329-99.66 1.2906-146.6zm-208.88 125.2c20.956 0.2261 40.676 13.841 54.317 28.988 6.14 9.03-3.4397 18.831-7.7297 26.561-9.16 10.66-15.13 25.679-27.33 33.069-12.29 20.69-16.03 46.001-21.1 69.511-7.13 38.95-12.88 78.15-16.33 117.62-0.07 10.04-5.96 19.33-14 25.05-27.48 20.29-44.021 56.399-80.011 63.869 3.1-10.08 4.9006-20.689 8.6906-30.519 8.44-0.86 18.26-1.3803 23.43-9.3203 11.34-11.68 9.0397-30.08 19.88-42.07 12.54-14.96 27.101-30.39 29.331-50.72 0.71-20.69 1.27-41.52-0.4-62.15 16.33-25.68 11.239-60.24-1.5812-86.22 4.81-16.34 8.7503-33.24 14.37-49.2 2.43-11.43 6.0003-22.559 9.4203-33.709 3.03-0.5487 6.0485-0.7901 9.0422-0.7578zm789.82 10.688c17.2 5.91 35.67 12.241 50.52 21.841-81.51 51.86-153.21 118.35-220.5 186.68-36.14 38.52-69.4 79.889-108.68 115.36-21.36 1.44-43.481 2.03-65.141 2.95-1.33-35.54-1.0588-75.329 12.481-107.72 2.5-6.2 7.6397-12.421 14.88-12.511 46.56-9.99 89.15-32.169 132.15-51.809 47.23-22 89.8-52.851 128.67-87.341 22.91-18.42 40.299-42.62 55.619-67.45zm145.2 11.211c20.65 9.07 39.97 32.849 38.42 57.139-4.93 8.33-13.6 14.07-22.33 18.03-89.23 36.89-168.78 93.391-240.3 157.69-56.24 51.07-116.68 99.679-158.64 163.91-1.6-11.31 2.5009-22.89 2.3609-34.35 1.7-16.79-8.12-34.699-24.7-39.809 97.05-86.95 189.3-180.54 291.14-262.59 33.57-27.14 71.85-49.679 114.05-60.019zm-1041 35.53c6.3087 0.1075 12.303 1.365 16.798 6.1 15.57 14.88 36.98 30.009 38.33 53.559 1.4 9.67 4.11 21.801-4.5 28.991-26.45 3.52-52.959-3.8603-79.259-2.6203 7.04 1.93 14.549 2.9897 21.159 6.2797 20.49 9.44 57.24 18.5 54.05 47.63-4.32 22.85-12.47 44.991-24.17 65.111-22.13 5.88-45.54-1.3503-66.92-4.8703-7.46 0.01-14.469-3.4606-21.869-4.0906 12.28 7.39 26.399 11.961 39.009 19.081 11.59 4.69 22.279 11.599 32.259 19.069 7.29 17.39-15.599 27.16-29.309 26.95-16.3 0.4-38.63 4.23-51.57-4-21.93-8.7-35.449-29.61-46.839-49.2-1.93 5.51 0.8288 14.93-2.0812 18.9-12.42-19.96-16.099-44.419-15.509-67.619 3.64-34.88 23.13-65.061 31.48-98.631 5.14-19.47 14.1-39.38 31.38-50.83 19.5-3.59 39.401-5.0594 58.881-9.0094 5.75 0.135 12.372-0.9075 18.681-0.8zm271.56 22.158c13.711-0.1775 24.762 12.783 26.647 25.742-10.62 26.25-9.24 55.429-8.55 83.209 0.7 47.8 10.871 94.811 19.641 141.54-22.54 7.64-40.281 24.419-55.811 41.639-2.98-27.35-4.79-54.869-8.85-82.119-7.88-52.79-4.6191-106.38-4.5391-159.53 0.88-18.76 4.2297-46.789 27.13-49.989 1.4681-0.3141 2.9144-0.4738 4.3328-0.4921zm-50.483 13.922c-2.92 26.68-2.3206 54.51-2.8406 81.65 0.38 57.97 9.7012 115.24 18.031 172.43 2 13.82 4.4097 27.661 5.2297 41.611-19.94 35.33-18.06 77.71-16.93 116.9-27.3 26.14-46.101 61.929-76.781 85.519-7.11 6.12-2.1497-11.339-3.2797-14.759-0.44-9.15-0.9803-20.36-4.9703-28.07-6.34 18.36-11.589 42.2-25.069 57.8-0.47-19.18 4.0894-44.36-2.7406-63.87-5.12 14.81-10.181 29.85-17.141 43.87-6.63 19.74-17.459 37.74-29.289 54.77-47.96 13.83-104.43 5.4606-141.46-29.859 3.85-11.07 5.7106-22.96 9.9406-33.8 25.67 6.87 57.861-3.5906 65.991-30.891-18.45 6.51-39.13 11.619-57.9 3.4094 5.63-25.71 14.469-51.03 21.039-76.65 8.26-29.97 16.91-59.86 25.3-89.8 26.04 4.89 48.9-11.799 65.32-27.609 4.94-7.27 12.481-12.851 19.141-18.691 20.17 40.04 37.48 82.011 49.83 125.23 5.96 5.82 4.0103 20.92 10.12 24.6 0.23-51.98-4.29-104.64-21.85-153.93-8.53-14.34 6.8397-24.669 6.5297-38.969 4.7-29.38-4.5597-59.77 4.5703-88.62 14.34 2 27.169 9.5891 38.939 17.689-5.98-15.2-18.95-26.98-34-32.93 3.16-8.18 5.5397-17.809 10.08-24.759 22.5 5.16 42.67 18.9 60.9 32.68-12.06-19.47-28.859-37.34-50.039-46.92 26.6-16.27 52.05-35.02 73.33-58.03zm-353.39 27.991c10.299 0.1547 5.3916 14.94 1.7297 23.909-8.15 25.35-19.391 50.041-22.231 76.791-5.28 29.73 7.2106 59.239 23.291 83.609-29.55-2.86-43.95-35.6-45.3-61.78-6.06-39.23 17.42-73.35 24.35-110.5 0.72-5.65 4.5803-10.79 10.77-10.48 3.0547-1.1047 5.4834-1.5786 7.3906-1.55zm1192.4 23.53c20.33 7.04 36.081 26.4 47.441 44.63-6.65 1.58-13.901 0.7294-20.181 3.6594 15.26 12.99 30.141 26.991 40.931 44.041 2.97 27.13 12.36 53.231 15 80.341-4.22-0.11-8.3-0.2906-12.45-0.2906 12.84 22.05 24.799 45.03 31.309 69.9 2.41 32.68-3.1306 66.051 4.5594 98.291-11.27-7.1-25.089-8.3612-38.059-7.1812-3.04-29.46-2.8994-59.17-6.2094-88.6-11.43-83.03-45.01-160.71-79.75-236.17 4.11-4.11 11.539-6.1103 17.409-8.6203zm-719.5 10.739c14.91 14 31.88 27.65 48.72 37.97 22.3 10.7 44.34 22.971 69.05 27.241-4.08 37.75-10.12 75.419-10.8 113.46-10.33-0.42-20.48-2.8894-30.78-3.7594-16.18-2.13-32.421-6.0909-48.561-6.8109-21.12-52.97-36.15-110.82-27.63-168.1zm678.01 9.0812c17.02 34.74 33.971 69.529 50.111 104.69 18.2 51.16 34.08 103.6 39.35 157.88 1.71 17.86 6.7697 35.661 7.0297 53.591-10.71 3.51-23.18 3.63-33.32 6.8 8.98 5.31 25.44 4.8403 36.77 9.9203 4.12 1.42 8.5803 2.3903 12.47 4.5703 5.76 24.31 5.3491 49.54 6.6391 74.35-0.29 30.3 4.8512 60.919-0.4188 91.009 0.12 3.05-0.4103 6.1697-1.3703 9.1297-38.47 1.96-82.69-5.7594-119.45 12.541-10.55 3.05-8.0103 21.21-19.77 19.22-17.4 1.7-35.291 7.0888-52.391 0.3188-1.74-9.81-5.4094-19.029-9.4094-28.019 30.95-37.61 81.559-46.121 127.51-48.031 1.54-0.78 3.14-1.4497 4.65-2.2797-26.97-5.53-54.989-3.7791-82.339-2.0391-22.19 3.92-44.31 11.799-61.48 26.959-2.18-11.31-1.8912-25.52 8.6688-32.73 27.65-23.47 61.941-38.281 96.791-47.411-22.6-4.17-44.921 0.95-66.991 5.2-19 6.73-38.149 16.241-52.659 31.011-4.04-13.64 6.5206-24.62 14.291-34.27 13.05-16.4 31.059-27.47 47.659-39.77-11.53-1.91-21.141 6.3909-31.591 9.7109-14.75 9.27-28.58 20.099-40.83 32.609-10.38-22.8-31.499-42.83-28.609-69.78 6.81-47.1 51.37-74.91 85.45-100.53-39.02 8.2-74.251 34.459-95.041 68.369-19.7-14.02-36.179-49.879-23.689-75.389l0.05-0.8703c-21.29 14.19-18.08 44.74-8.05 65 6.37 15.86 23.29 27.701 20.48 46.391 2.94 31.68 24.81 56.77 33.53 86.58-50.85-9.97-99.53-28.22-148.08-45.88-25.41-9.74-50.87-20.67-72.08-38.02 0.22-9.16-0.1109-18.29-0.1609-27.38 24.51-47.67 61.79-87.051 99.57-124.44 72.01-75.22 152.17-144.32 244.69-193.09 3.81-2.31 7.8088-4.4188 12.019-5.9188zm-544.77 58.839c16.53 2.24 33.18 3.3106 49.88 3.0906 8.3-0.4 19.599-6.6509 22.639 4.9891-11.61 34.35-19.299 70.271-21.109 106.54-1.64 0.13-4.9194 0.37-6.5594 0.5-16.28-1.11-32.85 1.51-48.95-1.5-1.5-37.79-1.82-76.2 4.1-113.62zm795.98 2.8297c13.13 41.07 22.61 85.19 19.52 128.12-21.21 33.86-47.681 65.211-78.111 91.411-1.76 1.75-7.2291 5.0888-3.4391-2.0812 4.73-34 5.3294-70.319-11.841-101.19 24.9-23.22 42.211-53.13 58.691-82.3 4.97-11.36 10.77-22.351 15.18-33.961zm-1367 101.3c18.31 11.49 41.909 9.2406 60.769 8.8906-76.32 273.29-154.39 546.34-231.46 819.5-14.96-1.25-29.581-8.3803-44.541-11.32-3.06-2.52-13.339-0.5897-11.489-6.7797 31.33-110.66 62.559-221.35 93.959-332 3.22-9.14 3.1609-18.98 5.7609-28.25 42.27-150.03 85.24-299.87 127-450.04zm1419.3 23.85c6.31 65-0.5591 130.24-3.4391 195.26 0.39 41.98-2.48 83.941-7.1 125.66-4.99 35.37-10.731 75.46-37.981 101.07 2.46-10.71 3.9206-21.631 4.2906-32.591 2.26-26.84-16.5-52.989-44.13-55.809 1.15-28.69 0.2694-57.421-2.9406-85.961 15.99-11.2 23.85-33.92 13.75-51.58-7.49-21.43-28.22-35.75-33.73-57.88 35.77-20.9 58.469-59.94 85.059-91.28 9.17-15.33 18.9-30.501 26.22-46.891zm-971.79 1.525c0.9832 0.02 1.9641 0.061 2.9391 0.1156 90.33 0.86 180.8 4.9494 270.73 13.459 9.55 62.31 5.8712 126.1 10.781 188.96 4.03 31.2-9.4203 70.21-42.97 77.9 0.89-45 3.6291-90.89-5.9109-135.2-2.86 45.59 4.1003 97.141-23.08 137.06-70.38 3.77-140.81-1.2203-210.95-6.9703-29.79-2.74-60.259-2.75-89.059-11.75-6.04-3.45-12.6-8.8194-12.78-16.459-11.09-60.75-12.09-124.98 7.4-184.06 33.86-5.75 68.689-3.1591 102.47-9.8391-29.07-5.5-59.289-8.9603-87.959-13.82 14.34-17.07 38.38-25.041 58.57-34.961 5.9413-3.7188 12.938-4.5735 19.82-4.4344zm-60.981 115.9c-8.46 0.32-8.9097 13.931-0.9797 15.411 81.67 2.95 163.35 5.1397 245.02 7.8797 8.76-0.63 9.1706-15.45-0.1594-15.6-81.29-2.89-162.6-5.3706-243.88-7.6906zm-1.15 44.1c-8.75-0.07-8.7691 15.03-0.089 15.4 80.76 2.85 161.53 5.1297 242.3 7.7297 8.49-0.33 9.81-15.05 0.75-15.43-80.97-3.16-161.95-5.41-242.96-7.7zm867.25 5.6797c18.4 9.2 32.791 24.55 46.831 39.25 6.21 5.46 1.45 15.391-4.25 19.411-8.69 0.43-16.311-4.2706-24.281-6.8906 27.79 29.94 24.411 72.141 23.111 109.84-15.09-3.38-30.54-4.55-45.92-5.75 8.44-51.51 6.3094-103.94 4.5094-155.86zm-867.9 38.2c-8.21 2.35-6.8194 14.961 1.6906 15.541 78.67 2.39 157.38 4.9794 236.07 7.4094 10.4 3.6 13.62-15.46 3.1-15.32-80.19-3.13-160.6-5.6097-240.86-7.6297zm380.4 8.1703c73.45 24.78 144.78 58.38 222.42 68.65 23.06 6.7 5 36.129 13.1 52.459-36.82-2.05-74.86 2.7297-110.8-7.4203-45.13-14.7-88.529-34.44-131.51-54.4-7.31-11.81-0.1809-26.749-2.3609-39.589 0.31-7.88-1.23-18.28 9.15-19.7zm-13.306 76.209c1.6813 0 3.4013 0.4228 5.1563 1.4203 46.01 21.67 91.9 44.55 140.75 59.17 37.66 6 76.041 6.5403 113.81 11.97 3.1 10.04 6.7991 21.029 7.9891 31.309-25.66 31.41-23.199 74.33-36.639 110.55-8.05 17.37-24.421 29.201-32.381 46.641-5.67 16.61-4.4897 34.859 1.2703 51.269 5.04 13.7 18.17 24.061 33.02 24.341 20.72 1.94 39.17-9.4894 55.17-21.159-7.16 17.06-18.95 32.08-33.4 43.6-5.81 5.2-3.5909 13.599-0.061 19.409 2.81 2.6 5.6812 5.3006 8.3312 8.1406 9.34 8.14 20.65 13.28 32.18 17.58 20.55 6.75 42.68 9.7794 63.88 4.2094 3.59-1.37 7.2003-2.7494 10.92-3.7594 25.13 13.27 55.999 11.23 82.189 2.0297 1.38-2.63 5.5312-2.69 8.1312-3.8-1.8 64.82-34.11 131.31-91.12 164.57-14.72 9.61-32.46 14.549-49.92 16.039 3.88-14.7 6.21-29.749 9.2-44.589 14.8-11.5 30.24-23.98 36.68-42.38-11.41 9.66-24.119 18.019-38.989 21.139 13.79-16.01 21.509-38.939 20.339-59.059-5.63 14.64-16.39 27.169-29.48 35.709-15.33-9.3-27.381-27.769-48.341-22.109-25.66 1.42-50.98 6.5303-76.63 8.1203-33.66 3.49-61.16 32.449-96.52 23.939-24.11-11.92-48.999-26.549-63.109-50.209-4.38-10.24-5.31-21.65-8.2-32.33 5.57-6.41 14.179-10.281 18.709-17.481-58.48 11.08-117.21-2.18-172.69-20.45 0.5-58.31-14.08-115.29-29.55-171.02-7.6-61.88-24.801-122.49-22.591-185.38 17.12 2.5 34.14 6.1312 51.53 6.2812 5.04 32.77 10.84 65.569 20.8 97.259 0.87 1.67 1.1206 4.6706 3.5906 4.5406-2.65-14.47-4.9906-29.071-5.9406-43.741-2.59-20.68-0.7297-41.8 4.3703-61.95 26.54-15.8 61.231-1.4103 88.211-17.77 5.4925-4.0381 12.047-12.043 19.333-12.05zm-369.03 12.55c51.55 9.05 104.02 6.8703 156.03 9.2203-0.07 39.5 7.6491 78.48 15.939 116.93-22.56 0.46-45.389-0.059-67.039-7.1891-1.49-0.02-5.42-2.5009-4.55 0.4391 17.44 20.87 46.779 25.61 72.539 25.27-12.03 19.06-38.749 20.88-59.069 18.05 17.56 14.88 43.35 16.959 65.15 11.459 7.22 46.29 23.179 90.651 32.069 136.58-23.79 4.6-47.989 2.6694-71.759-0.7906-4.01 0.19-4.5394 7.1706-0.1594 7.8406 23.18 12.07 50.179 17.709 76.109 15.019 1.03 13.62 2.1297 27.791 1.7797 41.631-11.04 4.45-22.379 8.2288-33.839 11.469 15.64 14.25 37.869 19.22 58.169 24.22 36.56 9.64 74.821 6.8203 112.21 5.9203 11.42 5.04 20.059 14.769 25.539 25.809 12.68 24.41 33.211 45.111 58.111 56.981-23.65 20.66-44.9 44.53-71.27 61.88-28 13.41-57.49 23.9-87.67 31.2 9.72-12.38 23.94-21.601 30.7-36.261 3.19-11.73 3.0097-24.279-0.4703-35.889-2.36-3.53-4.4788-7.2197-6.3688-10.93-12.96-15.08-24.681-31.92-39.891-44.92-6.26-5.41-15.52-3.1297-23.07-4.0297-52.82 1.04-103.59 19.819-156.51 20.059-6.02-8.3-11.95-17.739-13.45-28.059 13.5-1.66 30.339-0.7809 41.759-5.0109-14.7-3.03-34.85-3.0691-45.95-16.089-7.83-23.91-12.46-48.981-17.07-73.741 12.5 1.03 24.841 3.2206 37.091 5.8906-17.57-13.65-35.11-28.351-49.92-45.211-17.4-40.78-26.769-85.299-27.889-129.59 9.7-1.02 19.589-0.4006 29.219-1.7906-26.14-15.7-28.649-48.45-24.259-75.58 1.92-3.74 12.42 1.1294 12.48-3.5406-25.58-29.16-25.139-70.82-24.689-107.25zm842.07 53.023c36.972-0.067 80.834 3.7359 102.71 37.177 12.43 33.92 5.9397 72.28-9.0703 104.4-11.94 2.91-24.42 3.2209-36.65 3.3109-46.07 1.04-97.41 2.3597-143.13-13.52-7.9-2.92-16.741-5.4403-22.311-12.07-14.98-23.43-7.7397-53.16-9.4797-79.22 3.62-18.15 19.57-36.1 38.87-37.37 23.84-1.98 47.88-2.77 71.77-2.65 2.395-0.031 4.829-0.052 7.2938-0.056zm-133.92 28.017c-4.78 36.13-6.6503 77.699 16.63 108.14 28.23 25.35 69.869 22.171 104.56 27.461 31.23 2.45 62.661 3.0091 93.861 5.3391 3.86 46.87-2.6912 101.71-40.181 136.23-5.97 8.56-18.16 7.2988-26.95 4.8688 11.71-26.92 15.051-59.36 7.8109-87.15-1.69 8.44-1.4703 19.061-4.3203 27.991-4.62 29.64-22.931 59.231-52.491 68.841-13.78 5.29-29.639 3.71-43.769 0.05 17.73-22.52 24.109-53.4 18.789-81.17-3.55 4.77-2.2503 12.27-5.9203 17.33-5.56 24.14-17.099 50.271-41.069 60.891-16.41 8.6-36.211 6.3994-52.891-0.2906-11.05-4.39-22.571-11.74-29.841-20.62 17.1-17.26 44.321-31.439 44.231-59.439-0.52-22.67-3.3203-46.031-9.3703-67.661-8.97 25.84-23.93 50.421-45.2 67.911-10.89 9.73-26.29 5.4188-38-0.3312-12.68-6.38-17.29-23.779-10.2-35.839 8.26-12.57 19.879-22.94 26.259-36.75 12.79-26.46 16.07-56.151 21.4-84.641 8.23-21.82 25.171-41.79 48.411-47.82 5.83-2.05 12.11-2.5891 18.25-3.3391zm-431.71 150.2c0.16 24.58 11.259 47.58 15.589 71.6 3.21 18.6 5.7103 37.3 9.0703 55.88 5.25-5.15 1.1997-17.029 5.0297-23.939 32.14 6.67 67.59 11.22 99.07 3.9-28.61-1.88-57.729-6.1409-83.989-18.211 9.36-5.46 25.289-3.4091 37.059-6.6391-15.95-7.39-38.049 0.47-53.259-10.1-11.48-22.88-19.73-50.881-28.57-72.491zm188.72 6.5297c-10.07 3.41-19.731 7.9303-29.891 11.12-35.74 21.65-78.69 20.889-118.22 25.709 25.97 3.35 52.351 4.3809 77.941 10.361 27.86-7.17 48.81-29.161 70.17-47.191zm472.32 103.9c-0.27 65.34-0.81 131.95-0.05 197.73 3.56 29.33-4.91 58.48-18.3 84.35-15.8 31.05-28.039 64.4-50.219 91.72-5.61 6.88-14.451 9.1797-22.811 10.43-28.91 5.27-60.24 3.2409-87.18-8.9891-39.74-11.07-37.18-58.73-41.28-91.68-4.64-10.56 6.54-8.9512 13.45-8.6312 35.59-4.48 73.75 12.22 109.98 2.0703 14.18-3.9 24.969-18.319 24.059-33.139-0.28-24.34 2.07-48.62 0-72.9 1.09-15.66-8.8197-31.601-24.83-34.841 14.21-27.79 13.621-59.541 13.841-89.891 22.38 4.82 45.849-1.8797 62.139-17.83 6.95-9.28 15.18-18.21 21.2-28.4zm-690.88 146.4c6.8671-0.043 13.038 1.725 17.084 8.375 8.3 10.73 18.259 20.179 25.919 31.389 1.23 10.04-0.9097 20.68-4.2297 30.2-18.72 12.52-38.1 24.771-59.27 32.731-18.08 9.48-37.379 17.239-56.939 23.219-13.18 5.66-23-7.7497-31.8-15.38-20.22-23.24-39.181-48.59-52.111-76.57 42.32-18.57 88.731-26.44 134.43-31.35 8.1056 0.4893 18.087-2.5587 26.916-2.6141zm364.02 1.6c15.31-0.01 30.615 0.2053 45.855 0.6453 19.58 9.47 8.54 36.649 11.55 53.369 2.28 18.03-7.7191 35.64-25.889 39.3-24.2 0.36-48.07 6.8612-72.32 5.6312-36.79-11.03-60.221-44.811-93.841-61.811 25.83-18.99 56.601-32.83 88.761-36.43 15.26-0.46 30.574-0.6947 45.884-0.7047zm216.88 12.345c15.99 2.89 12.671 24.749 13.741 36.759-1.68 18.51 5.1297 46.26-16.82 55.3-33.62 12.12-71.891-1.8997-103.94-6.8797 43.59-15.96 81.43-46.63 107.02-85.18zm-386.99 31.839c2.58 10.98 4.7309 28.361 1.1109 41.461-13.28 3.79-28.44 3.2097-41.67 1.8797 14.37-13.61 28.259-27.841 40.559-43.341zm29.733 30.08c14.558-0.028 27.952 9.3493 37.658 19.481-6.04 31.98-15.55 68.679-45 87.169-23.95 13.58-53.02 23.911-79.7 21.461-33.86-1.71-53.451-35.11-63.491-63.8-2.69-13.18 12.171-15.56 21.631-18.5 10.46-5.59 24.78-10.29 36.28-16.18 25.3 4.73 53.749 11.519 78.439 0.3094 11.7-5.61 8.2412-19.36 9.6312-29.62 1.5281-0.2138 3.0456-0.3175 4.5516-0.3203z"
         id="path4" />
      <path
         fill="#f9f9f9"
         d="m843.99 39.77c-1.64 0.61-3.4597 1.5097-3.9797 3.3297-74.18 261.78-147.97 523.69-222.35 785.41 19.4 6.19 39.299 11.27 58.919 16.92 74.26-260.63 147.52-521.61 221.61-782.32 0.71-3.21-0.3897-7.6597-4.2297-8.0297-16.86-4.38-33.33-11.029-49.97-15.309zm158.83 138.84c-116.42 411.35-233 822.68-348.95 1234.2 22.04-8.6 51.409-3.97 65.909-26 70.99-66.13 172.54-89.1 267.22-82.63 55.1 3.07 110.01 18.05 157.6 46.35 5.77 3.41 11.701 7.7303 18.891 6.1703 71.38-3.07 141.91 13.78 213.27 10.5 22.6-15.59 50.819-23.501 78.119-17.891 51.98 10.24 105.14 25.051 148.41 56.561 37.04 26.95 54.02 71.68 65.55 114.28 0.76 4.51 6.1894 3.8897 9.6594 4.4297 86.38 7.06 173.07 8.9603 259.66 7.4203-26-101.97-42.911-206.08-57.781-310.21-26.3-190.41-63.639-384.2-157.92-554.07-41.47-84.18-110.22-149.85-175.7-215.31-59.12-57.63-130.39-100.08-199.28-144.7-105.18-64.1-221.73-113.66-344.66-129.05zm-392.95 686.08c-67.15 232.7-133.37 466.42-199.44 699.74-0.53 3.02-4.0403 8.7609 1.1297 9.2109 18.65 4.03 36.44 11.099 54.88 15.819 51.23-177.85 100.99-356.35 151.59-534.47 14.87-58.47 31.6-116.5 48.45-174.46-18.74-5.6-37.711-11.009-56.611-15.839zm326.24 486.81c-6.0941-0.038-12.166 0.05-18.2 0.2484-73.72 5.12-146.27 45.869-184.36 109.71 48.76-9.16 98.881-9.8 148.18-5.05 101.87 8.37 200.01 80.311 229.44 179.58 5.35 20.87 8.6003 42.219 9.7703 63.739 4.52-121.89-91.26-230.99-206.05-261.39 8.17-23.46 30.12-38.661 52.8-46.631 28.88-9.24 58.501 1.2112 85.041 12.731 40.16 14.55 68.98 47.889 93.85 81.119 52.46 78.02 58.289 175.08 65.589 265.94 6.36-13.24 18.261-26.379 14.461-41.909-4.04-62.15-5.4009-125.78-28.611-184.48-20.32-48.53-54.03-91.209-95-123.99-47.089-37.129-108-49.25-166.91-49.619zm284.77 60.712c-8.7859-0.036-17.506 0.2484-26.13 0.9765 7.96 11.53 17.01 24.019 25.1 35.309 36.56 5.04 73.271 11.16 110.31 9.9297 9.62-12.96 19.92-28.17 34.45-37.28-46.887 0.7847-96.287-8.7398-143.73-8.9359zm225.22 0.8562c-58.47 16.94-108.55 73.82-102.81 136.92 3.56 52.42 2.22 105.2-5.45 157.22 10.65 7.89 20.84 16.44 29.93 26.1 14.25-8.53 31.72-16.06 48.27-9.2 37.05 13.55 51.78 53.901 63.75 88.241 4.53-2.19 4.7797-10.45 7.8297-14.78 37.28-100.47 78.06-207.73 56.65-316.51-22.31-33.51-56.35-64.629-98.17-67.989zm20.708 50.112c19.663 0.4574 36.993 17.287 40.703 36.458 8.21 29.14-6.2703 64.1-34.57 76.23-14.21 5.43-31.79 3.2094-42.68-7.9906-32.49-29.95-15.881-95.19 28.009-103.85 2.8713-0.6438 5.7285-0.9123 8.5375-0.8469zm-822.5 36.252c-0.3153 0.039-0.7394 0.1674-1.2969 0.4062-34.47 6.44-69.13 35.5-65.9 73.3 4.89 45.55 19.429 91.189 30.559 134.17-2.7-27.83-6.86-55.819-4.15-83.839 1.66-42.34 18.92-82.2 39.22-118.7 0.6125-1.4875 3.7741-5.6084 1.5672-5.3359zm944.13 11.195c-3.95 22.6-2.6806 48.321-5.0406 71.961 13.6 45.92 31.001 90.909 42.631 137.52 8.17 33.53 19.289 67.941 14.009 102.88-11.6 77.34-52.989 144.78-89.559 212.33-2.26 3.36-3.8103 7.1697-4.1203 11.23 0.01 2.31 0.2291 4.6703 0.6391 7.0703 8.41-8.27 13.98-18.85 19.52-29.13 25.32-42.79 51.93-84.83 80.45-125.57 10.41-18.32 18.93-37.81 25-58 12.11-63.79-9.7394-127.6-28.959-187.77-14.52-48.81-31.9-96.87-54.57-142.52zm-876.33 42.45c-6.61 8.54-12.031 18.101-17.491 27.411 12.65 9.81 27.36 17.36 41.85 24.13 6.06-10.09 12.05-20.42 19-30.02-14.26-6.97-29.519-15.65-43.359-21.52zm729.15 41.97c18.352-0.2226 35.456 13.377 40.969 30.859 11.87 30.57-0.9903 70.47-31.27 84.92-14.94 7.21-33.45 4.0706-45.4-7.2594-32.56-31.1-16.581-96.89 27.789-107.55 2.6424-0.625 5.2908-0.9385 7.9124-0.9703zm-1042.7 12.63c-15.74 53.73-30.981 107.91-45.891 161.97 20.93-4.33 43.271-3.6006 59.631 10.559 15.16-48.47 27.83-98.57 42.45-147.53-0.4-2.44 4.2394-8.2597-0.3906-8.9797-18.77-4.82-36.82-12-55.8-16.02zm282.27 4.0703c-18.62 46.94-14.961 98.92-1.2906 146.6 12.14-2.26 24.42-4.1297 36.8-3.8797-3.45-42.99-3.57-87.58 11.1-128.72-15.12-5.84-30.899-10-46.609-14zm-208.86 125c-2.9937-0.032-6.0122 0.2091-9.0422 0.7578-3.42 11.15-6.9903 22.279-9.4203 33.709 15.87-7.94 38.92-6.5988 49.58 8.9312 7.12 16.93-11.799 29.249-11.859 45.219 12.2-7.39 18.17-22.409 27.33-33.069 4.29-7.73 13.87-17.531 7.7297-26.561-13.641-15.146-33.361-28.761-54.317-28.988zm935.02 21.898c-42.2 10.34-80.48 32.879-114.05 60.019-101.84 82.05-194.09 175.64-291.14 262.59 16.58 5.11 26.4 23.019 24.7 39.809 0.14 11.46-3.9609 23.04-2.3609 34.35 41.96-64.23 102.4-112.84 158.64-163.91 71.52-64.3 151.07-120.8 240.3-157.69 8.73-3.96 17.4-9.6997 22.33-18.03 1.55-24.29-17.77-48.069-38.42-57.139zm-1041 35.53c-6.3088-0.1075-12.931 0.935-18.681 0.8-19.48 3.95-39.381 5.4194-58.881 9.0094-17.28 11.45-26.24 31.36-31.38 50.83-8.35 33.57-27.84 63.751-31.48 98.631-0.59 23.2 3.0894 47.659 15.509 67.619 2.91-3.97 0.1512-13.39 2.0812-18.9 11.39 19.59 24.909 40.5 46.839 49.2 16.94-0.04 35.29 0.3909 50.6-8.0891 4.3-10.56 2.6703-23.6-1.9797-33.93-12.61-7.12-26.729-11.691-39.009-19.081 7.4 0.63 14.409 4.1006 21.869 4.0906 13.33-1.4 28.06-1.2697 39.07-10.08 20.4-16.61 28.921-44.961 24.291-70.441-6.22-11.24-16.85-19.04-26.32-27.35-6.61-3.29-14.119-4.3497-21.159-6.2797-1.56-0.08-3.55 0.061-2.25-2.0094 17.04 1.51 34.129-4.4206 47.489-14.841 23.45-12.85 12.761-45.93 0.1906-63.08-4.495-4.735-10.49-5.9925-16.798-6.1zm271.56 22.158c-1.4184 0.018-2.8647 0.178-4.3328 0.4921-22.9 3.2-26.25 31.229-27.13 49.989-0.08 53.15-3.3409 106.74 4.5391 159.53 4.06 27.25 5.87 54.769 8.85 82.119 15.53-17.22 33.271-33.999 55.811-41.639-8.77-46.73-18.941-93.741-19.641-141.54-0.69-27.78-2.07-56.959 8.55-83.209-1.885-12.959-12.936-25.92-26.647-25.742zm-50.483 13.922c-21.28 23.01-46.73 41.76-73.33 58.03 21.18 9.58 37.979 27.45 50.039 46.92-18.23-13.78-38.4-27.52-60.9-32.68-4.54 6.95-6.9197 16.579-10.08 24.759 15.05 5.95 28.02 17.73 34 32.93-11.77-8.1-24.599-15.689-38.939-17.689-9.13 28.85 0.1297 59.24-4.5703 88.62 20.08 8.48 13.82 35.43 21.3 50.2 8.31-36.27 7.6191-76.171-8.7609-110.13 25.03 7.17 38.13 32.261 50.07 53.191 0.8-26.86-4.3997-53.48-12.28-79.03 17.67 8.82 26.039 28.33 34.359 45.12 2.62-26.69 12.02-52.151 16.25-78.591 0.52-27.14-0.079-54.97 2.8406-81.65zm-353.39 27.991c-1.9072-0.029-4.3359 0.4453-7.3906 1.55-6.19-0.31-10.05 4.8297-10.77 10.48-6.93 37.15-30.41 71.27-24.35 110.5 1.35 26.18 15.75 58.92 45.3 61.78-16.08-24.37-28.571-53.879-23.291-83.609 2.84-26.75 14.081-51.441 22.231-76.791 3.6619-8.969 8.5693-23.755-1.7297-23.909zm1192.4 23.53c-5.87 2.51-13.299 4.5103-17.409 8.6203 34.74 75.46 68.32 153.14 79.75 236.17 3.31 29.43 3.1694 59.14 6.2094 88.6 12.97-1.18 26.789 0.081 38.059 7.1812-7.69-32.24-2.1494-65.611-4.5594-98.291-6.51-24.87-18.469-47.85-31.309-69.9 4.15 0 8.23 0.1806 12.45 0.2906-2.64-27.11-12.03-53.211-15-80.341-10.79-17.05-25.671-31.051-40.931-44.041 6.28-2.93 13.531-2.0794 20.181-3.6594-11.36-18.23-27.111-37.59-47.441-44.63zm-41.491 19.82c-4.21 1.5-8.2088 3.6088-12.019 5.9188 26.73 44.8 52.569 90.911 67.839 141.06 11.66 39.02 25.66 77.55 32.35 117.87 0.32-0.57 0.9706-1.7112 1.2906-2.2812-5.27-54.28-21.15-106.72-39.35-157.88-16.14-35.16-33.091-69.949-50.111-104.69zm-629.29 28.889c0.14 46.48 6.9603 94.771 27.47 136.94 10.3 0.87 20.45 3.3394 30.78 3.7594 0.68-38.04 6.72-75.709 10.8-113.46-24.71-4.27-46.75-16.541-69.05-27.241zm336.51 25.47c-53.24 7.65-107.41 20.111-161.34 10.591-13.54 32.39-13.811 72.179-12.481 107.72 21.66-0.92 43.781-1.51 65.141-2.95 39.28-35.47 72.54-76.839 108.68-115.36zm-251.99 4.4797c-5.92 37.42-5.6 75.83-4.1 113.62 16.1 3.01 32.67 0.39 48.95 1.5-9.55-37.1 0.6097-75 5.0297-112.03-16.7 0.22-33.35-0.8506-49.88-3.0906zm795.98 2.8297c-4.41 11.61-10.21 22.601-15.18 33.961 15.03 29.96 25.86 61.869 34.7 94.159 3.09-42.93-6.3903-87.05-19.52-128.12zm-285.92 32.331c-72.06 11.52-128.69 74.099-147.21 142.76l-0.05 0.8703c-2.06 26.92 4.3091 55.609 23.689 75.389 20.79-33.91 56.021-60.169 95.041-68.369-34.08 25.62-78.64 53.43-85.45 100.53-2.89 26.95 18.229 46.98 28.609 69.78 12.25-12.51 26.08-23.339 40.83-32.609 4.98-20.91 21.35-36.791 41.55-43.331 25.26-9.74 51.74-15.959 77.92-22.659-43.61-0.56-93.91-2.1606-128.82 29.009-1.74-43.71 31.86-79.98 65.35-104.9 20.63-16.31 44.711-27.149 68.531-37.859-45.17-24.32-100.4-13.09-146.57 2.8703 2.37-45.94 30.99-84.56 66.58-111.48zm-1081.1 68.9c-41.76 150.17-84.73 300.01-127 450.04-2.6 9.27-2.5409 19.11-5.7609 28.25-31.4 110.65-62.629 221.34-93.959 332-1.85 6.19 8.4291 4.2597 11.489 6.7797 14.96 2.94 29.581 10.07 44.541 11.32 77.07-273.16 155.14-546.21 231.46-819.5-18.86 0.35-42.459 2.5994-60.769-8.8906zm169.95 9.7594c-6.66 5.84-14.201 11.421-19.141 18.691 0.46 54.07 48.45 88.301 70.22 133.34 1.81-5.94-1.59-18.49-1.25-26.8-12.35-43.22-29.66-85.191-49.83-125.23zm163.6 10.12c-6.3 13.95-9.9706 28.88-15.541 43.13-10.67 38.28-0.6094 78.631-4.9594 117.49-18.77 27.04-42.651 51.86-71.261 68.65 1.13 3.42-3.8303 20.879 3.2797 14.759 30.68-23.59 49.481-59.379 76.781-85.519-1.13-39.19-3.0103-81.57 16.93-116.9-0.82-13.95-3.2297-27.791-5.2297-41.611zm1085.8 3.9703c-7.32 16.39-17.05 31.561-26.22 46.891 6.2 27.08 9.5006 55.03 9.3906 82.83-2.99 54.53 2.8903 109.17-1.2797 163.64-3.19 33.21-13.49 65.301-26.12 96.041-0.37 10.96-1.8306 21.881-4.2906 32.591 27.25-25.61 32.991-65.7 37.981-101.07 4.62-41.72 7.49-83.681 7.1-125.66 2.88-65.02 9.7491-130.26 3.4391-195.26zm-971.79 1.525c-6.882-0.1391-13.879 0.7156-19.82 4.4344-20.19 9.92-44.23 17.891-58.57 34.961 28.67 4.86 58.889 8.3203 87.959 13.82-33.78 6.68-68.609 4.0891-102.47 9.8391-19.49 59.08-18.49 123.31-7.4 184.06 0.18 7.64 6.7397 13.009 12.78 16.459 28.8 9 59.269 9.01 89.059 11.75 70.14 5.75 140.57 10.74 210.95 6.9703 27.18-39.92 20.22-91.471 23.08-137.06 0.23-27.3-4.4494-54.159-8.0594-81.089-3.08-27.13 28.289-37.42 46.159-50.57-89.93-8.51-180.4-12.599-270.73-13.459-0.975-0.055-1.9559-0.096-2.9391-0.1156zm680.46 61.448c-0.3105 0.013-0.8082 0.1507-1.5469 0.4563-26.44 6-53.93 18.54-70.48 40.65 25.27-8.37 48.27-22.51 69.77-38 1.4219-0.9019 3.6017-3.1641 2.2563-3.1063zm-741.44 54.456c81.28 2.32 162.59 4.8006 243.88 7.6906 9.33 0.15 8.9194 14.97 0.1594 15.6-81.67-2.74-163.35-4.9297-245.02-7.8797-7.93-1.48-7.4803-15.091 0.9797-15.411zm-326.38 4.5797c-6.57 25.62-15.409 50.94-21.039 76.65 18.77 8.21 39.45 3.1006 57.9-3.4094-8.13 27.3-40.321 37.761-65.991 30.891-4.23 10.84-6.0906 22.73-9.9406 33.8 37.03 35.32 93.501 43.689 141.46 29.859 11.83-17.03 22.659-35.03 29.289-54.77-14.47 22.12-37.37 41.21-65.85 34.28 24.42-39.95 35.431-88.94 25.481-135.13-30.34 1.03-66.461 10.69-91.311-12.17zm1155.6 24.161c15.19 55.23 13.961 113.23 18.691 169.93 5.27-30.09 0.1288-60.709 0.4188-91.009-1.29-24.81-0.8791-50.04-6.6391-74.35-3.89-2.18-8.3503-3.1503-12.47-4.5703zm-830.39 15.359c81.01 2.29 161.99 4.54 242.96 7.7 9.06 0.38 7.74 15.1-0.75 15.43-80.77-2.6-161.54-4.8797-242.3-7.7297-8.68-0.37-8.6609-15.47 0.089-15.4zm867.25 5.6797c1.8 51.92 3.9306 104.35-4.5094 155.86 15.38 1.2 30.83 2.37 45.92 5.75 1.3-37.7 4.6791-79.901-23.111-109.84 7.97 2.62 15.591 7.3206 24.281 6.8906 5.7-4.02 10.46-13.951 4.25-19.411-14.04-14.7-28.431-30.05-46.831-39.25zm-144.66 13.576c-13.497-0.049-26.919 0.8463-39.8 5.1438-16.6 12.3-34.609 23.37-47.659 39.77-7.77 9.65-18.331 20.63-14.291 34.27 14.51-14.77 33.659-24.281 52.659-31.011 16.76-27.8 51.23-37.87 80.5-47.5-10.369-0.026-20.912-0.6352-31.409-0.6735zm-723.3 24.4c80.26 2.02 160.67 4.4997 240.86 7.6297 10.52-0.14 7.3 18.92-3.1 15.32-78.69-2.43-157.4-5.0194-236.07-7.4094-8.51-0.58-9.9006-13.191-1.6906-15.541zm380.4 8.1703c-10.38 1.42-8.84 11.82-9.15 19.7 2.18 12.84-4.9491 27.779 2.3609 39.589 42.98 19.96 86.379 39.7 131.51 54.4 35.94 10.15 73.98 5.3703 110.8 7.4203-8.1-16.33 9.96-45.759-13.1-52.459-77.64-10.27-148.97-43.87-222.42-68.65zm376.65 9.6141c-5.3141 0.024-10.616 0.2625-15.881 0.725-34.85 9.13-69.141 23.941-96.791 47.411-10.56 7.21-10.849 21.42-8.6688 32.73 17.17-15.16 39.29-23.039 61.48-26.959-4.59-13.12 7.2691-24.111 18.389-28.481 28.39-11.35 59.241-13.889 88.961-20.109-15.495-3.5325-31.547-5.3887-47.489-5.3156zm17.828 58.225c-45.95 1.91-96.559 10.421-127.51 48.031 4 8.99 7.6694 18.209 9.4094 28.019 17.1 6.77 34.991 1.3812 52.391-0.3188-4.29-15.26-0.6894-33.721 14.441-41.561 25.96-13.66 57.089-17.44 84.389-23.25-8.53-6.12-22.39-8.0703-33.12-10.92zm-776.82 20.92c-0.45 36.43-0.8909 78.09 24.689 107.25-0.06 4.67-10.56-0.1994-12.48 3.5406-4.39 27.13-1.8806 59.88 24.259 75.58-9.63 1.39-19.519 0.7706-29.219 1.7906 1.12 44.29 10.489 88.809 27.889 129.59 14.81 16.86 32.35 31.561 49.92 45.211-12.25-2.67-24.591-4.8606-37.091-5.8906 4.61 24.76 9.2403 49.831 17.07 73.741 11.1 13.02 31.25 13.059 45.95 16.089-11.42 4.23-28.259 3.3509-41.759 5.0109 1.5 10.32 7.43 19.759 13.45 28.059 52.92-0.24 103.69-19.019 156.51-20.059 7.55 0.9 16.81-1.3803 23.07 4.0297 10.88-10.15 21.069-21.75 27.759-35.08-46.84 16.52-106.04 19.659-146.82-12.131 32.34 4.5 68.439 9.2903 98.169-6.5797-20.3-5-42.529-9.9703-58.169-24.22 11.46-3.24 22.799-7.0188 33.839-11.469 0.35-13.84-0.7497-28.011-1.7797-41.631-25.93 2.69-52.929-2.9488-76.109-15.019-4.38-0.67-3.8506-7.6506 0.1594-7.8406 23.77 3.46 47.969 5.3906 71.759 0.7906-8.89-45.93-24.849-90.291-32.069-136.58-21.8 5.5-47.59 3.4206-65.15-11.459 20.32 2.83 47.039 1.01 59.069-18.05-25.76 0.34-55.099-4.4003-72.539-25.27-0.87-2.94 3.06-0.4591 4.55-0.4391 21.65 7.13 44.479 7.6491 67.039 7.1891-8.29-38.45-16.009-77.43-15.939-116.93-52.01-2.35-104.48-0.1703-156.03-9.2203zm187.14 14.88c-2.21 62.89 14.991 123.5 22.591 185.38 15.47 55.73 30.05 112.71 29.55 171.02 55.48 18.27 114.21 31.53 172.69 20.45-4.53 7.2-13.139 11.071-18.709 17.481 2.89 10.68 3.82 22.09 8.2 32.33 14.11 23.66 38.999 38.289 63.109 50.209 35.36 8.51 62.86-20.449 96.52-23.939 25.65-1.59 50.97-6.7003 76.63-8.1203 22.65-8.63 43.92-23.05 55.9-44.67 2.66 9.11 0.7603 18.749-0.4297 28.009 15.79-11.7 26.16-29.75 34.92-47.13-21.2 5.57-43.33 2.5406-63.88-4.2094-28.79 18.66-63.581 27.45-97.841 22.3 23.62-9.73 52.191-15.31 65.661-39.88-2.65-2.84-5.5212-5.5406-8.3312-8.1406-39.41 18.54-82.889 32.03-127.01 27.33 40.26-12.98 83.381-28.829 110.29-63.309 5.75-5.4 0.6594-6.3903-4.9906-5.8703-14.85-0.28-27.98-10.641-33.02-24.341-43.31 20.74-94.509 27.91-141.21 18.27 27.17-9.63 53.579-23.799 73.239-45.209-32.7 15.5-70.659 21.39-106.04 12.25-25.59-5.98-51.971-7.0109-77.941-10.361 39.53-4.82 82.48-4.0594 118.22-25.709 11.25-9.78 24.97-17.279 33.92-29.459-18.32 2-37.31 2.6094-55.08-2.9906 52.28-9.03 102.79-30.42 142.07-66.67-41.92 12.91-85.919 18.241-129.72 16.711-16.35-1.66-33.961-2.9-47.641-13.05 40.13-7.43 85.14-10.171 121.38-32.631 19.16-13.08 40.45-25.189 54.95-43.619-77.85 6.49-150.75-27.461-226.67-37.041-30.36-6.19-54.28 17.14-71.35 38.95 0.95 14.67 3.2906 29.271 5.9406 43.741-2.47 0.13-2.7206-2.8706-3.5906-4.5406-9.96-31.69-15.76-64.489-20.8-97.259-17.39-0.15-34.41-3.7812-51.53-6.2812zm654.93 38.144c-2.4648 0-4.8988 0.025-7.2938 0.056 33.18 9.45 65.05 24.91 90.55 48.47 13.85 14.2 8.2203 36.341 7.6703 54.091-1.76 24.7-26.901 34.889-47.011 41.839 4.25 0.64 8.7103 0.3512 13.07 0.4312 12.23-0.09 24.71-0.4009 36.65-3.3109 15.01-32.12 21.5-70.48 9.0703-104.4-21.872-33.441-65.734-37.244-102.71-37.177zm-79.064 2.7063c-19.3 1.27-35.25 19.22-38.87 37.37 1.74 26.06-5.5003 55.79 9.4797 79.22 5.57 6.63 14.411 9.1503 22.311 12.07-20.04-20.81-16.211-55.501-15.441-83.091-0.27-17.9 8.1803-34.88 22.52-45.57zm-73.109 28.65c-23.24 6.03-40.181 26-48.411 47.82-5.33 28.49-8.61 58.181-21.4 84.641-6.38 13.81-17.999 24.18-26.259 36.75-7.09 12.06-2.48 29.459 10.2 35.839-1.48-11.26-3.08-23.76 6.45-32.3 23.12-25.66 38.68-58.909 37.87-93.969 0.27-29.55 14.919-57.731 39.009-74.891 1.01-1.22 4.5906-2.1506 2.5406-3.8906zm139.44 132.26-2.4 1.1594c21.23 5.37 42.771 9.81 64.661 11.4 4.69-0.04 11.47 1.8103 11.98 7.4703 0.04 41.17-2.7009 83.781-20.561 121.54 37.49-34.52 44.041-89.361 40.181-136.23-31.2-2.33-62.631-2.8891-93.861-5.3391zm-552.71 14.7c8.84 21.61 17.09 49.611 28.57 72.491 15.21 10.57 37.309 2.71 53.259 10.1-11.77 3.23-27.699 1.1791-37.059 6.6391 26.26 12.07 55.379 16.331 83.989 18.211-31.48 7.32-66.93 2.77-99.07-3.9-3.83 6.91 0.2203 18.789-5.0297 23.939-3.36-18.58-5.8603-37.28-9.0703-55.88-4.33-24.02-15.429-47.02-15.589-71.6zm583.13 72.55c-13.48 22.39-30.611 50.021-52.491 68.841 29.56-9.61 47.871-39.201 52.491-68.841zm-83.391 5.05c-23.23 29.85-54.039 58.82-93.959 60.6 16.68 6.69 36.481 8.8906 52.891 0.2906 23.97-10.62 35.509-36.751 41.069-60.891zm161.3 32.83c-6.02 10.19-14.25 19.12-21.2 28.4-1.36 59.25 3.3709 119.17-6.9391 177.88-12.01 61.48-20.551 128.91-63.241 177.95 8.36-1.25 17.201-3.5497 22.811-10.43 22.18-27.32 34.419-60.67 50.219-91.72 13.39-25.87 21.86-55.02 18.3-84.35-0.76-65.78-0.22-132.39 0.05-197.73zm-108.12 48.57c-2.6 1.11-6.7512 1.17-8.1312 3.8-6.83 61.57-36.189 119.97-82.989 160.77 57.01-33.26 89.32-99.75 91.12-164.57zm-218.77 99.345c-15.31 0.01-30.624 0.2447-45.884 0.7047-32.16 3.6-62.931 17.44-88.761 36.43 33.62 17 57.051 50.781 93.841 61.811 24.25 1.23 48.12-5.2712 72.32-5.6312 18.17-3.66 28.169-21.27 25.889-39.3-3.01-16.72 8.03-43.899-11.55-53.369-15.24-0.44-30.545-0.6553-45.855-0.6453zm-390.93 1.0141c-45.7 4.91-92.111 12.78-134.43 31.35 12.93 27.98 31.891 53.33 52.111 76.57 8.8 7.63 18.62 21.04 31.8 15.38 19.56-5.98 38.859-13.739 56.939-23.219 15.23-11.4 36.021-25.601 29.311-47.991-7.32-19.68-15.9-41.901-35.73-52.091zm110.36 3.05c-9.17 5.24-18.279 10.601-27.859 15.081 1.89 3.71 4.0088 7.3997 6.3688 10.93 9.36-6.52 16.561-15.811 21.491-26.011zm497.45 8.2812c-25.59 38.55-63.43 69.22-107.02 85.18 32.05 4.98 70.321 19 103.94 6.8797 21.95-9.04 15.14-36.79 16.82-55.3-1.07-12.01 2.2494-33.869-13.741-36.759zm-386.99 31.839c-12.3 15.5-26.189 29.731-40.559 43.341 13.23 1.33 28.39 1.9103 41.67-1.8797 3.62-13.1 1.4691-30.481-1.1109-41.461zm-99.169 75.891c-9.46 2.94-24.321 5.32-21.631 18.5 10.04 28.69 29.631 62.09 63.491 63.8 1.58 0.29 5.47-0.2903 2.35-1.7703-30.14-14.91-38.529-50.38-44.209-80.53zm384.11 6.6687c-5.842-0.093-11.26 0.9816-7.7797 8.9016 4.1 32.95 1.5397 80.61 41.28 91.68-22.11-28-20.369-66.17-23.009-99.87-1.62-0.28-3.2303-0.3806-4.8203-0.4406-1.7275-0.08-3.7229-0.2394-5.6703-0.2704z"
         id="path6" />
      <path
         style="fill:#d40000;stroke:#d40000;stroke-opacity:1;stroke-width:2.99999998;stroke-miterlimit:4;stroke-dasharray:none"
         id="path1204220"
         transform="matrix(0.80000916,0,0,0.80000916,-0.00839853,0)"
         d="M 1253.5215 223.25977 C 1107.9981 737.44138 962.27373 1251.5981 817.33789 1765.9922 C 844.88758 1755.2423 881.59982 1761.0294 899.72461 1733.4922 C 988.46109 1650.8306 1115.3974 1622.1196 1233.7461 1630.207 C 1302.6203 1634.0445 1371.2554 1652.768 1430.7422 1688.1426 C 1437.9546 1692.405 1445.3681 1697.8054 1454.3555 1695.8555 C 1543.5794 1692.018 1631.7424 1713.0804 1720.9414 1708.9805 C 1749.1911 1689.4932 1784.4633 1679.6048 1818.5879 1686.6172 C 1883.5621 1699.417 1950.0127 1717.9313 2004.0996 1757.3184 C 2050.3991 1791.0055 2071.6228 1846.9166 2086.0352 1900.166 C 2086.9851 1905.8035 2093.7719 1905.0281 2098.1094 1905.7031 C 2206.0831 1914.528 2314.4454 1916.9035 2422.6816 1914.9785 C 2390.182 1787.5175 2369.0424 1657.3817 2350.4551 1527.2207 C 2317.5805 1289.2109 2270.9065 1046.9757 2153.0566 834.64062 C 2101.2197 729.41683 2015.2846 647.32992 1933.4355 565.50586 C 1859.5364 493.46918 1770.4494 440.40717 1684.3379 384.63281 C 1552.8644 304.50873 1407.1783 242.55955 1253.5176 223.32227 L 1253.5215 223.25977 z " />
      <path
         style="fill:#161616;fill-opacity:1;fill-rule:evenodd;stroke:none;stroke-width:0.80000913px;stroke-linecap:butt;stroke-linejoin:miter;stroke-opacity:1"
         d="m 596.94742,1159.6178 112.75825,39.7971 -39.79701,79.5941 -72.96124,-26.5314 z"
         id="path1204227"
         inkscape:connector-curvature="0" />
    </g>
  </g>
</svg>
