<?xml version="1.0" encoding="utf-8"?>
<!-- Generator: Adobe Illustrator 22.1.0, SVG Export Plug-In . SVG Version: 6.00 Build 0)  -->
<svg version="1.1" id="Layer_1" xmlns="http://www.w3.org/2000/svg" xmlns:xlink="http://www.w3.org/1999/xlink" x="0px" y="0px"
	 width="6000px" height="6000px" viewBox="0 0 6000 6000" enable-background="new 0 0 6000 6000" xml:space="preserve">
<g>
	<ellipse fill="#FFDC8C" cx="3000" cy="3000" rx="2242.2" ry="2158.9"/>
	<ellipse fill="#F7945C" cx="2573.9" cy="1508.4" rx="317.2" ry="305.4"/>
	<path fill="#F7945C" d="M1728.4,2280.3c0,120.8-101.7,218.6-227.1,218.6s-227.1-97.9-227.1-218.6c0-120.7,101.7-218.6,227.1-218.6
		S1728.4,2159.6,1728.4,2280.3z"/>
	<path fill="#F7945C" d="M3813.9,2061.7c0,120.7-101.7,218.6-227.1,218.6s-227.1-97.9-227.1-218.6c0-120.8,101.7-218.6,227.1-218.6
		S3813.9,1940.9,3813.9,2061.7z"/>
	<ellipse fill="#F7945C" cx="2573.9" cy="3735" rx="227.1" ry="218.6"/>
	<path fill="#F7945C" d="M2843.7,2408.5c0,85.4-71.9,154.6-160.6,154.6c-88.7,0-160.6-69.2-160.6-154.6
		c0-85.4,71.9-154.6,160.6-154.6C2771.8,2253.9,2843.7,2323.1,2843.7,2408.5z"/>
	<ellipse fill="#F7945C" cx="1649.8" cy="3271.2" rx="375.6" ry="361.7"/>
	<ellipse fill="#F7945C" cx="3586.8" cy="3097.1" rx="375.6" ry="361.7"/>
	<path fill="#F7945C" d="M3000,841.1c-81.6,0-162.1,4.5-241.5,12.6c886.4,101.7,1573.8,827.4,1573.8,1708.3
		c0,950.4-800.2,1720.9-1787.3,1720.9c-914.8,0-1668.6-661.9-1774.2-1515.4c-8.5,76.4-13.1,153.9-13.1,232.5
		c0,1192.3,1003.9,2158.9,2242.2,2158.9c1238.4,0,2242.2-966.6,2242.2-2158.9S4238.4,841.1,3000,841.1z"/>
	<path fill="#FCBD82" d="M5037.4,3000c0,120.8-101.7,218.6-227.1,218.6c-125.4,0-227.1-97.9-227.1-218.6
		c0-120.8,101.7-218.6,227.1-218.6C4935.7,2781.4,5037.4,2879.2,5037.4,3000z"/>
	<path fill="#FCBD82" d="M3535.8,4700.1c0,120.7-101.7,218.6-227.1,218.6c-125.4,0-227.1-97.9-227.1-218.6
		c0-120.8,101.7-218.6,227.1-218.6C3434.1,4481.5,3535.8,4579.4,3535.8,4700.1z"/>
	<path fill="#FCBD82" d="M4416.6,3851.5c0,120.8-101.7,218.6-227.1,218.6c-125.4,0-227.1-97.9-227.1-218.6
		c0-120.7,101.7-218.6,227.1-218.6C4314.9,3632.8,4416.6,3730.7,4416.6,3851.5z"/>
	<path fill="#FCBD82" d="M2346.9,4577.4c0,103.1-86.8,186.6-193.8,186.6s-193.8-83.6-193.8-186.6s86.8-186.6,193.8-186.6
		S2346.9,4474.3,2346.9,4577.4z"/>
	<ellipse fill="#FCBD82" cx="4622.2" cy="2210.8" rx="154.9" ry="149.1"/>
	<ellipse fill="#FCBD82" cx="4117.3" cy="4577.4" rx="154.9" ry="149.1"/>
</g>
</svg>
