<?xml version="1.0" encoding="utf-8"?>
<!-- Generator: Adobe Illustrator 22.1.0, SVG Export Plug-In . SVG Version: 6.00 Build 0)  -->
<svg version="1.1" id="Layer_1" xmlns="http://www.w3.org/2000/svg" xmlns:xlink="http://www.w3.org/1999/xlink" x="0px" y="0px"
	 width="6000px" height="6000px" viewBox="0 0 6000 6000" enable-background="new 0 0 6000 6000" xml:space="preserve">
<g>
	<ellipse fill="#B5D7DC" cx="3000" cy="3000" rx="2266.5" ry="2161.9"/>
	<path fill="#9BB9C3" d="M3000,838.1c-82.5,0-163.9,4.5-244.1,12.7c896,101.8,1590.9,828.6,1590.9,1710.6
		c0,951.7-808.9,1723.3-1806.6,1723.3c-924.7,0-1686.6-662.8-1793.3-1517.5c-8.6,76.5-13.3,154.1-13.3,232.8
		c0,1194,1014.7,2162,2266.5,2162c1251.8,0,2266.5-967.9,2266.5-2162C5266.5,1806,4251.7,838.1,3000,838.1z"/>
	<path fill="#9BB9C3" d="M2243.4,2185.9c0,173-147.1,313.3-328.5,313.3c-181.4,0-328.5-140.3-328.5-313.3s147.1-313.3,328.5-313.3
		C2096.4,1872.5,2243.4,2012.8,2243.4,2185.9z"/>
	<path fill="#9BB9C3" d="M3561.6,2949.7c0,173-147.1,313.3-328.5,313.3c-181.4,0-328.5-140.3-328.5-313.3
		c0-173.1,147.1-313.3,328.5-313.3C3414.5,2636.4,3561.6,2776.7,3561.6,2949.7z"/>
	<path fill="#9BB9C3" d="M4281.1,1840.7c0,138.4-117.6,250.7-262.8,250.7c-145.1,0-262.8-112.2-262.8-250.7
		c0-138.4,117.6-250.7,262.8-250.7C4163.4,1590,4281.1,1702.3,4281.1,1840.7z"/>
	<path fill="#9BB9C3" d="M1718.9,3219.3c0,69.2-58.8,125.3-131.4,125.3c-72.6,0-131.4-56.1-131.4-125.3
		c0-69.2,58.8-125.3,131.4-125.3C1660.1,3094,1718.9,3150.1,1718.9,3219.3z"/>
	<path fill="#A5C8CD" d="M3755.5,4472.6c0,69.2-58.8,125.3-131.4,125.3c-72.6,0-131.4-56.1-131.4-125.3s58.8-125.3,131.4-125.3
		C3696.7,4347.3,3755.5,4403.4,3755.5,4472.6z"/>
	<path fill="#A5C8CD" d="M1944.7,4486.3c0,69.2-58.8,125.3-131.4,125.3s-131.4-56.1-131.4-125.3c0-69.2,58.8-125.3,131.4-125.3
		S1944.7,4417.1,1944.7,4486.3z"/>
	<ellipse fill="#A5C8CD" cx="4462.4" cy="3672.6" rx="303" ry="289"/>
	<path fill="#9BB9C3" d="M2607.4,3636.5c0,86.5-73.5,156.7-164.2,156.7c-90.7,0-164.2-70.1-164.2-156.7
		c0-86.5,73.5-156.7,164.2-156.7C2533.9,3479.8,2607.4,3550,2607.4,3636.5z"/>
	<path fill="#9BB9C3" d="M2901.5,1715.4c0,69.2-58.8,125.3-131.4,125.3c-72.6,0-131.4-56.1-131.4-125.3
		c0-69.2,58.8-125.3,131.4-125.3C2842.6,1590,2901.5,1646.2,2901.5,1715.4z"/>
</g>
</svg>
