<?xml version="1.0" encoding="utf-8"?>
<!-- Generator: Adobe Illustrator 22.1.0, SVG Export Plug-In . SVG Version: 6.00 Build 0)  -->
<svg version="1.1" id="Layer_1" xmlns="http://www.w3.org/2000/svg" xmlns:xlink="http://www.w3.org/1999/xlink" x="0px" y="0px"
	 width="111.5px" height="320.3px" viewBox="0 0 111.5 320.3" enable-background="new 0 0 111.5 320.3" xml:space="preserve">
<g>
	<rect x="53.7" y="3.6" fill="#58595B" width="3.6" height="201.2"/>
	<g>
		<path fill="#FFFFFF" d="M105.7,266.2c-18.6,5.8-20.2,11.3-6.9,25.3c-18.8-4.7-22.7-0.8-18,18c-14.1-13.3-19.5-11.8-25.3,6.9
			c-5.8-18.6-11.3-20.2-25.3-6.9c4.7-18.8,0.8-22.7-18-18c13.3-14.1,11.8-19.5-6.9-25.3c18.6-5.8,20.2-11.3,6.9-25.3
			c18.8,4.7,22.7,0.8,18-18c4.8,4.6,8.7,7.4,11.8,8.4v1.9c-10.3,5.1-16.9,15.7-16.9,27.2c0,16.8,13.6,30.4,30.4,30.4
			c16.8,0,30.4-13.6,30.4-30.4c0-11.5-6.6-22.1-16.9-27.2v-1.9c3.2-1,7-3.8,11.8-8.4c-4.7,18.8-0.8,22.7,18,18
			C85.5,254.9,87.1,260.3,105.7,266.2z"/>
		<g>
			<path fill="#FFFFFF" d="M66,221.1H45c-0.8,0-1.5-0.8-1.5-1.7c0-1,0.7-1.7,1.5-1.7h21c0.8,0,1.5,0.8,1.5,1.7
				C67.5,220.3,66.9,221.1,66,221.1z"/>
			<path fill="#FFFFFF" d="M66,216.2H45c-0.8,0-1.5-0.8-1.5-1.7c0-1,0.7-1.7,1.5-1.7h2.2l2.3-4.6c0,0,1.1-1.5,1.7-1.6
				c0.6-0.2,7-0.9,9,0c0,0,1,0.3,1.7,1.8c0.6,1.1,1.8,3.4,2.4,4.5H66c0.8,0,1.5,0.8,1.5,1.7C67.5,215.5,66.9,216.2,66,216.2z"/>
			<path fill="#FFFFFF" d="M66,225.9H45c-0.8,0-1.5-0.8-1.5-1.7c0-1,0.7-1.7,1.5-1.7h21c0.8,0,1.5,0.8,1.5,1.7
				C67.5,225.2,66.9,225.9,66,225.9z"/>
			<g>
				<path fill="#FFFFFF" d="M62.7,256.4c0.2,0.4,0.3,0.8,0.1,1c-0.1,0.2-0.3,0.3-0.4,0.3c-0.3,0-0.7-0.4-0.9-0.8
					c-0.3-0.6-0.3-1.3-0.2-2C62,255.4,62.5,255.9,62.7,256.4z"/>
				<path fill="#FFFFFF" d="M53.7,257.3c0.1,0.3,0.2,0.9,0,1.1c0,0.1-0.1,0.1-0.1,0.1c-0.1,0-0.2,0-0.3-0.1c-0.4-0.2-0.7-0.5-0.9-1
					c-0.4-0.8-0.4-1.6-0.1-2.3c0.1,0.1,0.1,0.1,0.2,0.2C52.9,256,53.4,256.6,53.7,257.3z"/>
				<path fill="#FFFFFF" d="M47,248c2.8-6.1,5.3-13,7.5-20.9h3.2c2.1,7.4,4.4,13.9,7,19.7c-2.1,1-3.7,2.8-4.6,5.2
					c-1.4-0.6-2.9-0.8-4.5-0.6c-1.3,0.1-2.4,0.4-3.3,0.9C51.4,251.3,49.4,249.1,47,248z"/>
				<path fill="#FFFFFF" d="M42.2,251.8c0,0-0.1,0-0.1,0c-0.3,0-0.6-0.1-0.6-0.3c-0.1-0.5,0.1-0.9,0.3-1.1c0.5-0.7,1.5-1.2,2.2-1.2
					c0.1,0,0.1,0,0.2,0c-0.2,0.3-0.3,0.7-0.5,1C43.3,250.9,42.9,251.7,42.2,251.8z"/>
				<path fill="#FFFFFF" d="M69.3,251.2L69.3,251.2c-0.1,0-0.3-0.1-0.8-0.9l0-0.1c-0.3-0.6-0.6-1.2-0.9-1.9c0.7,0.1,1.3,0.3,1.6,0.7
					c0.3,0.3,0.4,0.8,0.4,1.3C69.6,250.9,69.4,251.1,69.3,251.2z"/>
				<path fill="#FFFFFF" d="M55.5,288.3c-15.6,0-28.3-12.7-28.3-28.3c0-11.4,6.7-21.2,16.4-25.7v-5.5c0-0.9,0.8-1.7,1.7-1.7h7.1
					c-2.2,7.7-4.6,14.3-7.3,20.2c-1.6-0.3-3,0.1-4.2,1.1c-0.8,0.7-1.6,2-1.5,3.2c0.1,0.7,0.4,1.3,1.1,1.7c0.5,0.3,1,0.5,1.5,0.5
					c1.6,0,2.8-1.4,3.4-2.6c0.2-0.4,0.5-0.9,0.7-1.4c1.6,0.8,3.3,2.1,4.7,3.8c-0.4,0.5-0.6,1.2-0.7,1.9c-0.2,1.2,0.4,3,1.4,4
					c1,1.1,2.3,1.3,3.4,0.5c0.6-0.5,1-1,1.1-1.7c0.2-1.5-1.1-3.2-2.1-4.4c0-0.1-0.1-0.1-0.1-0.2c0.3-0.1,0.6-0.2,0.9-0.3
					c1.7-0.4,3.2-0.3,4.3,0.1c0.2,0.1,0.4,0.2,0.6,0.3c-0.1,0.4-0.1,0.8-0.2,1.2c-0.2,1.8,0.3,3,1.5,4c0.5,0.4,1.1,0.6,1.7,0.6
					c0.6,0,1.1-0.2,1.5-0.6c0.7-0.7,1-1.5,0.9-2.3c-0.2-1.7-1.7-3-2.4-3.5c-0.2-0.1-0.4-0.3-0.6-0.4c0.5-1.4,1.6-3.5,3.6-4.3
					c0.4,0.9,0.8,1.7,1.3,2.6c0,0.1,0.1,0.1,0.1,0.2c0.4,0.6,1.3,1.8,2.5,1.8c0.4,0,0.8-0.2,1.2-0.5c1.1-1,1.2-2.7,0.7-3.9
					c-0.6-1.5-2.1-2.5-4.1-2.5c-0.2,0-0.4,0-0.6,0c-2.6-5.7-4.8-12-6.9-19.2h5.9c0.9,0,1.7,0.7,1.7,1.7v5.5
					c9.7,4.5,16.4,14.3,16.4,25.7C83.8,275.6,71.1,288.3,55.5,288.3z"/>
			</g>
		</g>
	</g>
</g>
<g>
</g>
<g>
</g>
<g>
</g>
<g>
</g>
<g>
</g>
<g>
</g>
</svg>
