<?xml version="1.0" encoding="utf-8"?>
<!-- Generator: Adobe Illustrator 22.1.0, SVG Export Plug-In . SVG Version: 6.00 Build 0)  -->
<svg version="1.1" id="Layer_1" xmlns="http://www.w3.org/2000/svg" xmlns:xlink="http://www.w3.org/1999/xlink" x="0px" y="0px"
	 width="111.5px" height="289.9px" viewBox="0 0 111.5 289.9" enable-background="new 0 0 111.5 289.9" xml:space="preserve">
<g>
	<g>
		<g>
			<path fill="#58595B" d="M66,217.5H45c-0.8,0-1.5-0.8-1.5-1.7c0-1,0.7-1.7,1.5-1.7h21c0.8,0,1.5,0.8,1.5,1.7
				C67.5,216.7,66.8,217.5,66,217.5z"/>
			<path fill="#58595B" d="M66,212.6H45c-0.8,0-1.5-0.8-1.5-1.7c0-1,0.7-1.7,1.5-1.7h2.2l2.3-4.6c0,0,1.1-1.5,1.7-1.6
				c0.6-0.2,7-0.9,9,0c0,0,1,0.3,1.7,1.8c0.6,1.1,1.8,3.4,2.4,4.5H66c0.8,0,1.5,0.8,1.5,1.7C67.5,211.9,66.8,212.6,66,212.6z"/>
			<path fill="#58595B" d="M66,222.3H45c-0.8,0-1.5-0.8-1.5-1.7c0-1,0.7-1.7,1.5-1.7h21c0.8,0,1.5,0.8,1.5,1.7
				C67.5,221.6,66.8,222.3,66,222.3z"/>
			<g>
				<path fill="#58595B" d="M62.7,252.8c0.2,0.4,0.3,0.8,0.1,1c-0.1,0.2-0.3,0.3-0.4,0.3c-0.3,0-0.7-0.4-0.9-0.8
					c-0.3-0.6-0.3-1.3-0.2-2C62,251.8,62.5,252.3,62.7,252.8z"/>
				<path fill="#58595B" d="M53.7,253.7c0.1,0.3,0.2,0.9,0,1.1c0,0.1-0.1,0.1-0.1,0.1c-0.1,0-0.2,0-0.3-0.1c-0.4-0.2-0.7-0.5-0.9-1
					c-0.4-0.8-0.4-1.6-0.1-2.3c0.1,0.1,0.1,0.1,0.2,0.2C52.9,252.4,53.4,253,53.7,253.7z"/>
				<path fill="#58595B" d="M47,244.4c2.8-6.1,5.3-13,7.5-20.9h3.2c2.1,7.4,4.4,13.9,7,19.7c-2.1,1-3.7,2.8-4.6,5.2
					c-1.4-0.6-2.9-0.8-4.5-0.6c-1.3,0.1-2.4,0.4-3.3,0.9C51.4,247.7,49.4,245.5,47,244.4z"/>
				<path fill="#58595B" d="M42.2,248.2c0,0-0.1,0-0.1,0c-0.3,0-0.6-0.1-0.6-0.3c-0.1-0.5,0.1-0.9,0.3-1.1c0.5-0.7,1.5-1.2,2.2-1.2
					c0.1,0,0.1,0,0.2,0c-0.2,0.3-0.3,0.7-0.5,1C43.3,247.4,42.9,248.1,42.2,248.2z"/>
				<path fill="#58595B" d="M69.3,247.6L69.3,247.6c-0.1,0-0.3-0.1-0.8-0.9l0-0.1c-0.3-0.6-0.6-1.2-0.9-1.9c0.7,0.1,1.3,0.3,1.6,0.7
					c0.3,0.3,0.4,0.8,0.4,1.3C69.5,247.3,69.4,247.5,69.3,247.6z"/>
				<path fill="#58595B" d="M55.5,284.7c-15.6,0-28.3-12.7-28.3-28.3c0-11.4,6.7-21.2,16.4-25.7v-5.5c0-0.9,0.7-1.7,1.7-1.7h7.1
					c-2.2,7.7-4.6,14.3-7.3,20.2c-1.6-0.3-3,0.1-4.2,1.1c-0.8,0.7-1.6,2-1.5,3.2c0.1,0.7,0.4,1.3,1.1,1.7c0.5,0.3,1,0.5,1.5,0.5
					c1.6,0,2.8-1.4,3.4-2.6c0.2-0.4,0.5-0.9,0.7-1.4c1.6,0.8,3.3,2.1,4.6,3.8c-0.4,0.5-0.6,1.2-0.7,1.9c-0.2,1.2,0.4,3,1.4,4
					c1,1.1,2.3,1.3,3.4,0.5c0.6-0.5,1-1,1.1-1.7c0.2-1.5-1.1-3.2-2.1-4.4c0-0.1-0.1-0.1-0.1-0.2c0.3-0.1,0.6-0.2,0.9-0.3
					c1.7-0.4,3.2-0.3,4.3,0.1c0.2,0.1,0.4,0.2,0.6,0.3c-0.1,0.4-0.1,0.8-0.2,1.2c-0.2,1.8,0.3,3,1.5,4c0.5,0.4,1.1,0.6,1.7,0.6
					c0.6,0,1.1-0.2,1.5-0.6c0.7-0.7,1-1.5,0.9-2.3c-0.2-1.7-1.7-3-2.4-3.5c-0.2-0.1-0.4-0.3-0.6-0.4c0.5-1.4,1.6-3.5,3.6-4.3
					c0.4,0.9,0.8,1.7,1.3,2.6c0,0.1,0.1,0.1,0.1,0.2c0.4,0.6,1.3,1.8,2.5,1.8c0.4,0,0.8-0.2,1.2-0.5c1.1-1,1.2-2.7,0.7-3.9
					c-0.6-1.5-2.1-2.5-4.1-2.5c-0.2,0-0.4,0-0.6,0c-2.6-5.7-4.8-12-6.9-19.2h5.9c0.9,0,1.7,0.7,1.7,1.7v5.5
					c9.7,4.5,16.4,14.3,16.4,25.7C83.8,272,71.1,284.7,55.5,284.7z"/>
			</g>
		</g>
	</g>
	<rect x="53.7" y="3.6" fill="#58595B" width="3.6" height="201.2"/>
</g>
<g>
</g>
<g>
</g>
<g>
</g>
<g>
</g>
<g>
</g>
<g>
</g>
</svg>
