<?xml version="1.0" encoding="utf-8"?>
<!-- Generator: Adobe Illustrator 22.1.0, SVG Export Plug-In . SVG Version: 6.00 Build 0)  -->
<svg version="1.1" id="Layer_1" xmlns="http://www.w3.org/2000/svg" xmlns:xlink="http://www.w3.org/1999/xlink" x="0px" y="0px"
	 width="123.9px" height="111.3px" viewBox="0 0 123.9 111.3" enable-background="new 0 0 123.9 111.3" xml:space="preserve">
<g>
	<g>
		<linearGradient id="SVGID_1_" gradientUnits="userSpaceOnUse" x1="4.1767" y1="106.207" x2="215.5234" y2="-88.1219">
			<stop  offset="5.376340e-03" style="stop-color:#5EAC46"/>
			<stop  offset="1" style="stop-color:#295D2E"/>
		</linearGradient>
		<path fill="url(#SVGID_1_)" d="M87.5,84.1H73.1l-2.7,2.6c-3.1,3-7.2,4.7-11.5,4.7c-4.3,0-8.4-1.7-11.5-4.7l-2.7-2.6H30.7V70.3
			l-5.6-5.5c-3.1-3.1-4.9-7.2-4.9-11.5c-0.1-4.4,1.6-8.5,4.7-11.7c1.7-1.7,3.7-3,5.9-3.9V27.3h53.5L94.7,17c1-1,2.1-1.8,3.2-2.4h-80
			v82.3h82.3V57.6L87.5,70.1V84.1z"/>
		<linearGradient id="SVGID_2_" gradientUnits="userSpaceOnUse" x1="3.1344" y1="105.0734" x2="214.4808" y2="-89.2552">
			<stop  offset="5.376340e-03" style="stop-color:#5EAC46"/>
			<stop  offset="1" style="stop-color:#295D2E"/>
		</linearGradient>
		<path fill="url(#SVGID_2_)" d="M113.4,21.7c-3.9-4-10.2-4-14.2-0.2L59,61L43.6,45.9c-4-3.9-10.3-3.8-14.2,0.2
			c-3.9,4-3.8,10.3,0.2,14.2L52,82.2c2,1.9,4.5,2.9,7,2.9c2.5,0,5.1-1,7-2.9l47.2-46.2C117.2,32.1,117.3,25.7,113.4,21.7z"/>
	</g>
	<g>
		<linearGradient id="SVGID_3_" gradientUnits="userSpaceOnUse" x1="103.4064" y1="15.3686" x2="2.6436" y2="107.1043">
			<stop  offset="5.376340e-03" style="stop-color:#5EAC46"/>
			<stop  offset="1" style="stop-color:#295D2E"/>
		</linearGradient>
		<path fill="url(#SVGID_3_)" d="M88.1,84.7H73.4l-2.5,2.4C67.7,90.3,63.5,92,59,92c-4.5,0-8.7-1.7-11.9-4.8l-2.5-2.5H30.1V70.6
			l-5.4-5.3c-3.3-3.2-5.1-7.4-5.1-12c-0.1-4.5,1.7-8.8,4.8-12.1c1.6-1.7,3.5-3,5.7-3.8V26.7H84l10.3-10.1c0.5-0.5,1.1-1,1.7-1.4
			H18.5v81.1h81.1V59L88.1,70.3V84.7z"/>
		<linearGradient id="SVGID_4_" gradientUnits="userSpaceOnUse" x1="102.4162" y1="14.2817" x2="1.6529" y2="106.0178">
			<stop  offset="5.376340e-03" style="stop-color:#5EAC46"/>
			<stop  offset="1" style="stop-color:#295D2E"/>
		</linearGradient>
		<path fill="url(#SVGID_4_)" d="M113,22.2c-1.8-1.8-4.2-2.8-6.7-2.8c-2.5,0-4.8,1-6.6,2.7L59,61.8L43.1,46.3
			c-1.8-1.7-4.1-2.7-6.6-2.7c-2.6,0-5,1-6.8,2.8c-1.8,1.8-2.7,4.2-2.7,6.7c0,2.5,1,4.9,2.8,6.6l22.4,21.9c1.8,1.7,4.1,2.7,6.6,2.7
			c2.5,0,4.8-1,6.6-2.7l47.2-46.2c1.8-1.8,2.8-4.1,2.8-6.6C115.7,26.3,114.7,24,113,22.2z"/>
	</g>
</g>
<g>
</g>
<g>
</g>
<g>
</g>
<g>
</g>
<g>
</g>
<g>
</g>
</svg>
