<?xml version="1.0" encoding="utf-8"?>
<!-- Generator: Adobe Illustrator 22.1.0, SVG Export Plug-In . SVG Version: 6.00 Build 0)  -->
<svg version="1.1" id="Layer_1" xmlns="http://www.w3.org/2000/svg" xmlns:xlink="http://www.w3.org/1999/xlink" x="0px" y="0px"
	 width="123.9px" height="111.3px" viewBox="0 0 123.9 111.3" enable-background="new 0 0 123.9 111.3" xml:space="preserve">
<g>
	<linearGradient id="SVGID_1_" gradientUnits="userSpaceOnUse" x1="109.8745" y1="-22.1938" x2="-52.0722" y2="107.2394">
		<stop  offset="0" style="stop-color:#EC2227"/>
		<stop  offset="0.207" style="stop-color:#C82527"/>
		<stop  offset="0.6519" style="stop-color:#80201E"/>
		<stop  offset="1" style="stop-color:#4F1311"/>
	</linearGradient>
	<polygon fill="url(#SVGID_1_)" points="70.3,26.5 82.8,14.3 42.9,14.3 54.9,26.5 	"/>
	<linearGradient id="SVGID_2_" gradientUnits="userSpaceOnUse" x1="148.2945" y1="25.8777" x2="-13.6516" y2="155.3104">
		<stop  offset="0" style="stop-color:#EC2227"/>
		<stop  offset="0.207" style="stop-color:#C82527"/>
		<stop  offset="0.6519" style="stop-color:#80201E"/>
		<stop  offset="1" style="stop-color:#4F1311"/>
	</linearGradient>
	<polygon fill="url(#SVGID_2_)" points="54.1,84.1 41.6,96.3 81.5,96.3 69.5,84.1 	"/>
	<linearGradient id="SVGID_3_" gradientUnits="userSpaceOnUse" x1="112.7714" y1="-18.571" x2="-49.1771" y2="110.8636">
		<stop  offset="0" style="stop-color:#EC2227"/>
		<stop  offset="0.207" style="stop-color:#C82527"/>
		<stop  offset="0.6519" style="stop-color:#80201E"/>
		<stop  offset="1" style="stop-color:#4F1311"/>
	</linearGradient>
	<polygon fill="url(#SVGID_3_)" points="21.2,34.7 21.2,74.6 33.4,62.6 33.4,47.2 	"/>
	<linearGradient id="SVGID_4_" gradientUnits="userSpaceOnUse" x1="145.3986" y1="22.254" x2="-16.5469" y2="151.6862">
		<stop  offset="0" style="stop-color:#EC2227"/>
		<stop  offset="0.207" style="stop-color:#C82527"/>
		<stop  offset="0.6519" style="stop-color:#80201E"/>
		<stop  offset="1" style="stop-color:#4F1311"/>
	</linearGradient>
	<polygon fill="url(#SVGID_4_)" points="103.2,75.9 103.2,36 91,48 91,63.4 	"/>
	<linearGradient id="SVGID_5_" gradientUnits="userSpaceOnUse" x1="129.0847" y1="1.8417" x2="-32.8621" y2="131.2749">
		<stop  offset="0" style="stop-color:#EC2227"/>
		<stop  offset="0.207" style="stop-color:#C82527"/>
		<stop  offset="0.6519" style="stop-color:#80201E"/>
		<stop  offset="1" style="stop-color:#4F1311"/>
	</linearGradient>
	<path fill="url(#SVGID_5_)" d="M75.6,55.4L105.7,26c1.8-1.8,2.8-4.1,2.8-6.7c0-2.5-0.9-4.9-2.7-6.7c-1.8-1.8-4.2-2.8-6.8-2.8
		c-2.5,0-4.8,1-6.6,2.7L62.3,41.9l-29.4-30C31.1,10,28.7,9,26.2,9c-2.5,0-4.8,1-6.6,2.7c-1.8,1.8-2.8,4.1-2.8,6.7
		c0,2.5,0.9,4.9,2.7,6.7l29.4,30.1l-30,29.4c-1.8,1.8-2.8,4.1-2.8,6.7c0,2.5,0.9,4.9,2.7,6.7c1.8,1.8,4.2,2.8,6.8,2.8
		c2.5,0,4.8-1,6.6-2.7l30.1-29.4l29.4,30c1.8,1.8,4.2,2.8,6.8,2.8c2.5,0,4.8-1,6.6-2.7c1.8-1.8,2.8-4.1,2.8-6.7
		c0-2.5-0.9-4.9-2.7-6.7L75.6,55.4z"/>
</g>
<g>
</g>
<g>
</g>
<g>
</g>
<g>
</g>
<g>
</g>
<g>
</g>
</svg>
