<?xml version="1.0" encoding="utf-8"?>
<!-- Generator: Adobe Illustrator 22.1.0, SVG Export Plug-In . SVG Version: 6.00 Build 0)  -->
<svg version="1.1" id="Layer_1" xmlns="http://www.w3.org/2000/svg" xmlns:xlink="http://www.w3.org/1999/xlink" x="0px" y="0px"
	 width="448.9px" height="458.8px" viewBox="0 0 448.9 458.8" style="enable-background:new 0 0 448.9 458.8;" xml:space="preserve"
	>
<g>
	<g>
		
			<circle style="fill:#F7BB34;stroke:#000000;stroke-width:14;stroke-linecap:round;stroke-miterlimit:10;" cx="224.5" cy="229.4" r="213.4"/>
	</g>
</g>
<path d="M352.1,223.1H231.8v-98.8c0-3.9-3.1-7-7-7s-7,3.1-7,7v98.8H97.4c-3.9,0-7,3.1-7,7c0,3.9,3.1,7,7,7h120.3v98.8
	c0,3.9,3.1,7,7,7s7-3.1,7-7v-98.8h120.3c3.9,0,7-3.1,7-7C359.1,226.2,355.9,223.1,352.1,223.1z"/>
</svg>
