<?xml version="1.0" encoding="utf-8"?>
<!-- Generator: Adobe Illustrator 22.1.0, SVG Export Plug-In . SVG Version: 6.00 Build 0)  -->
<svg version="1.1" id="Layer_1" xmlns="http://www.w3.org/2000/svg" xmlns:xlink="http://www.w3.org/1999/xlink" x="0px" y="0px"
	 width="6000px" height="6000px" viewBox="0 0 6000 6000" enable-background="new 0 0 6000 6000" xml:space="preserve">
<g>
	<g>
		<ellipse fill="#C8A06E" cx="2999" cy="3000.2" rx="2184.6" ry="2153.7"/>
		<path fill="#A56941" d="M2999,846.5c-79.5,0-158,4.4-235.3,12.6c863.6,101.4,1533.4,825.4,1533.4,1704.1
			c0,948.1-779.6,1716.7-1741.3,1716.7c-891.3,0-1625.7-660.3-1728.6-1511.7c-8.3,76.2-12.8,153.6-12.8,232
			c0,1189.4,978.1,2153.7,2184.6,2153.7s2184.6-964.2,2184.6-2153.7S4205.5,846.5,2999,846.5z"/>
	</g>
	<path fill="#823214" d="M2050.1,4940.6c513.7-92.3,1129.4-350.7,1738.5-757.8c631.4-422.1,1114.7-909.8,1387-1359.6
		c-9.7-117.8-28.8-233.1-57-344.8c-193.2,450.9-684.5,1021.5-1448.5,1532.2c-732.8,489.8-1424.9,729.7-1918.2,757.5
		C1846.3,4832.9,1945.7,4890.9,2050.1,4940.6z"/>
	<path fill="#A56941" d="M4730.3,1687.4c-147.5,467.3-657.6,1100.2-1496.5,1660.9c-833.4,557.1-1614.4,791.1-2109.8,757.1
		c44.4,73.1,93.3,143.2,146,210.3c28.3-0.8,56.9-1.8,86.1-3.9c557.3-39.8,1281.6-313.6,1996.2-791.3
		c756.8-505.9,1301.2-1106.2,1523.7-1622.3C4831.6,1825,4782.9,1754.7,4730.3,1687.4z"/>
	<g>
		<path fill="#823214" d="M4876,1898.3L4876,1898.3c-44.3-73.3-93.1-143.6-145.7-210.8c-68.7,217.5-216.9,471.1-439.3,736.4
			c3.8,46,6.1,92.5,6.1,139.4c0,60.1-3.2,119.4-9.3,177.9C4559.5,2454.1,4761,2165,4876,1898.3z"/>
		<path fill="#823214" d="M1688.5,4051.6c-212.8,47.2-403.8,64.9-564.5,53.9c44.4,73.1,93.3,143.2,146,210.3
			c28.3-0.8,56.9-1.8,86.1-3.9c193.2-13.8,406.9-56.4,632.9-125.2C1883.9,4151,1783.4,4105.5,1688.5,4051.6z"/>
	</g>
	<path fill="#A56941" d="M4390.8,1340.2c-55.1-44.9-112.4-87.2-171.8-126.7c-209.7,440.9-690.8,984.2-1421.6,1472.7
		c-741.9,495.9-1441.9,735.5-1936.3,758.3c14.8,69.8,33.1,138.3,54.6,205.4c1.3-0.1,2.6-0.1,3.9-0.2
		c557.3-39.8,1281.6-313.6,1996.2-791.2C3622.4,2386.1,4143.5,1831.8,4390.8,1340.2z"/>
	<g>
		<path fill="#823214" d="M4219.1,1213.5c-56.6,119.1-133.3,245.6-229.1,376.5c43,61.5,82,125.8,116.7,192.7
			c116.6-150.5,212-299.1,284.2-442.5C4335.8,1295.3,4278.5,1253,4219.1,1213.5z"/>
		<path fill="#823214" d="M1050.8,3426.5c-66.1,9.3-129.4,15.2-189.7,18c14.8,69.8,33.1,138.3,54.6,205.4c1.3-0.1,2.6-0.1,3.9-0.2
			c83.3-5.9,170.6-17.7,260.7-34C1133.2,3555.6,1089.8,3492.4,1050.8,3426.5z"/>
	</g>
</g>
</svg>
