<?xml version="1.0" encoding="utf-8"?>
<!-- Generator: Adobe Illustrator 22.1.0, SVG Export Plug-In . SVG Version: 6.00 Build 0)  -->
<svg version="1.1" id="Layer_1" xmlns="http://www.w3.org/2000/svg" xmlns:xlink="http://www.w3.org/1999/xlink" x="0px" y="0px"
	 width="6000px" height="6000px" viewBox="0 0 6000 6000" enable-background="new 0 0 6000 6000" xml:space="preserve">
<g>
	<ellipse fill="#FF3C3C" cx="2999.6" cy="3000.3" rx="2193" ry="2162.6"/>
	<ellipse fill="#BE1423" cx="3041.7" cy="1497.7" rx="481.1" ry="118.6"/>
	<path fill="#BE1423" d="M2490,3131.8c0,93.5-250.5,169.4-559.5,169.4s-559.5-75.8-559.5-169.4c0-93.5,250.5-169.4,559.5-169.4
		S2490,3038.3,2490,3131.8z"/>
	<path fill="#BE1423" d="M2825.7,2191.8c0,65.5-342.1,118.6-764.2,118.6s-764.2-53.1-764.2-118.6c0-65.5,342.1-118.6,764.2-118.6
		S2825.7,2126.3,2825.7,2191.8z"/>
	<path fill="#BE1423" d="M4003.6,2683.6c0,42.8-246.9,77.6-551.5,77.6c-304.6,0-551.5-34.7-551.5-77.6c0-42.8,246.9-77.6,551.5-77.6
		C3756.7,2606,4003.6,2640.8,4003.6,2683.6z"/>
	<path fill="#BE1423" d="M3452.1,3694.6c0,37.5-209.7,67.8-468.3,67.8c-258.6,0-468.3-30.4-468.3-67.8c0-37.5,209.7-67.8,468.3-67.8
		C3242.4,3626.8,3452.1,3657.2,3452.1,3694.6z"/>
	<path fill="#BE1423" d="M2999.6,837.7c-79.8,0-158.6,4.5-236.2,12.7c866.9,101.8,1539.3,828.8,1539.3,1711.1
		c0,952-782.6,1723.8-1748,1723.8c-894.7,0-1632-663-1735.2-1517.9c-8.3,76.5-12.8,154.2-12.8,232.9
		c0,1194.3,981.8,2162.6,2193,2162.6c1211.2,0,2193-968.2,2193-2162.6C5192.7,1805.9,4210.8,837.7,2999.6,837.7z"/>
</g>
</svg>
