<?xml version="1.0" encoding="utf-8"?>
<!-- Generator: Adobe Illustrator 22.1.0, SVG Export Plug-In . SVG Version: 6.00 Build 0)  -->
<svg version="1.1" id="Layer_1" xmlns="http://www.w3.org/2000/svg" xmlns:xlink="http://www.w3.org/1999/xlink" x="0px" y="0px"
	 width="203.3px" height="159.9px" viewBox="0 0 203.3 159.9" enable-background="new 0 0 203.3 159.9" xml:space="preserve">
<g>
	<path fill="#F99E1C" d="M81.4,43.3C78.3,51.6,71.2,55,71.2,55s-1.1-0.6-2.8-1.9c-2-1.5-4.9-3.9-7.7-7.1c-1.8-2.1-3.6-4.6-5-7.3
		c-0.5-1-1-2-1.4-3.1c-0.8-2.2-1.4-4.3-1.8-6.4c-0.4-2.5-0.6-4.8-0.5-6.9c0-0.1,0-0.2,0-0.3C52.3,15,54.9,9.9,56.2,9
		c1.4-0.9,2.5,3.1,9,10.2c0.8,0.9,1.8,1.9,2.8,2.9c1.6,1.6,3.6,3.4,5.8,5.2c1.2,1,2.6,2.1,4.1,3.2c0.8,0.6,1.6,1.2,2.4,1.8
		c0.4,0.3,0.7,0.5,1.1,0.8c0,0,0.3,0.8,0.6,2.2C82.3,37.2,82.5,40.1,81.4,43.3z"/>
	<path fill="#EF4134" d="M68,22.1c-1.3,1.3-3.4,3-6.4,4.4c-3.4,1.6-6.8,2.4-9,2.8c-0.4-2.5-0.6-4.8-0.5-6.9c0-0.1,0-0.2,0-0.3
		c1.7,0,4.7-0.1,7.7-0.8c2.4-0.5,4.2-1.4,5.4-2.1C66.1,20.1,67,21.1,68,22.1z"/>
	<path fill="#EF4134" d="M77.8,30.6c-1.1,2.1-3.7,6.2-8.1,9.9c-3.1,2.6-6.5,4.5-8.9,5.6c-1.8-2.1-3.6-4.6-5-7.3
		c1.7-0.5,4.5-1.5,8.5-3.7c5.3-2.9,8.3-6.2,9.5-7.8C75,28.4,76.4,29.4,77.8,30.6z"/>
	<ellipse opacity="0.44" fill="#9B9B9B" cx="101.2" cy="141.5" rx="93.8" ry="13.8"/>
	<path opacity="0.13" fill="#57110C" d="M82,35.3L68.4,53.1c-3.8-2.9-10.7-8.8-14.1-17.5c-1.9-4.8-2.4-9.4-2.3-13.3
		c1.8,3.8,5.1,8.6,11.1,11.3c8.1,3.6,14.4,0.5,17-1.3c0.4,0.3,0.7,0.5,1.1,0.8C81.3,33.2,81.7,34,82,35.3z"/>
	<path fill="#453652" d="M60.4,134.3c0,0,3.7,1.4,3.7,2.2c0,0.8-5.3-0.4-5.3-0.4s0.2,2.9-2.5,2.8c-2.7-0.2-3.4-2.7-3.4-2.7
		s-5.5,2.1-7.7,0.7c-2.2-1.4,2.5-2.3,2.5-2.3s-6.3-0.3-6.7-1.4c-0.4-1.1,6.4-1.7,6.4-1.7L60.4,134.3z"/>
	<path fill="#453652" d="M134,146.8c0,0-4.7-0.6-5.4,0.8c-0.7,1.4,6.4,1.7,6.4,1.7s3.2,3.8,6.5,3.9c3.3,0.1,3.3-3.8,3.3-3.8
		s8.2,3.1,11.2,2c2.9-1.1-1.9-3.8-1.9-3.8s5.7,1.5,5.7,0c0-1.5-8.8-2.5-8.8-2.5L134,146.8z"/>
	<path fill="#029679" d="M65.7,74.4c0,0-16.4-14-17.4-16.6c-1-2.6-0.4-5.8-0.1-9.1c0.5-4.9,1.5-4.8,1.5-5.4c0-1-2.1-1.2-3.2,0.7
		c-1.1,1.9-1.3,4.7-1.3,4.7s-6.5-7.9-7.7-7.6c-1.2,0.3,2.4,6.6,2.4,6.6s-6.7-4.3-7.8-3.6c-1,0.7,4.6,5.5,4.6,5.5s-5.4-2.2-6.4-1.8
		c-1,0.4,4.6,3.8,4.6,3.8s-4.2,0.2-4.2,1.3c0,0.6,5.2,2.2,6,2.6c0.9,0.4,8.2,3.9,8.2,3.9l12.9,27.4L65.7,74.4z"/>
	<linearGradient id="SVGID_1_" gradientUnits="userSpaceOnUse" x1="100.615" y1="147.6367" x2="100.615" y2="19.3331">
		<stop  offset="0" style="stop-color:#029679"/>
		<stop  offset="1" style="stop-color:#03B795"/>
	</linearGradient>
	<path fill="url(#SVGID_1_)" d="M151,145.2c-5.5,4.3-17,1.6-17,1.6s-6-12.7-10.7-15.6c-3.4-2-43.9-5.8-49.3-4.2
		c-5,1.4-13.5,7.3-13.5,7.3s-2.8,0.3-6.7-0.5c-3.5-0.7-6.1-2.4-6.1-2.4s-0.7-18.8,0-33c0.7-14.1,22.4-55.4,30.9-62.4
		c2.3-1.9,5.7-4.1,9.5-6.4c10.4-6,24.2-11.7,30-10.1c8,2.1,26.2,28.5,33,62.7S151,145.2,151,145.2z"/>
	
		<ellipse transform="matrix(0.1824 -0.9832 0.9832 0.1824 30.045 164.2194)" fill="#029679" cx="113.8" cy="64" rx="17.8" ry="13.7"/>
	<g>
		<path fill="#CBE6EE" d="M124.5,66.6c-0.2,0.8-0.4,1.6-0.7,2.3c-0.6,1.7-1.4,3.3-2.3,4.7c-1.9,2.7-4.3,4.7-6.9,5.6
			c-1.3,0.4-2.7,0.6-4.1,0.4c-0.3,0-0.5-0.1-0.8-0.1c-6.3-1.4-9.8-9.5-7.9-18c1.9-8.5,8.5-14.3,14.8-12.9
			C122.9,50,126.4,58,124.5,66.6z"/>
		
			<ellipse transform="matrix(0.2183 -0.9759 0.9759 0.2183 25.636 159.8505)" fill="#FFFFFF" cx="112.6" cy="63.9" rx="15.1" ry="11.1"/>
		<linearGradient id="SVGID_2_" gradientUnits="userSpaceOnUse" x1="109.1001" y1="71.926" x2="123.8318" y2="71.926">
			<stop  offset="0" style="stop-color:#A43422"/>
			<stop  offset="1" style="stop-color:#701811"/>
		</linearGradient>
		<path fill="url(#SVGID_2_)" d="M123.8,68.9c-0.6,1.7-1.4,3.3-2.3,4.7c-1.9,2.7-4.3,4.7-6.9,5.6c-1.3,0.4-2.7,0.6-4.1,0.4
			c-1.8-2.3-1.9-6.3,0-9.9c0,0,0-0.1,0.1-0.1c0.5-0.9,1-1.7,1.7-2.4c2.5-2.9,6.1-4,8.8-2.6C122.5,65.6,123.5,67.1,123.8,68.9z"/>
		<path fill="#57110C" d="M121.5,73.7c-1.9,2.7-4.3,4.7-6.9,5.6c-0.4-0.1-0.8-0.2-1.2-0.4c-2.4-1.3-2.9-4.9-1.1-8.2
			c1.7-3.2,5.1-4.8,7.5-3.5C121.6,68.2,122.3,70.9,121.5,73.7z"/>
		<path fill="#FFFFFF" d="M113.8,71.3c-0.3,1.2,0.4,2.3,1.5,2.6c1.2,0.3,2.3-0.4,2.6-1.5s-0.4-2.3-1.5-2.6
			C115.3,69.4,114.1,70.1,113.8,71.3z"/>
		<path fill="#FFFFFF" d="M109.8,68.1c-0.2,0.8,0.3,1.6,1.1,1.9c0.8,0.2,1.6-0.3,1.9-1.1c0.2-0.8-0.3-1.6-1.1-1.9
			C110.9,66.8,110,67.3,109.8,68.1z"/>
	</g>
	<path fill="#029679" d="M91.4,64.3C88.7,73.7,81.4,79.7,75,77.5s-9.3-11.5-6.6-21s10.1-15.4,16.4-13.2
		C91.2,45.5,94.2,54.9,91.4,64.3z"/>
	<g>
		<path fill="#CBE6EE" d="M91.2,64.6c-0.3,0.8-0.5,1.5-0.9,2.3c-0.7,1.7-1.6,3.2-2.6,4.5c-2,2.5-4.3,4.2-6.7,4.8
			c-1.2,0.3-2.4,0.3-3.6,0c-0.2-0.1-0.5-0.1-0.7-0.2c-5.3-2-7.5-10.4-4.8-18.7c2.7-8.3,9.2-13.4,14.5-11.3
			C91.7,47.9,93.9,56.3,91.2,64.6z"/>
		<ellipse transform="matrix(0.269 -0.9631 0.9631 0.269 0.7852 122.513)" fill="#FFFFFF" cx="81.1" cy="60.7" rx="15" ry="9.8"/>
		
			<linearGradient id="SVGID_3_" gradientUnits="userSpaceOnUse" x1="29.9792" y1="98.1963" x2="42.9477" y2="98.1963" gradientTransform="matrix(0.993 0.1181 -0.1181 0.993 58.9328 -32.7272)">
			<stop  offset="0" style="stop-color:#A43422"/>
			<stop  offset="1" style="stop-color:#701811"/>
		</linearGradient>
		<path fill="url(#SVGID_3_)" d="M90.3,66.9c-0.7,1.7-1.6,3.2-2.6,4.5c-2,2.5-4.3,4.2-6.7,4.8c-1.2,0.3-2.4,0.3-3.6,0
			c-1.3-2.5-0.9-6.5,1.2-9.8c0,0,0-0.1,0.1-0.1c0.5-0.8,1.1-1.6,1.7-2.2c2.6-2.6,5.8-3.3,8-1.6C89.6,63.4,90.2,65,90.3,66.9z"/>
		<path fill="#57110C" d="M87.7,71.3c-2,2.5-4.3,4.2-6.7,4.8c-0.4-0.1-0.7-0.3-1-0.5c-1.9-1.5-1.9-5.2,0-8.2c1.9-3,5-4.2,6.9-2.7
			C88.5,65.9,88.8,68.7,87.7,71.3z"/>
		<path fill="#FFFFFF" d="M81.3,68.1c-0.4,1.1,0.1,2.4,1,2.8c1,0.4,2.1-0.1,2.5-1.2s-0.1-2.4-1-2.8C82.9,66.5,81.7,67,81.3,68.1z"/>
		<path fill="#FFFFFF" d="M78.2,64.6c-0.3,0.8,0,1.7,0.7,2c0.7,0.3,1.5-0.1,1.7-0.9c0.3-0.8,0-1.7-0.7-2
			C79.2,63.4,78.5,63.8,78.2,64.6z"/>
	</g>
	<path fill="#57110C" d="M113,108.7c-0.1-0.4-1.5-4.1-12.7-8c-11.9-4.2-23-3.4-23-3.4s0.2-2.3,0.9-5.4C79.7,85.1,83.8,75,94,78.2
		c11.2,3.5,16.3,19,18.1,26.4c0.5,2,0.7,3.4,0.8,3.9L113,108.7z"/>
	<path fill="#8B182A" d="M113,108.7c-0.1-0.4-1.5-4.1-12.7-8c-11.9-4.2-23-3.4-23-3.4l0.3-2.5c0,0,8.4-3.2,17.5-1
		c10.1,2.5,17,10.9,17,10.9l0.8,3.9L113,108.7z"/>
	<path fill="#FFFFFF" d="M103.2,86l-1.8,1.4l-3.8,2.9l-1-8.8l-0.1-1.1l-1.5,0.3l-3.1,0.6l-0.8-1.6L91,79.3l-0.3,0.2l-2.4,1.6
		l-0.5-1.2L87.5,79l-0.7,1.3l-4.5,8.2v-5.8c0,0,2.4-4.5,7.7-4.5c4,0,7.1,1.6,9.3,3.4c0,0,0,0,0,0c0.6,0.5,1.1,1,1.6,1.4
		C102.4,84.6,103.2,86,103.2,86z"/>
	<polygon fill="#FFFFFF" points="76.1,97.1 74.1,84.8 84.9,97.7 	"/>
	<polygon fill="#FFFFFF" points="98.8,99.9 114.6,90.3 108.8,105.9 	"/>
	<path fill="#57110C" d="M71.2,98.9l4.8-2.6c0,0,6.8-1.6,17.4,0.8c20.8,4.7,22.6,17.5,22.6,17.5s-5.2-12-23.7-15
		C81,97.7,75,100.3,75,100.3L71.2,98.9z"/>
	<path fill="#8FCEDC" d="M103.2,86l-1.8,1.4c-0.4-1-1.7-3.9-4.7-5.9l-0.1-1.1l-1.5,0.3c-0.7-0.3-1.6-0.6-2.5-0.8
		c-0.5-0.1-1-0.2-1.5-0.2L91,79.3l-0.3,0.2c-1.1,0-2,0.1-2.9,0.4L87.5,79l-0.7,1.3c-3,1.3-4.5,3.9-4.5,3.9v-1.5c0,0,2.4-4.5,7.7-4.5
		c4,0,7.1,1.6,9.3,3.4c0,0,0,0,0,0c0.5,0.5,1.1,1,1.6,1.4C102.4,84.6,103.2,86,103.2,86z"/>
	<path fill="#048A6F" d="M78.5,90.1l-0.9-1c0,0,2.2-12.9,12.2-12.9c13.5,0,19.9,17,19.9,17l-1.1,0.8c0,0-7.3-16.9-18.7-16.3
		C80.6,78.1,78.5,90.1,78.5,90.1z"/>
	<path fill="#57110C" d="M129.3,46.3c0,0-2-4.2-6.4-8c-4.4-3.8-6.7-4.2-6.7-4.2l6-0.1l-1.9-2.2c0,0,5.4,0.3,8.4,4
		c3,3.7,2.8,9.4,2.8,9.4l-1.8-2.3L129.3,46.3z"/>
	<path fill="#F99E1C" d="M163.9,31.6c0,0.2,0,0.4-0.1,0.6c-0.3,2.8-0.9,5.8-2.1,8.8c-0.4,1-0.8,2-1.3,3c-1.2,2.4-2.6,4.5-4.1,6.3
		c-5.2,6.5-11.4,10.1-11.4,10.1s-7.1-3.4-10.2-11.7c-1.8-5-0.2-9.5,0-10.1c0,0,0-0.1,0-0.1c0.3-0.2,0.5-0.4,0.8-0.6
		c1-0.7,2-1.5,3-2.2c1.1-0.8,2.1-1.6,3.1-2.4c3-2.4,5.4-4.7,7.4-6.8c0.9-0.9,1.7-1.8,2.4-2.6c6-6.7,7.1-10.5,8.5-9.6
		c1.3,0.8,3.6,5.4,4.1,11.9C164,28,164,29.7,163.9,31.6z"/>
	<linearGradient id="SVGID_4_" gradientUnits="userSpaceOnUse" x1="142.7212" y1="67.7207" x2="189.0746" y2="67.7207">
		<stop  offset="0" style="stop-color:#029679"/>
		<stop  offset="1" style="stop-color:#03B795"/>
	</linearGradient>
	<path fill="url(#SVGID_4_)" d="M144.8,73.1c0,0,19.9-8.2,21.7-10.4c1.7-2.2,2.2-5.9,3.4-9.1c1.1-3.1-0.2-4.8,0.2-5.3
		c0.7-0.8,2,0.3,2.5,2.4c0.5,2.1-0.3,4.3-0.3,4.3s9.6-6.1,10.7-5.4c1.1,0.6-5.4,6.1-5.4,6.1s9.3-2.8,10.1-1.8c0.8,1-7.7,4.6-7.7,4.6
		s8.3-0.4,9.1,0.3c0.8,0.7-8.1,2.8-8.1,2.8s5.3,0.9,4.9,2c-0.2,0.6-6.9,0.5-7.8,0.6c-0.9,0.1-9,1.1-9,1.1l-20.7,22.1
		c0,0-3.7-1-5.2-6.3C141.6,75.8,144.8,73.1,144.8,73.1z"/>
	<path fill="#048A6F" d="M134,146.8c0,0-6-12.7-10.7-15.6c-3.4-2-43.9-5.8-49.3-4.2c-5,1.4-13.5,7.3-13.5,7.3s-2.8,0.3-6.7-0.5
		c-3.5-0.7-6.1-2.4-6.1-2.4s-0.7-18.8,0-33c0.7-14.1,22.4-55.4,30.9-62.4c2.3-1.9,5.7-4.1,9.5-6.4l7.2-1.8L95.8,41
		c0,0-11.6-1.9-18.2,1.2c-6.6,3.1-17,24.5-17.5,47c-0.5,22.5,8.5,29.1,27.7,31.7c19.1,2.7,32.3,4.2,38.1,8.2
		C131.8,133,134,146.8,134,146.8z"/>
	<path fill="#57110C" d="M95.1,29.8c0,0-4.1,1.4-8.1,3.1c-3.2,1.4-6.8,3.8-6.8,3.8l1.7-2.6l-2.1,0.4c0,0,1.5-3.6,5.4-5.7
		c4.8-2.5,10.5-2.1,10.5-2.1l-3.1,2.1L95.1,29.8z"/>
	<path fill="#453652" d="M127.2,27.5c0,0-8.8-1.5-18.1,2.4S95.8,41,95.8,41s-6.6-12.3-0.7-20.8c3-4.3,7.3-4.2,7.3-4.2l-7.6-2.4
		c0,0,6.2-3.8,14-2c4.8,1.1,6.1,2.9,6.1,2.9l-3.7-7c0,0,11,0.8,15.1,7.2C129.4,19.3,127.2,27.5,127.2,27.5z"/>
	<path opacity="0.72" fill="#736083" d="M125,24.5c0,0-3.8-6-13-7c-9.3-0.9-13.7,3.1-13.7,3.1L105,20c0,0-3.7,0.7-6.5,4.9
		c-2.5,3.8-2.1,8.3-2.1,8.3s4.6-7,12.7-8.6c8.1-1.5,14.2,0.9,14.2,0.9l-1.5-2.6L125,24.5z"/>
	<path opacity="0.43" fill="#FFFFFF" d="M149.6,94c-0.2-0.8-1.3-0.7-1.3,0.1c-0.2,4.4-0.4,11.7-0.4,20.4c0.1,7.7,0.3,15,0.4,20.1
		c0,0.8,1.2,0.9,1.3,0.1c0.8-5.6,1.8-13.5,2.1-20.2C152.2,107,150.7,98.9,149.6,94z"/>
	<path opacity="0.43" fill="#FFFFFF" d="M149.6,139.4c0,1.7-0.3,3.2-0.7,3.2c-0.4,0-0.7-1.4-0.7-3.2c0-1.7,0.3-3.2,0.7-3.2
		C149.3,136.3,149.6,137.7,149.6,139.4z"/>
	<path fill="#048A6F" d="M80.4,104.2c0,0,6-1.7,14.4,1c8.4,2.7,10.3,5.3,10.3,5.3L80.4,104.2z"/>
	<path fill="#EF4134" d="M160.3,44c-1.2,2.4-2.6,4.5-4.1,6.3c-1.4-0.3-4.8-1.5-9.7-5.3c-6.7-5.2-8-9.3-8-9.3
		c1.1-0.8,2.1-1.6,3.1-2.4c1.2,1.6,4.2,5.2,8.3,7.7C153.8,43.3,158.1,43.9,160.3,44z"/>
	<path fill="#EF4134" d="M163.9,31.6c-1.8,0.2-4.3,0.3-7.4-0.6c-3.8-1.1-6.2-3-7.5-4.3c0.9-0.9,1.7-1.8,2.4-2.6
		c1.2,0.7,3.1,1.4,5.8,2c2.9,0.6,5.2,0.6,6.8,0.3C164,28,164,29.7,163.9,31.6z"/>
	<path opacity="0.13" fill="#57110C" d="M163.8,32.2c-0.3,2.8-0.9,5.8-2.1,8.8c-4.8,12.4-16.8,19.4-16.8,19.4s-7.1-3.4-10.2-11.7
		c-1.8-5-0.2-9.5,0-10.1l0.8-0.6c0,0,11.6,2.9,20.2-0.5C159.6,35.9,162.2,33.9,163.8,32.2z"/>
	<path opacity="0.67" fill="#FFFFFF" d="M139.6,39.3c-0.7,0.3-1.3-0.6-0.7-1.1c2.6-2,6.1-4.9,9.2-8.1c2.8-2.9,5.2-5.7,6.9-7.8
		c0.5-0.6,1.4,0,1.1,0.7c-1.3,2.6-3.4,6-6.7,9.5C146.2,35.8,142.5,38,139.6,39.3z"/>
	<path opacity="0.67" fill="#FFFFFF" d="M59.6,17.9c-0.3-0.7,0.7-1.3,1.2-0.7c1.6,2.2,3.8,5,6.4,7.6c2.4,2.5,5,4.6,7.1,6.3
		c0.7,0.5,0,1.5-0.7,1.2c-2.2-1.1-4.8-2.7-7.4-4.9C62.9,24.6,60.9,20.9,59.6,17.9z"/>
</g>
<g>
</g>
<g>
</g>
<g>
</g>
<g>
</g>
<g>
</g>
<g>
</g>
</svg>
