<?xml version="1.0" encoding="utf-8"?>
<!-- Generator: Adobe Illustrator 22.1.0, SVG Export Plug-In . SVG Version: 6.00 Build 0)  -->
<svg version="1.1" id="Layer_1" xmlns="http://www.w3.org/2000/svg" xmlns:xlink="http://www.w3.org/1999/xlink" x="0px" y="0px"
	 width="100px" height="100px" viewBox="0 0 100 100" style="enable-background:new 0 0 100 100;" xml:space="preserve">
<g>
	<polygon style="fill:#F7941D;" points="40.6,75.7 59.7,72 59.8,69.4 40.5,73.1 	"/>
	<polygon style="fill:#F7941D;" points="40.8,80 59.5,76.4 59.6,73.8 40.7,77.4 	"/>
	<path style="fill:#F7941D;" d="M40.9,81.9c0,0,0.1,0.1,0.1,0.1h18.3c0,0,0.1-0.1,0.1-0.1l0.1-3.7l-18.6,3.6L40.9,81.9z"/>
	<polygon style="fill:#F7941D;" points="53.4,67.9 53.4,67.3 46.3,67.3 44.3,67.3 40.3,67.3 40.5,71.3 59.8,67.6 59.8,67.3 
		55.4,67.3 55.4,67.9 	"/>
	<path style="fill:#F7941D;" d="M49.8,9.4c-15.2,0-27.6,12.4-27.6,27.6c0,10,5.3,18.7,13.3,23.6l0.8,20.4c0.1,2.3,1.9,4.3,4.2,4.7
		c0.9,2.6,4.7,4.5,9.3,4.5c4.6,0,8.4-1.9,9.3-4.4c2.5-0.1,4.6-2.2,4.7-4.7l0.7-20.6c7.7-4.9,12.9-13.5,12.9-23.3
		C77.4,21.7,65.1,9.4,49.8,9.4z M59.3,81.9C59.3,81.9,59.3,82,59.3,81.9L41,82c0,0-0.1-0.1-0.1-0.1l0-0.1l18.6-3.6L59.3,81.9z
		 M59.5,76.4L40.8,80l-0.1-2.6l18.9-3.6L59.5,76.4z M59.7,72l-19,3.7l-0.1-2.6l19.2-3.7L59.7,72z M64.2,39.8l-8.3,14.9l-0.5,12.5
		h4.4l0,0.3l-19.4,3.7l-0.2-4.1h4l-0.5-12.5l-8.3-14.9c-0.2-0.4-0.1-0.9,0.2-1.2c0.1-0.1,0.1-0.1,0.2-0.2c0,0,0,0,0,0c0,0,0,0,0,0
		c0.2-0.1,0.3-0.2,0.5-0.2H63c0.1,0,0.2,0,0.3,0.1c0.2,0,0.3,0,0.5,0.1C64.3,38.8,64.4,39.4,64.2,39.8z"/>
	<path style="fill:#F7941D;" d="M53.9,54.4c0-0.2,0-0.3,0.1-0.4l5.4-9.7h0l0.6-1.1l1.6-2.9H38l1.6,2.9l0,0l0.6,1.1h0l5.4,9.7
		c0.1,0.1,0.1,0.3,0.1,0.4l0.5,12.9h7.1L53.9,54.4z"/>
</g>
</svg>
